<mxfile host="app.diagrams.net" modified="2022-12-13T05:49:34.907Z" agent="5.0 (Windows NT 10.0; Win64; x64) AppleWebKit/537.36 (KHTML, like Gecko) Chrome/108.0.0.0 Safari/537.36" version="20.6.0" etag="w3kKleuIIajOwJzviD8a" type="github">
  <diagram id="byDAY_blHZ-ls1Axw0Sm" name="Page-1">
    <mxGraphModel dx="1185" dy="662" grid="1" gridSize="10" guides="1" tooltips="1" connect="1" arrows="1" fold="1" page="1" pageScale="1" pageWidth="850" pageHeight="1100" math="0" shadow="0">
      <root>
        <mxCell id="0" />
        <mxCell id="1" parent="0" />
        <mxCell id="TVLRT40YYHWSR_mzn2Wf-1" value="" style="shape=image;verticalLabelPosition=bottom;labelBackgroundColor=default;verticalAlign=top;aspect=fixed;imageAspect=0;image=data:image/png,iVBORw0KGgoAAAANSUhEUgAAA3gAAAJWCAYAAAAKvyW8AAAAAXNSR0IArs4c6QAAAARnQU1BAACxjwv8YQUAAAAJcEhZcwAADsMAAA7DAcdvqGQAAP+lSURBVHhe7J0HmBRV1obvrqtrzhEDKCASBAmCBEGCgCSRKDlKVAQEQZIiSJSoApIkKEkkJ0VQQDAQBREUJAhiFlHXsLq/v++xWhFJM9PVXdX9vc/TzwxVw8Squvec853v/OPX33BCCCGEEEIIIULPP723QgghhBBCCCFCjgI8IYQQQgghhEgQFOAJIYQQQgghRIKgAE8IIYQQQgghEgQFeEIIIYQQQgiRICjAE0IIIYQQQogEQQGeEEIIIYQQQiQICvCEEEIIIYQQIkFQgCeEEEIIIYQQCYICPCGEEEIIIYRIEBTgCSGEEEIIIUSCoABPCCGEEEIIIRIEBXhCCCGEEEIIkSAowBNCCCGEEEKIBEEBnhBCCCGEEEIkCArwhBBCCCGEECJBUIAnhBBCCJEkHDhwwG3ZssX98ssv3hEhRKLxj19/w3tfCCGEEEKEELZzP//8s/vxxx/dl19+6V599VX3zjvvuPfff9998cUX7uOPP3YfffSR++c//8zt/9///Z/Lli2bu+iii9w111zjMmXK5IoVK+ayZMnizjrrLHf66ae7U045xftoIURYUIAnhBBCCBFSqMQRvO3fv99t2LDBvfTSS27lypUWmF144YXu3//+tzvzzDPtddVVV7nzzjvP+5/O7dmzx4JBAsPvv//efffdd/bvDBkyuOLFi7vbb7/dZc6c2V122WXuggsu+EtwKIQILgrwhBBCCCFCyI4dO9yaNWvc3Llz7e0//vEPq8Rdf/31Ln/+/C5fvnzu4osvdldffbVV444G28BDhw65Dz/80O3atcu9+eabbvPmzW737t0WNPJ/S5cu7cqXL+/y5s1rgZ4QItgowBNCCCGECBH79u1zy5cvd7NmzXIrVqxwGTNmdEWLFnU5c+Z0N954o8uePbs744wzvI9OOUg56dN7++233aZNmyx4pAJYsWJFV6FCBVegQAGrDAohgokCPCGEEEKIEPDNN9+4JUuWuJkzZ1pgR5DVsGFDV6ZMGQvszj33XO8jowNbRKp4SD4JJgn0rrjiCpNutmjRwl177bXeRwohgoQCPCGEEEKIgPP555+7MWPGuHHjxrlvv/3WNWjQwFWrVs3dcMMNf+mr84P//ve/5r5JUMn3sHXrVjNnGTBggCtcuLD3UUKIoKAATwghhBAiwHz66aeuT58+7plnnjF55MMPP+xy5crlzjnnHO8jYgOB3ldffeUmTJhg38OVV17punfv7ho1auR9hBAiCCjAE0IIIYQIKDhkUq2jelajRg3Xq1cvlz59ejNUiRdsHZFtVqpUyf3rX/9yHTt2dG3btj2mkYsQIrYowBNCCCGECBhsz5hjV6dOHZNHEuR16tTJXXrppd5HxJ93333XNWvWzG3btu0v3188g08hhHOnPPIb3vtCCCGEECIAEDzRY/f1119b4NS5c2ffe+1SCiMYSpQo4fbu3evmzZtnx2666aY0OXgKIdKOJlYKIYQQQgQI5tshe6Ryx9s2bdoEUv5IpQ4nzZ49e9pg9IkTJ7rp06e7H374wfsIIUQ8UIAnhBBCCBEQmEE3cOBAG0lw3333uZYtW1qfW5DJlCmTa9eunc3je+KJJ9zSpUtNYiqEiA8K8IQQQgghAsDBgwdtDMELL7zgatWq5Tp06BCKgeJU8vLkyePat29vgR3dP0hMhRDxQQGeEEIIIUSc+b//+z+3bNkyN3nyZFe0aFH3wAMPuAsuuMA7G3yoMtKPR7/gvn37XKtWrdzPP//snRVCxBIFeEIIIYSIO/RtzZo1y91xxx3uqquucrlz53ZdunRxn3zyifcRic2ePXusf41Zc/fee6+77rrrvDPhgT7Bu+++21WsWNEkps8//7x3RggRSzQmQQghhBBxhUrP4MGDzSnySHCOXLdunfV5JSpU72bOnOmaNm3qmjdvboFtmKp3R7J9+3aXM2dOd8MNN1hV8pJLLvHOCCFigSp4QgghhIgr9JwR4FG1wqjjwgsvdP/85+9blEOHDllFi8pWooKkcdq0aeZIWaFChVAHd0Bg17hxY7d7927rKSSAFULEDgV4QgghhIgbSDOpXo0fP94qdRs2bHADBgywQC8yMHv16tXugw8+sPcTDaqXVLlwnixdurRJUxMBRidQuZs9e7bbtWuXd1QIEQsU4AkhhBAibhDgYbFfvnx5q1yde+65rl69eq5SpUp/GZgdCfYSje+//96C28yZM7u77rrLfv5E4LLLLrP5fVTxCPJUxRMidqgHTwghhDiM//3vf+6zzz6z1xdffGEb8M8//9z98ssvtlm99NJL3dlnn+3OP/98e9EjRmCSPn16d9ppp3mfRaSVKVOmmJMkJitI/t566y13zjnneGcTh02bNrnbbrvNzEmGDx+eUNcQ90vJkiVd3rx53ahRo9xFF13knRFC+IkCPCGEEOI33nvvPXP+e/31193evXvdN99847777jv3008/uW+//dYCPwI+KizMJjvzzDPdWWedZVUm3rJ5LVKkiCtQoIDLlSuXHROph4HZzFP76quv3NChQ93999/vnUksGGo+aNAg17dvX9eoUSPvaGLAPUQVb/PmzfY3ZPyDEMJ/FOAJIYRIWj788EO3ZMkS63/atm2bBXD/+c9/XPbs2V22bNmsKofULF26dO7yyy//QybIxpXqBMHH/v37rceIPjGMQajmXX311a548eImM+RznXrqqfb/xMmDm+QzzzxjQTMSPyqliUj+/PmtSszPiEzTL7heMbOh3+/LL7+0Y4ULF3bVq1d3hQoVsn9HG/oLGf1AkNe7d2+bjSeE8B8FeEIIIZIOAjOCh9GjR1uARpUOGVnlypVthhcBGkHZKaecYkEbL96PwNKJZJO3VPZ44fLIJn3hwoXulVdesd4ypJz0VXXt2tVlyJDB+9/iRGzZssUCPP5OBCUEyYkI1x5mMlxzM2bM+MM5NJpwba5atcqCLJIXVEK5Jt99911LQFxxxRXu4Ycf9q16iGlOtWrVXKlSpaxKKZmmEP4jkxUhhBBJAcEYQdf8+fOt54mZawRpHTt2dDt37nRvvPGGe+ihh1yOHDmsWoQEEylmJNA7HCp5HKdfCokmgRzW/k2aNLFh3QytHjdunNn+T5482WaCde/e3QIWNtzi2PD7mTNnjgU//fr1s/67RGXq1Kl2Hd1+++2+BHfw0Ucfufbt21vQXKxYMavYkcAoU6aMmdsgR0YOi4OpH9CzimyZ2Xh8LSGE/yjAE0IIkfAQ2K1cudKcGqkm8O8WLVq4xYsXW58X1bVoujQSINapU8ekn0OGDDHpHT1IefLkcRMnTjQpqAQ0f4eAm98ZwXafPn1c2bJlLbjGgZHfWaI5Mb799tuWRCDh4AdcY1TqNm7caP+mgke1OkLBggXt7aeffureeecdez/aULG76aabLGDHrEgI4T8K8IQQQiQ0BAbPPvusq1WrlvXcEXgRZBFwXX/99d5H+QOBXsuWLd3cuXOtikI/H5XDHj16mKmLqnl/QvD2/vvvW9BdpUoVkxGefvrpdu7jjz82M5LDg5NEgKCHyh09nn5BUBfhtddeswCanj+I/D75Pfs1noEK91VXXWVJlcjXFUL4iwI8IYQQCQnVC4ZjDxs2zOSRSP0ef/xxN2LECDOVOFJ26SdscBn8PHbsWOvzQybapUsXc+xMtKAltVBFevrpp63aREA3ZswYC8J5Uc3bsWPHX+biJQJIeUkC+DX+gar0tddeazJJOHDggDl2Ig3FKIieUYI7jGwwe/EL5M5weLAphPAPmawIIYRIOKgG0XM0ePBgq1jQ49S2bVuXO3du7yPiA0sugQz9eZi84MzJrLdy5cqZVC9ZQZqJAQd/r6+//to7+if0Oj766KOuU6dO3pHw8+OPP/7Rn8Y16heHDh1yvXr1sj47jIDgmmuusfl0L730khm8UGWmT9QvXnzxRTPN6dChg72Vq6wQ/qIKnhBCiISCIIrg7sEHHzQ3ywYNGlj1jNl08YaKCkFd69atXbdu3Wy+HsYuixYt8j4iOZk0aZJ78sknjxrcAdXWRDNbYVQBgS3VXT+hOsh4AgIrRngAUmUSDPy+6Y/zM7gDKnhIQPmZVbEWwn8U4AkhhEgoDh48aD1umEbce++95pLJPDu/XApTw/nnn+9q1qxpfWVUp3Az3LRpk3c2ucBQhcrcZ5995h35OwR4jBNIJKjkkowg4PcTrntMhOrXr+9uvPFG7+jv0BOHBJZZdX6CyyzBJfemAjwh/EcBnhBCiISCfrvly5e7qlWrmvSM8QXRdMiMFvSTMRuMGWT0JmEqgqV9snHzzTfboHh6wo71oiePwfOJBKYj8K9//cve+gUBFbME69Wr58466yw3ZcoUly9fPrsnCDAx+8Hp1c8EA0EmL74XGQsJ4T8K8IQQQiQEyN3o4WJ4efHixS1w8su8Ilqw6SUQRaaJAQZyUnqmkgmqc/ydjveiAhSkCmw0uOSSSyzIopLnJwRu9913nwVy9PtxvVGxi1TzCPK2bdtm/Xh+QTD73XffWeU6mXtNhYgVCvCEEEKEHjapOALiTEl1ArdM5m+FBUYoNGzY0K1du9bkpfTmicQGgxWCVj+rtpgNvfrqqxZEElzR74ckmAH8zz333B/ullRJ/fw+kILyNfiZI6MvhBD+oQBPCCFE6GF+GgPLL774YjdgwADf59v5AdXHEiVKmJxuzpw5FrSKxIWAixEJGJ74BdcQcyCBytnhwVWOHDnMSROQC/P9+AUBHjJkfl4CTCGEvyjAE0IkLPR6jBw50vXv3/+or82bN3sfKcIMfT38ndko33///e7WW2/1zoQL+qOo3tGTRTVy37593hmRqDCuAGfJyPiCaBOZgwc4ZlKl+/nnn+3fgPlK5G3RokXtfT8guOPrIrUNYj+sEImGAjwhRMLChh+r/M6dOx/1hWRIhJ8NGzaYqQp278gcw0zmzJldjRo13OrVq210wuGbcZF4EOAR3H3++efekeiCBLR06dKubNmyNndvyZIl7q233rJ+VdxLFy5caO6WjRs3NrMbP+AaJohl9l1EEiqE8BcFeEKIhAWZG439R4MelLx583r/EmEF2/WpU6e6vXv3WvUOiWaYYQNcpUoV61WaP3++27lzp3dGJCKZMmWyAI9gyy+ozvXr18+SWgR59HsyWB+3WebfjRkzxjVp0sTm1PkBpkGYuHBNR+bwCSH8RQGeECJhmThxovfe36lbt671nYhws2bNGrd06VJXsGBBV7hw4dDLv6i44G5Yu3Zt99prr9nPpype4nL77bebxJiB/H6B5JdrCgOiGTNmmLkKQ+Vxm+V15513+hp4UZ188803XZYsWaxiKYTwHwV4QoiEhIwxARzZ8aO9sNAX4YZqBAEQM9IeeOABd9lll3lnwg29eJitZM2a1SR0jE8QiUmxYsXsuqWCR4+cX5A4YNwELppUDTEhojePUQ1+zuHDxROp/LvvvmvXc7p06bwzQgg/+cevsukS4g/IpOL2Rcbxgw8+MHkfCxMSk08++cTt2bPHPg4pS/r06c11DIkLrmAslhxDYoVTGbOdRPzAUZG/RZ06dezvQf9H5K2a/BODHTt2uI4dO9r9icnKDTfc4J0JP4xJQEKHoyavatWqyXQlAaGq9tVXX7nFixe7ESNGmHQykcBc5bHHHnMzZ860WXz0yeLeKammEP6iAE8kPRhtENB99tlnNoMKuRdvqfKQSSfzibUzQQEBA4EbQ1tpUicYRD7Fx7Iho6+rTJky5kZGwEc/EBlSPoeIHfx9ihQpYuYbBHWYB5CxLlSokA36xchCVt3hh3u1RYsWrmbNmq5Tp052nyYSyOe6du3q+vbt6+bNm+drhUfEh3r16tlaQQDfunVr9+ijjyZUcpB1tWLFirZ28gymIs1Q/0aNGtkxIYQ/KMATSQtZ/y1btrhly5aZY93GjRtNqpIxY0Z7Zc+e3SpyVHyoDHAOeQmzhBgaS0CHdIoAkc+F5T6yQKp8LGpXX321y58/v/VY3HLLLfZvERvoXapcubI5tx0OQR0BXtOmTd1dd91lkiURTpBnEgD16tXLDR8+3N19992+VWZJAPGMONrwcZ4LJHSuvPJK70j0oG+pTZs2FgCMGjXK1zllIn6wnpB8ivydkVAmCi+//LIFr7h0Vq1a1caA7Nq1y0xfSMwIIfxBAZ5IOqjubNq0yS1YsMBc6ti8RWQjBHW5c+e2BZbqXUpg5hoBH0Hj22+/7bZu3Wp21GTdCfLIYhYvXjxh+oSCDBnioUOHWhBwNKiqUhnBdVGEE+41+u6QLfK3zpcvn3cm+mBM0bZtW+v1OxKq9pj5UDGONjiE3nvvvW7lypVu1apVf8wsE4kFa1LPnj3dhAkT7LlEVZrEYtihxYHgDik18lPWwZdeesncPPmZkVXTayqEiD6nPEKjihBJALkM+upwD+OFa1m2bNnMMhq5CNbkbBIvv/zyVMn3IlJO5H9U7HD0o4LHYFd6aF599VVb6Mj4X3HFFVYJFP7A75hh15UqVbLgPWJFTrBN0z/SWoJwMsh+WYMLf2EswrBhw+weq169um+OqFw3Tz31lHv99dctiXMkbFqpTPhRXeNnotrBjD9cQnEhFIkHz6sLL7zQ1gjUH1zTYR/3Abh1UpFkBl/Lli1tzcNFkyQnyVUSFyRUMX4RQkQXBXgiaUCK2apVK/fiiy+6iy66yAZgkykl886CwyIbLeihQP5Hdp+gkUGzyAXpP2ARR9aJo5gkgv5ApYPAjs0Ds+4I9sgUI5MlyEdSS3YZgxw+ToSP3bt3WwWgfPnyrlSpUr7JM7lexo0bZ1/vSEgE1a9f376+X31TXKsEeDxLkPGJxINrl0QThiTMdKQVIFeuXKGu4nHd0l/IfUFCNdKiwL+5ljFZmTRpkiU9kc0nQkArRJCQ84NICtgI1qpVy/rj6AF4/vnnbfGhshPNwO5okJkl+061AScxviY9Q7j/ffTRR95HCb8giKYqS6CHzG7AgAF/ZIyRwInwQRUW50EqAmwM/TQxQs5NJRjpNc+Pw19sTps3b+6rYQ/Doank4eIrEhdaAkqWLGmJP9YnKrdhhqo3PwPzHJnBdzgYX7H+MqqG3lbcYqlcCiGihwI8kdAgr0Lvz8aeTdicOXPsfWQifm7KjgYSLnrwJk+ebFn/WbNmWV/e0SoDIm0gxyUIOLzFOOKCWqNGDTPNISig51KED6SS9M7y9/TTOZMeznXr1pn7H3Junhu8MF/ixftIsP2ESgfPKmaJicSF51OePHns+YR8fO7cuVbRCyOMFkKaSQIGpczREjAEefRKN2nSxJQtmCWhqhBCRAcFeCIhYXNP9pDFg4WGChrOikGQOJGRZy4QCx/uaUhElyxZYuMWRHQgiGZjTEYcZ9PDf7cEB7jVMToB6awIH9zfBHgEV1TI/YLkC+64OLLikonUt1u3biaZRHLNqBS/4edjo6wKXuKDfLFChQrujjvucAMHDrSEZCyusWhBQo11lyQqjrO43GJodSwIahkLQR8rVUvW6rAGtUIEDQV4IuFgkUE+xUaMOVmYp7B4sKkPClQd+P569+5tgQgyFrKYCvKiA9bcuLRhpIN9PgE0fY/8fhmHgTSWIFuEE4J0kiNIF/0yyeE5QnKAagQQYCEn69Onj1XekWbST4thj5/wfCCQ5ecViQ8SfmY60huMSyxGJCQ0wgDXKBJ4KpB876xrJ4J+eJ7FqClopUDZciz3YyHEySOTFZFwfPHFF9bjtmjRIltgyBAGsYEb2QomIMzcW7FihS3kjGpA9uWXYUSywKaBIJ8sMm6LzBMjE87rvffeswx5sWLFfO3dEv7x008/mTMtf18SOFTFow1yMRJDJF6OhEQBwR/JAqSaJI/87OVFrvfOO++Y3FwkPlSLqXyhOsFtErVB0Oeo4lA8duxYN2XKFDM+YtzDyQwyZ62jSs26h1MtSRTuJ156PguRehTgiYSCTRmzhMaPH2+uicggGUkQZMjYRmyj33//fWtIxxREpB423QTLuGSyOSKQptLDpglJLNliv1wPhf/QW4sbLskcNpN+BHgEcVROuFaQZvIWcx4qwZGB5xhDUClmLIqfUlGcFenBo7IjkgMSf1RvZ8+ebQY/OE9y/QUx6MExE0fMp59+2tw/MU3hez3ZRCU/E0EtPy/qiw0bNlgFEzdRIUTqUIAnEgY2Ywwvp1kbJzIWGWbShaEaxveJkQJVCdwBCUxY7ETqIbAnsGNzzovZUmySkLupQhpuqMRSld2+fbsZFxHQRxvuR8xVuHZICjDXkvfp4yWYIxmDlIwgj15PNuR+gBx1zJgxlpBgzItIDgh6mHuInH/atGkme+R9rskgJacI7vr162fVO6pwVO5Yv1L6PVIB5z7mvps3b579vPTmaZSQEKlDAZ5IGLZu3eruueceq9TQ28b8ubBUafg+qeTRz/Pss8/aQk5wEmunTyHCAMkcpLZIupDasun1Ezbb9PsR2HGf8mwhAUOQiTStWrVq5szqB2ygUSXw9Ro0aOAdFckAQQ9KBAI9etPo+WStIIGJ8U68oS+VpAPfGwk0kqs4gaZ2fh8/Ez8rRit8TiqX5cqVM8dNIUTKkMBZJAw0arMZwsGLjHtYgrsIbB7ZwFEpYEPH/C0hxN9h44sEDHkk93wsofqLJJTZeFQPkZb5OaqBCiGVQsm2kxP62O666y6TQHKdMTvu8ccfN6VHPKH/lOufHtXq1aubAybBXVqTkvyMGJBxfyHDxqxF5mNCpBwFeCIheOONN9z06dOtTwZjlbAFd8DGkUrEnXfe6T7++GOzyNYgbiH+DhU1+impeNMT5wcYueDqh9S3ffv25hB4+FxF5loSZDJqw88KIs8AvhcFeMkLCQ3kwRMnTjSJcMTJFZdg+lEPvy79BLnwgQMHrBeUyjkjETD+GTFihPWRR6s/kKCWPnpULBgdURnkawshTh4FeCL0sMnr0KGDO+uss6x6l1p5SBBggSxbtqzNQmJho88nVou3EGGBZAj3O2+Zh+fH5g8Dl7Vr11pgN2TIENeyZUu3c+dOqybw9ej/Q55ZtWpVX80gIhW8DBkyeEdEssKw/SeeeMJkkYx6KVOmjKtZs6ZJhUkE+DVOgSCSYA4TFfpNqdbRz8waRa+7HyDXJMmJZJPAlpfGJwhx8qgHT4QeKndk+7C+J5sYxurd4dBDSA8CbmIs2jSaqxdPiL+CNJP5hlQ3kDVH24yBDSaVM4I67kf6gdatW2eVO45jAkHfEZtsv545JHcw2GCMCnP36P8TyQ29mDhEY2RC4LV+/Xoz4WHwPvcCBkQkOVkz0mImxedBSbJjxw6TSlJFYwQCkuSmTZuaTJReVD/BEIsexOXLl1u/LSYufo8kESJRUIAnQg1Zdi5hsvjjxo0L/EiEkwX5GRUC+huQgCEFE0L8ScRohcCLMQVs/qIJm0iqFIwt4XMj/+b5QhWBjSebbL+NnHi+kbxiLEPHjh19G+ouwgXXJq6tJBe4RqnmUU0jEKN3m6QEBigEaSQkTlbVwsfv27fPvfXWW27x4sXuueees+CRJAOfh/YHkqi0EfjZdxqBABXpJy8Snps3bzaDGYLMaMlBhUhU/vGr9F8ixBAAIVehyoVNcyLBotquXTtXp04d63lgNpAQ4neoULCZ7du3r+vfv7+rX79+6Kv3R4JrIs8AAslBgwYpwBNHpUuXLhaIkXSgZYHqMlVmekOpgCFnJilBoMQ1hKEXARIfQ3CI7JiAkEr1/v373bvvvmv/JnikD46ZdHnz5rUZdyczvDzakODAZIZ7gIQL9zvSzbRUKIVIdBTgiVDz0EMPWU8Cc3NY3BIJen/I0LLoYvbQpk0b74wQArki7oIDBw60BE+PHj3cRRdd5J0NP1QoebY9+uij9rZGjRqSpom/QR/ozTffbDPk6JHjuiFIe+eddyxBQJUbKSeVOYI8xn0QpBHgEdjx//k/bAXpJeUeIpjDzIW+T9QjuMbGu2KGBHX48OF/BLJPPvmkVRWFEEdHAZ4ILWQYmXv3wQcfmJsY2clEgluzSZMm1vfAiwVOCPE79CJlzpzZhixjAIFEm2pFooA8k8rMypUr7f7Hgl6IIxk9erTJd7lWHnzwwT+qWkiJGaVAgpC1hLdU9z788EP33Xff2ccA7QAEhyQPmDeHnBP5Ja+gySBpxUAiOnv2bDOXIfEphDg6CvBEaEGTj3yJTCPSDbKTfkOQ9dRTT9niiWMnmU0/QaZJkNe6dWuzxhZC/A4bWSoPyLUwgOC+RKaZKIZEGKtw3yOR42f006lThBMklkgVCc5Wr159wiQn271ItS4CQVzQArnjQWKX+5zEBzMBUfEIIf6OAjwRSrhsBw8ebBs7eu+QavnRf8PXQd7C7J+5c+e6AQMGmLMYCwzv+101JANLHwXmDvRVhGkhFiIWvPbaa5bo4f6fOXNmQhgScd/37t3bPfPMM1alQJ6pe18cCSYodevWtTFBSJWTBUxkMHrhLZJN+tQTrf9WiLSiFUOEEuQmu3fvtmZxMph+PdyZQcUQV3rh2EQS3MUSfr4iRYq4vXv32mImhPgrBQsWdOXKlXNbt251ixYt+kt1IoxQYSGZgysizx1GMSi4E0fyww8/WHITAxVmNCYT9N9OmDDBEqy4aKPmoZ9QCPEnWjVEKMFVi+ZwHvR+SjPpg6EvgQxpvGZQIdFi04fbmRDir5DcoYKPfTpSxrDfJ8z3mzp1qvVCMURdA87F0WA2HCNCqlWrZm6XyQbGMsiySegg1WS0A+ukEOJ3FOCJUEIFjyCPBnEGEvsFs6/IjjZr1sxVrlzZOxpbkGeycMW6eihEWMA6nSAPE4Zhw4a5//3vf96Z8EEv1YIFC6xyX6xYMVXvxN9g/Zs+fboFNyQfk5U77rjDTFfoyyO5g3No2Cv4QkQLrRwilEQCPCSMsTJV8DOQPB4MWVaAJ8SxoYrXsGFDlzNnTpNuzZgxwzsTLvbs2WNmStjYV69e3XcTJxFO1q9fbxUrxgUkknNsSsFcplatWuamze9k6NCh1s4ghFCAJ0IKwR1SJqzSE8U171hce+21FuDRDyiEODpUuhmZwKbvsccesxlgYQI5+H333WdDplENFC9e3DsjxJ/g4MzcVxJ+rVq18o4mLwxub9y4sSVEFi9ebKZEBw8e9M4KkbwowBOhhAreN998E9MKXrzAFRDZiQI8IY4PI1MmTpxoQ50xXyBYCgMYRNBHtGTJEqtEIgmPxdgXET62b99u1TvMhZK5enc4l19+uSVHihYtasYzzz77rExXRNKjAE+EErKYuIjhooUJSiKDS5oqeEKcGPrVbr/9dhuhwviEnj17uk8//dQ7G1yGDBlim1I27VQfzznnHO+MEH9Cb+myZcvchg0brGpFglP8PhMTo5nu3bu7zJkz22w8fk9CJDMK8EQooR+OwI6gh2GviQxyEzauGMoIIY4Pm72aNWu6Bx54wL300ks2T+7DDz8MnMMeVfmI1f0TTzzhrr76apPekdAR4mjQX/bGG2+YqRDVO81++xPue34nffv2dVdeeaU9A9auXSvTFZG0KMAToYRNENp7BgIziDyRodeCxUuGC0KcHMgb7733XlelShU3ZcoU9+CDD7qNGze6X375xfuI+EKweeDAATdgwACrMl588cU21Pz888/3PkKIv0L1joCFyjRDvtOnT++dEYdD72qPHj1sj8AAdEZJKMgTyYgCPBFKkDCdd955Vt1K9ABv//79VsGjz0AIcXJQEXv00UddixYt3KpVq6yix0DkeI9QILijj6pXr15uzJgxNs+Lt3ny5PE+Qoi/gwkP1y9KDnpNVek9NgR2yDS//PJL1759+9D04goRTRTgiVDC4kaQlwwVPORlBHjp0qXzjgghTgakWm3btnVdu3a1WVkEeaNGjXK7d+/2PiK2YA61cOFC16VLF5NjUmGk547gTnI7cSyoQO3cudMtXbrUZiMi0RTHBydajFc2b95sM/I++OAD74wQyYECPBFKIgEeg41j1YMXL+tlJJoK8IRIHVQ8cKYcOHCgPTe6detmQd/o0aNtlMLWrVt9f4bw+am+UE1ALrpu3Tr7Hjp16uSyZs1q97cQx4JezUWLFtkIkNtuu01S3pOA39X9999v1TySKoxPIMkjRLKgVUWEEoI7Frn333/fZuL5DZtADBsi8HWRWcWip+ftt9+WRFOINMDg8HLlyrlx48bZ7LA333zT+nSQbw4aNMjGKvgFvX8EdlQT6LMjoONt8+bNrcIoxIlAajhp0iSXK1cuGwVAT7Y4MewR2rRp48qXL2+/P/pxGa8kRDKgAE+EEkwUMmXKZMPOd+zY4VtfDVnT/Pnzu9KlS7tdu3Z5R51bv369u/vuu93111/v6+YQl1D6h+gnwgZaCJE6kEAibaM3h2paiRIlLFEzbdo0C8AIuuhzigaMccGmnQASN7/x48e7iy66yGSZVA5LlixpPcRCnAwzZsywZGLZsmXNkEecHATCmNG0a9fOgmNMjVjTE72tQwhQgCdCCQ/unDlzWgZ88eLFJmHxA7L+ZPsxOmGBxSCBF5IrXPDQ9RN8+QXB3XfffWeuaUhOhBBpg+RQhgwZLGFChp8N84svvuiaNGliTrWlSpWySl9q5uctWLDANW3a1J4JzON7+umn7fjw4cPta0Q26JJkipQwbNgwk+hTiVL1LmVwr+XOndv6XlHBII1+5513fHHWpMcXtQBf88hX1apV/5IkFsJv/vHbRS7/WBFKqG6xmSILv2LFCht6nkhwazZq1MhNnTrVrLFx2xNCpB2q7hUrVrTsPkPGkW0RnC1ZssSSNiRVTj31VJcxY0arvPFxZ5xxhsuXL58lWn7++We3Z88eewYxm4xeYD4nfbp8HEEcVbrKlSubAkDVOpFaJk+ebJVgKs/0j4rUg0zz4YcftiBs/vz5UVXFYIZ2zz33/KWVIwLqAf5+vPjaQsQCBXgi1JCVIzs+a9Ysk1EmElQQypQpYz2G27Ztc6eddpp3RgiRWljyCOYwX+jYsaPr3r27d+Z3NmzY4JYvX+5ef/11631CHYCkK/I2smQS6LFZIxDkLf++5ZZb3K233uoKFy5sczqFSAvff/+9K1iwoK0BVIAzZ87snRGpgVaOwYMHu8cff9xly5bNTZgwIWrzBGfPnm0GSridHgmKAXp9cc0VIlYowBOhhiwcA40JhOhtSSRoCEfywUaUBUkIkXaQWNM/i3ES8+eYKXYskGVTpaPChwMfPb+RJZOg7oorrjBnTt5SuRMimpC4rFGjhln+P/HEE95RkRa4l/v162cB11133WXuumlts6BlAyXAmjVrjtojmSVLFle7dm1f2zmEOBIFeCLUII3iwYmmHuOE7Nmze2fCDdU7XPcwapg7d64rUqSId0YIkRaQVCJ3xmQF8xNJpkQQoWJM3xbyfF70nIvogJkS6h8km7jqIp1knEpqoWqHEQ79u0iyhQgC6vQWoYaHMtl4emawPY/F2IJYgEQMcxcyjDSICyGiw/Tp0/9wJFRwJ4IKfeWMyKGPM1ESl0GBKlvPnj1dhQoVLMhD/ZOWcUv4ANC/26dPH/u8JI5Yv5HYChEvFOCJ0FOtWjXLmtGjsHTpUu9oeMFpCz0/UrLGjRtrEypElMAcBVkmxik4EgoRREhAIM9ETsiwbkw6RHRBVv3YY49ZAhW3WxI/PB9SCpVWFET07KK2QfrZtWtX17BhQ1e/fn33yiuveB8pRGxRgCdCDw51vXv3tmwZdtKpeUgHBYI6MrcEqlTvbrjhBtliCxEl2Gzt3r3bxp8crVdGiCDwxhtvWMCA5I/ZjcIfmGNL1Q1DJHrxSBKzBqcE2in4W0XUQ1QC6dfdvn27BXw4YdOfx2xMIWKJAjyREOA0xqy4tWvX2gyrsLaWYtFO9e6aa66x3sILL7zQOyOESAs8E8aOHWvvY1ykxIkIIlynWO0zhoPgAJdW4Q88A/LmzWumKySIkVdu3rw5RfsHgjn2Hbhc87fCTTdScSXoo+eXAG/evHl2TIhYoQBPJAyPPPKIOdmNHDnSrV692iyRw8RXX33lJk6c6FauXOmqV6+uvgshogjS51WrVplZhYwQRFBB7sd1ysgNrlMlIvyFIeTMrOzUqZPbv3+/7SMIyk4W/k78P5w0CcpR4PTq1cukn+eff759DDMyOc7YFSFihQI8kTAgZRk6dKj7+uuvLSPH7LiwVPKQlTIWgWZvKpFU78455xzvrBAirdDThBkTY1WECCKsA8j9UHJUqlTpjwBB+AuJYar69Ly/+uqrbsCAAea0mVLSpUtnY1dw5cQojRmbqHGA4C81n1OI1HLKI6QrhEgAyHTyMEUmgfadh2muXLmsRy/oWVC+XxYDqgvdunWzIaxCiOhw8OBB27TRH/PUU0+5f//7394ZIYIDlR6SfKhPGJNz5ZVXemeE3xDkZc2a1eZekmwl2Kb1A+llajj99NNt/4Fkk2CPBDTOvRdccIH3EUL4iyp4IqE4++yzLROHxJE+BhbLoGfN+D6Rh5Ct5a3GIggRXTCtYFYVxkUYKggRNAjqGIvw1ltvWSCQPn1674yIFVTgOnbsaOY2w4cPd08++aRJL4/HoUOH3LRp0yyB9O677/7FpAUHbGS2/C1z5MjhLr30Uu+MEP6jAE8kHDxEW7ZsacPBmXFDRYxG6KDBwsH3x4JCEPrwww+7W2+91TsrhIgGbJzJoFPFq1mzpndUiGDB9Yl78llnnWVrlxIR8SHirEkPPC0f9MUfr5+fxBFrN313rOVIbCMfj8kKFcHrrrvOlSlTxv62QsQKBXgi4UCOyQOVB26JEiXczJkzXd26de1BHBRYzPv372+yTNy7pk6dakNXkXMIIaIH9/3GjRvdTTfdZJs3IYIGveIffvihW7hwofVw5cmTR+YqcQSpJoEdiqDBgwdb/+6xoEp32WWXWX8vATrJ5Tlz5tjfdOvWrWauQt+vlDki1qgHTyQkLI5IHosXL25a+hkzZthDmh63a6+91vuo+HDgwAGzYx41apTLnDmze/bZZ82JS3bYQkSfBQsWWAKladOmrnDhwkqiiMCBmoMB/Eg0uU5vvvlmBXhx5pJLLrG+OfrxkF4ykzZimHI4jDKiZ56h9LhpEqgvWrTIxi3wOWgZIbmU2l4+IVLLP34Ni82gEGmA2Xg0rSOR6NKli7lUMug4Mq8mFlCp27Rpk9kw49RVo0YNq+KpkV4If6BS3rVrVzd//nybL5kvXz7vjBDBARkfssxMmTK58ePHu8svv9w7I+IJyeHp06e7Fi1aWF8efXYkZRV8izAgiaZICpo0aeJefPFFd9VVV1n17I477nCTJ0+2eTc8xP2ETeaGDRtcs2bN7Ou+//77rnPnzm7QoEEK7oTwke3bt5tpBZsz3WsiqFBhZkba7bffruAuQKCqYVwFSWGklqzZH330UWjGL4nkRhJNkTQgr8CdjIc2QdYLL7xgFTUkW8gnsEmOloziv//9r/v000/t8z/99NOuXbt27uOPPzbJKIsFPYGySxbCP0jcLFmyxPph7rnnHrM8Z6ixEEECaV+HDh1M6sf8tIsuusg7I4IAI1Vo6+DvRD8/qh/66RiDIESQkURTJB30O2C6QE8eVT164uh5yJs3rzlnYcSADCOlg8ZxzkKDz4B1NPto8FeuXOl++OEHc8ckE0iAiTRUCOEv3IsPPvigvR02bJhMDkQgoT+8fv367oEHHnCPPfaYd1QEDdQAPXr0sPYKnLlbt24d0xYPIVKKAjyRtJCRW79+vUkvsDam2kaGn+COQA8nzgwZMpiTFtlVMqtk7RicTnXuP//5j/v888+tUvDBBx+YdINFgAAPuQ1yUMxTMHagcieJmBCxgWVtzZo1VimvWrWqudVy3woRJFhDkO3TKrB48WIz6xDBZd26dVZtZb1/9NFHXaNGjbwzQgQPBXgi6cHemCwqEk0CN6pu9O18++23Ftgh28QKmRfyToI8ziHDZIFmsClz7H788UcLDG+77TZz3KJxvnz58rZoSxomROygak7VbvTo0a5fv36uevXqMkYQgYOxCFybOC0i5dc6EWxY69kf4HSKEmjEiBGuYsWK3lkhgoUCPJH0fP31165o0aI2VgFLddwuDx065Pbt22fyTd6nMkeljt49Arl06dJZM/zVV19tg9WpDhDUIevk87z00ksmt+Hz8jalck8hROqhss7Gi/uScSTxHo0ixJGwnhDc0SaACRez10TwYXj5smXLrOWCdg4cuvPnz++dFSI4KMATSc+QIUPM1RIjFLL9Ebg1yNhF3kLk32RaqQhE3kbej/DJJ5+4+++/382bN88GriPrEELEBhIs1apVc23atLH7T9U7ETRWr15t43py5MhhiUVdo+GBfQDjE5CAM95i7Nix1tohRJCQi6ZIagjEaG5H0jVt2jSTYUaIBG28aKbmheMmMk3e8u/I+SMXZ/r2GG5Kjx9zjZBpUuE7PAgUQkQfEjCMQqHyzuxLemmFCBIYcjED9Y033nATJkxQf3bIYL0nMGcvQKDHPoJee9Z9IYKCdpsiaWGRffbZZ81ljyAv2u6WZPT69u1rgR027VQVkHcIIfyD3lcMK7JkySLplAgkb7/9tnvzzTfNhOvGG2/0joowQZDXsmVLc0BFZjt48GDrxRciKCjAE0nL7t273fz58y2wYxC6HxQqVMh68OgFQqaJLCci9xRCRB8q8RgglStXThl1ETi4NpnPSI93s2bNojZ7VcQeZtkyiqVEiRJWyaMaizu3EEFAAZ5ISmhwpz8O8xQW2UsuucQ7E30qV65slsqYuSAdo6FeCBF9MEhik4XxUYUKFbyjQgQHEos4MWbMmNEqeJLth5v06dNb8hbDlZEjR7o5c+ZYEC9EvNGTRSQlO3bsMMkks+oYZUBPnZ/QTN++fXu3detW9/jjj1tgKYSILvQ0cY+RUcfhVoggQVsA8xmRaNaqVcvXxKKIDQTouXPndh07djQHbYzaVq1a5Z0VIn4owBNJB9W7V1991YaWEniRgfMbmrEbNmxo83Nefvlly/QxgkEIET2mTp1qfa4NGjTwjggRHDDjWLFihbviiitcwYIFbfaqCD+s78WKFXOdOnWyubr09G/ZssU7K0R8UIAnko5du3aZLXWmTJlsKHmsFlmGpiMHvfPOO93EiRPdpEmTpNcXIkp8+OGHlrjJmTOnzFVE4MDddfPmzdZ/d/vtt5sJkEgc/v3vf9tsPEYuscfAfOXTTz/1zgoRexTgiaSC7P5bb71lG0EextmzZ4/Z/CG+DtVCpJoFChQw85VFixbJWVOIKMC9hIsdVXIy6kIECZJ59N5h/HPrrbe6c8891zsjEoXTTz/dtWjRwl4E840bN3b/+c9/vLNCxBYFeCKpQBbJaASy/PTp8ECONQSVXbp0sfEJDFfHLpvsrhAidWCugiMu1KlTx94KESSoMCMhZl4aCT6RmNCTN2DAAFejRg3rxcNlU0odEQ8U4ImkgQZ3xhRgxFCqVCkbRB4v0OtTySObS8VBen0hUs/rr7/udu7caY61jCQRIkjQ971s2TJzV+TZL3OVxGfEiBH2t549e7YbNWqU+/bbb70zQsQGBXgiaWBMAeYm9N5VrFgxLtW7wyHD17ZtW/fll1+apGPbtm3eGSHEyYLEGeOKgwcPmmlSrCTXQpwsrD1jx461oeYkF0XiE3HUzJo1q/3tX3jhBck1RUxRgCeSBnp0sKcuWbJkXKt3EU455RTXqFEjk2nyffXo0cPGNwghTh6kb2vXrnWZM2d2OXLkUIAnAsfixYvdRx99ZGsPo3lE4sNzCCOd7t27W7A3bNgwS0RpRp6IFQrwRFKABh5d/OWXX249OjheBYEzzzzTtW7d2rVq1crm8g0ZMkTjE4RIAevXr3fvvvuuudNKnimCBvLMoUOHunTp0tk1qsHmyQPzdRlmzyB0roPevXu7d955x/3f//2f9xFC+IeeNCIpwFiF6ljEOTNI4KbGkNSqVau66dOnuzFjxqgpW4iT4NChQ+aKSzVcc8VEEGEkz/bt21358uVdxowZvaMiWaAVhL89bRj79++3WXmfffaZd1YI/1CAJxIeenMGDx5shib33nuvZdWCxqWXXmrOmjfffLM1ZOO29tNPP3lnhRBHg3lTmCYR3GXIkEHyTBE4Hn/8cVtzGjZsGMi1R/jPWWed5Zo0aeLq1q1rioPmzZtrfRe+owBPJDzjx4+3/gceqsyhCyqYvzAbDxlp3759bVafpBxCHB3uDYyJNm3aZG51V155pXdGiGCwfPly669GmpktWzbvqEhGUBd07drVlSlTxvwA7r//fo1HEr6iAE8kNAR2yDPPOeccMzMJOrlz5zazFTK9nTt3dhs3btQiIMRRQOZE3youdbgTqrdJBAl6rkaPHm2JiJYtW3pHRTJDJQ+zFWYhTpgwwQ0aNMj9+OOP3lkhootWRJGwMPduypQp5rJHcHfxxRd7Z4ILm9Ry5cq5Bx54wH3xxReuW7duNt9LCPEnJD327dtng4Tz589vQZ4QQYLkHO6ut912mytUqJB3VCQ7tGMQ3OEFgHyXvvsffvjBOytE9FCAJxIWAqOFCxfaA7VevXre0eCDw2etWrVsADr9RVT0PvnkE++sEILqyJo1a6yPpUCBAmZDLkRQ4PqcOXOmmQDdd9993lEhfod+4aeeesraMXD3Xrp0qcYniKijAE8kJCywBHf06BAoEeSFCTasuG4x0mHu3LnWm4dZjBDC2cBgNtDXX3+92ZALESS2bt3qXnvtNZMOq3onjgaGao888ohJeAcOHOjefPNNUx0JES0U4ImE5P3337f+nGuuucbdcccd7tRTT/XOhIfLLrvMLJWRbD7zzDOm15fzlhDOZkmRvMmXL5+79tprvaNCxB827JiroCBp0KCB9V0JcSSMdildurSZreAVQCWPZ5p67kW0UIAnEg6qdytXrrT5WHfffXeo7dOvvvpqG35+0003ubFjx9oIBWX5RLIzbdo0mx9ZqlQpWc+LQEFghwNy5syZzUxD16c4FmeeeaarWbOmJQKo4FHJ04w8ES0U4ImEY/fu3W7evHkuS5Ys1uDOQzTMEORNnDjRnECffPJJN2vWLO+MEMkHVWzMk0jcFClSxDsqRDDYvHmzW7dunatQoYJLly6dd1SIo3PBBReYy2qVKlXc7NmzzWVT/XgiGijAEwkF1TsqdytWrLAFFqeqROC6664z5y3ctpByUKGUlEMkIwR3bIC4v8OevBGJxccff+wWL15sPd8lSpSQPFOcFFwvXbp0sYov6zstGZqBK9KKAjyRULDAEgjlypXLlSxZ0p1++unemXCDxDRv3ryuT58+ptdHykEjvxYBkUwQ2I0cOdKy3lWrVvWOChF/SLi99957Zq5y6623WlJOiJMFv4D+/fu7PHnyWF8e5mq//PKLd1aIlKMATyQMBDvMxUIeQ/aUvrVEgmC1UqVKrnXr1lalHDp0qNu/f78qeSJpWL9+vXv77bft/k6fPr13VIj4891337lly5ZZEoLk4iWXXOKdEeLkyJkzpzlm82xDtolZj3ruRWpRgCcShm+++cZmy2TMmNHdeeedCVO9OxzGJ9CQTWM2fYbDhw83y3ghkoHnnnvO3nIPCBEkSLbNnz/f7O+pwgiRGm6//XbXu3dvm4eLbHP16tVS6ohUoQBPJAxz5swx2SLZ00Sr3h3OVVdd5dq0aeOKFy9uWn2asiXlEIkOG2jcCbNmzeoKFizoHRUi/lBlYVg1DoisPzyjhUgtGK5069bN2jH69evnNm3a5J0R4uRRgCcSgkOHDpl+nWbl+vXru9NOO807k5hkypTJFoBs2bK5wYMHu6effto7I0Riwgb6k08+sftb5ioiSKCiINnGaAQqMP/8p7ZWIvUwI6927drWi0fLyRNPPOF27drlnRXi5NBTSCQEkyZNch988IFlvsjwJwM5cuRwjz/+uMk2+/bt62bMmOGdESKx+PHHH92LL75oZkM1atTwjgoRDDDE2LNnj43lUW+oiAYksRo1auTq1q1r4xNI4n7++efeWSFOjAI8EXq++uorkynyQCTjRfYrGWCzS78HfUlffPGF69mzpw1LFSLR2LBhg9u2bZsrXbq0u+yyy7yjQgQDeqFxdqXqkizrj/AX1ncUSbRjlCtXzmbgPv/885bsEuJkUIAnQg0OkuPGjbPxCPfdd1/SDZZFCnTLLbfYbDAGvD/00EO2EZazpkgUMBjAnfDDDz80c6F//etf3hkh4s+SJUvcxo0bTZqZJUsW76gQaYcgL0OGDO6BBx5w+fPnd927d5ezpjhpFOCJUMOmb9q0aSZTbNu2rXc0+Shfvrzr0aOH27x5s8k19+3bpyBPJARcy/Sh0N+UO3du2/QIEQR++uknk84x0Lxp06beUSGiCzNwO3XqZLPyWrRoYeNitL6LE6EAT4QWnCOnT5/u9u7da9LMiy66yDuTfGCpzAYDAwp6lZBzSK8vwg6bGKoj7777riUxkMEJERSQxL/yyiuuaNGiJpcXwi+oELdv395UO82bN5ezpjghCvBEaNmxY4fJY6644gqTbiU7F198sQ1BZyEg8MXVjeG7QoQVrt+1a9e6n3/+2RUpUsQqJUIEAap3SOORy3Xs2NE7KoQ/0NvJPodkNu0YnTt3tsSXEMdCAZ4IJf/9738tuHvnnXdc48aN3eWXX+6dSW6uu+46165dO+sFGTFihJs5c6aGpIrQQnX+9ddft+pIxowZJc8UgYGZqytXrrTeqMKFC3tHhfAPxj81a9bMKnmrVq1yjz32mLWpCHE0FOCJUPL++++bFPHaa681Z71En3t3srABzpUrl+vSpYvJ2XDWZDi0EGGDyggZal5U75LNQEkEF67NWbNm2VxGNttyzhSxAhUDzpqtWrVy8+bNc0OGDFE7hjgqCvBE6ECu9dprr7k33njDZmJRtVJm/09wGSSj/Mgjj7gffvjBevOk1xdh4+DBg27FihUmwcZcRUkcERRoD1i9erW7/vrrXYECBbyjQsQGTOVw1qxQoYKbPHmyGz9+vA3bF+JwFOCJ0IH+nMGf2bJls8GyZ5xxhndGRDj11FNdpUqVTMKBCyHDUsk2CxEWyEojwya4Y6i/EEHh5ZdfNsdiHA3PO+8876gQsYPE16OPPmqKncGDB9ueCOM5ISIowBOhguodzmVr1qyx4Z/Zs2f3zogjwW2rSZMm7sEHH3S7du2yXkVJOUQYYKNChf7777+3avSFF17onREivnz00UdWvWMINf13JNOEiAf0JTMeCfl6nz59TPGgGXkiggI8ESo+/fRTc4cko49b5Omnn+6dEceCKl7t2rXNjZCM32effeadESKYENjhUJgpUyZXsGBB76gQ8QXDKhKMJB9q1arlrr76au+MELGHJC4JMJK4GM/RlrFlyxbvrEh2FOCJ0MBMLAxDmItVsmRJd9NNN3lnxIno3bu3/c7mzJljev2vv/7aOyNE8MBEieHm3OM4wgoRBL766iurkmCqwuy7c845xzsjRHyg5/7OO+8045UPPvjAdevWTc6awlCAJ0LDt99+65544gmXIUMGV7lyZRvuLU4O5EQ4a954441u3Lhx5gCnpmwRVJ577jl39tlnuzJlysihUAQCEozvvfee9YWSLKMHXIggcOaZZ1qfPYZqJCAI8tRzLxTgidDw/PPPu23bttlYhJw5c3pHxcmAlIMNCVIOBqLTlM0MJzVli6DxzTff2PxGRqBovpgICsiGUZAw4BxzL56jQgQF+pRbt25t7RhTp061nrxDhw55Z0UyogBPhAIkhX379rVFtVGjRrJMTwVIOW655RazVyYbTUWPgFmIILFgwQL3xRdfWPWOWY5CBIEvv/zSPfvss+ZaeOutt1rSzG++++47N2HCBFenTh1XqlQpe0uikxEiQhzJZZddZqYr+BMwPoFELgkJkZwowBOhAGMVxiPUrFnTZg+J1IEpTcWKFW1IKoY1zZs3t4qJEEFhzJgxJr/mXhciCJAQW758uQV5VO9iMXSf8TbVqlWzQeozZsxwy5Yts7ctW7Z0w4cPVx+1OCpXXnmlGz16tM0Hph2DvZOcNZMTBXgi8NDY/uSTT9q8Oxa7WGROExk2zwR49evXtwHo9DMqyyeCALPFcHtFho2DphBBgA3ygAEDTDaMoYXfaxAV7CFDhlgwx/tvvfWWK1GihEnqCTJHjBjhtm/f7n20EH/lqquusj5m+peHDh1qfaMi+dBOWQQabKnJ6GPtT//YJZdc4p0RaeEf//iHSTmo5tGLd//998t0RcQVqiTTp0+3TSwzG4UIChhX7Nmzx6SZVEb8hjl7JOB4PhNMMuyfnqpzzz3XzqO6wBZfiGOROXNmN3LkSLtW+vXr515//XVV8pIMBXgi0LCovvDCC+6iiy5y9957r3dURAOct6iMFi9e3Jqykf1IriniBZUK+u+YLUa1Qogg8PPPP7uePXu6yy+/3HrgYgFVQkaERCqFJDpRWZx11lmmZEG6STVRiGNB9Q458cMPP+x27tzpBg0aZONnuJZEcqAATwQWFlYayum9u++++8wlSkQXKqKjRo2yDPFTTz1lPR6q5Il48OKLL5q1t0yURJCg8sFw82LFitmYmVhDiwIzITFboW86T548rlmzZjHpAxThhiRu1apV7XpZtWqVyX65hkRyoABPBBayTWz6aBrmISX8IWPGjCb/YcMwbNgwt3TpUsl/REz54Ycf3Msvv2zv614XQQFJG8oGKmlsknEijiUHDhxwXbt2dR06dLCeKqT1OGtu2bJFagtxUuA8zny8KlWquDlz5lgl78cff/TOikRGAZ4IJAQYL730ki1kZPSvuOIK74zwg5tvvtnGJsDAgQMtYx1tKQcBO32U9erVO+5r7ty5CjCTjHfeecfu9SJFirj06dN7R4WIL5ibrFmzxkx/qJzFGlyPuR9oUSDIJOB8++23LSGHcYaek+JkQPbetm1bV7BgQTd+/Hgbn6AZuInPKY/8hve+EIEBhzAkg/QctGnTxgI8spfCH9DrX3PNNdbfsXjxYvfee+9Z0MfGIlq/d6ROHTt2dBs2bDC3xKO9GMxatmxZlzVrVv29kwikwWSXSTLkyJFDf3sRCAikCPBwIozHeB6ex8jnSXzgjMgzkgret99+awk4npV8jBAngrU8Z86cNqyfNZ5/582b1zsrEhFV8ETgoPcOFzECAprJsUvXhs9/0OvXqlXLNWjQwL3xxhuud+/eUZMBff/99+7dd981Kd7xYHNPcOe3DbkIDh9//LFVSpAKH24sIUQ8IZhiHSpUqJCZVcQLkpwYqtxzzz2uU6dOVtWDhQsXWqAnxMnAHipbtmzWy0n17rHHHnOLFi3yzopERCupCBx79+41cxUa2mlsV4Yydpxzzjkm5bjrrrusqkIGOxpSTQK8Xbt2WaXw1FNPNRONw18cZwHC2lkSveQCaSayszJlyrhLL73UOypE/GBkx/z5823YOIEVz6x4Q6BXrlw5u0+ARCjfpxAnC2ss+yrkvbgWd+7c2a1fv17XUYKiAE8EChatiGsZ8hMqOiK2nH/++TYjr1SpUtaQzRzCtA5CR1aEOyfDgqnk8W8+J6+vv/7aevOyZMlivS6RDLVIfPj7I9k9ePCgzRgjwSBEvMG5mdl3VM5uv/1272j8wQiLJBgULlzYVBdCpJRbbrnFRiTt37/fxihofEJiogBPBAoGmo8bN85lz57dMpXa7McH+vH69+/v8uXL59q1a+dmzpyZpiCP7HPt2rVd+/btTXJ7eEacAA+31AwZMsTFhlzEDzbSr7zyisufP7+k2CIQYGSyfPlyt23bNpOsxzrpgHEKVW0CzI8++sg7+jsoHXDyjMw447kqRErhOVu9enVbjxnBgbEa1WpV8hILBXgiUCxbtszkWgw6zpUrl3dUxAOqpwR5BHtU9JB1pNZ5i3l7d9xxh/evv0L/FRlEXOowEhDJARtpzHy2bt1qfU6MQxEi3jCLkZlhKBmo3v373//2zsSGDz/80HXr1s1s7TEdwk2aCjeBHz2BK1euNLOMSpUqqYInUs3ZZ5/tGjdubGNpWNuffvppm7koEgcFeCIw0DDOHDZ6sDBXifXCKv4OPZD9+vUz+Ubfvn1t4xNtKQe9fpdddtkfvSUiOeB+Z7PKRho3N/XainhDBYMEI86Z9LuxFsW6qsyMMu4NNtuTJk0yF2nm4CFj79WrlwV6vI/KRRVvkRZwJ7/33nvNpfXZZ5+1600z8hIHBXgiMEyZMsUqOeq9CxYVKlSwCh4SDnrycJeLFkhyyR7ioIgcVCQPNPnj4kalXtJcEQS+/PJLt3TpUpOQFy9e3J133nnemdiBVJ3B1PRAk+Skyj158mS3du1aV6BAAZthVrFiRVXvRJohQUDvO+OLWIOHDBniZs+e7Z0VYUcBnggESFCoEDGbhcUtCK5l4nfo+aCiirsmEiFmQu3Zs8c7mzboM2F0QsmSJbVhSSKQZzKKg/uehn8kvELEG0wn6AemJ5TEQzxGdiCdw8V47NixVkkksONeIcjD9RBzFfXeiWjBNc54GkZic+0R7KGsEOFHAZ4IBBir0HtQp04dyySJYIHRQMOGDU2zj6SSzQfmKGmF5m6keTVq1PCOiGQAt1xGodDfiVmEZt+JeEOiieAOeSTVu8svv9w7E3t4JiIPpS8ZZQNvr7vuOnfBBRfoXhFRB9MeZJok2bn+MRfasWOHd1aEFT0pRNxBpjd69GgLInBsVF9BMKHKgl6/fPnyJtV84YUXrB8ktWCu8c4777iCBQuaLEkkDww3x6kQaabkmSIIkLCaO3euDYPG9EfrkEgmCPLuvPNOG2WEfJ5kO0l3OWuGFwV4Iq4g1aJ69+mnn7pOnTq5iy++2Dsjgghzofg7EZTxdvHixfY3TA1z5swxV85GjRp5R0SygGMbCR2SBamBTcehQ4csy4wpBskCekTTOq9RJC+M69i+fbv1vkVmzQmRbDRv3tzGJ/BsZY0/clSHCA8K8ERc2bVrl2VNL730UteiRQvvqAgySIZwdcPWnr48+uhSyvfff29yKP7uRYsW9Y6KZOCbb75x06dPN3kmLq2p4YMPPnB9+vQxswn6R+hLQj6MExxD9IVICTgHkmgkgUWAJ0Qyg6kabRMkPei5R2UlwocCPBE36MOZNWuWbdZat25t/QUiHDDSgOweFTiyfW+++aZ35uTg4xlyzfBzGWwkF7gUkhXmGsJUKaUcOHDA5oMhJcJhEKjmvfzyyyYhxo1XiJSAqQTzOOlDYsacEMkMPaDMYqQXlWTcxIkTo9JzL2KLAjwRN9icMcSVZnIy8ep5CA/o9atXr+66d+/udu7caW+3bNninT0xCxYsMEty3OJE8kBCYMKECbaB4PpJDczKZBbjo48+ajMaGeOB+xtQiXnsscdsWLUQJwPXJGZP5557rplL8GwTItlBoYOjJj2peCTMmzfPjIhEeFCAJ+IC5hxk3OmfqV+/vj1MRLhglEW9evXcQw895F5//XXbbJ/s+AQqd2QGkdeJ5OHdd9+1SgmSyhtuuME7evLQ/M9sMKp3bD6oHnPdlShR4o+NOcYAmLgIcTIwgmDVqlXu1ltvtYH7QojfgoN//tPmEfOcvfDCC00SzzpPck2EAwV4Ii7QwItBB0M2kQGwaRPhg0oM8lr6J+mlHD58uPvqq6+8s8eGjRRVW/6/SB4w1qEHj3455iumFAZP0/eJZfzpp59uSYasWbNaFe9wqW88BlSLcILhD+Y8yHs1f1WIPznttNMs8cEzl0o3bzU+ITwowBMxh947MkGvvfaaq1KlijmWSZ4ZXs4//3wbb1GuXDkzKuCFiYoQh0OfHEkdArHUSnPZgJNNPhwyzVdfffUfMs3cuXObWYYQJ2L9+vU2ruPmm2+20QhCiL9C8h05Pe6a9E7XrVvXknQi+CjAE8cEGSWbMmRRn3/+ub1PcJZW9u7d66ZNm2YbMVz0yMSLcJMuXTprysagANct9PppmZEnEg8c2fbv3+8aNGgQ9T4npJ9Ujsk4I9lUwkicCKRmDNtns9qzZ08NEBfiGKC2oHrHs5vZtczIUxI3+OiJJv4GCx9OdePHj7c5VdiZY2dfuXJl99xzz7lvv/3W+8iUQ4C4Zs0at27dOle6dGkNOU4g0Otjr3zZZZeZAQa9LdLrCyDYxz2TTQFGFtGExn/ml/E1mKl4++23e2eEODaYQ3FNZsqUyd1xxx3eUSHE0UA90bt3b2utwD+hc+fOctYMOArwxN9g6DjzpHC4RE7FAkhm/NVXX7VeK6pvqYVq4JgxY6xvhkVVvXeJAxnw2267zYwv2GxT0UuJs6ZIXKiwIYfDXIWEUTTBtGXjxo2uZMmStulQ9U6cCPqJFi1aZIlMeu+EECfmzDPPdCNGjDDlFeNo6F9F2SWCiQI88Rf+97//uWXLllkPC4EYFTskd/ybjRMbd4K/1MJwa0r8uN5p3lDiQZavatWqtmliDAaz8k7WWVMkJlRx6bnlOuDaiKYkmwG8mPtQNX7wwQfdVVdd5Z0R4tggFWadQ5mCkkQIcXJcfPHFbsiQIeaATbA3c+ZMyTUDigI88RcI4rAvR47JEGIyNgRjzEKhQsOLil5qoNdh8ODBZohQo0YNVe8SFJwxGX3RsmVLq/oyRoGqsEhO6N9lsD0bA8wsUuOeeTTYVETmKZJIOPxzL1myRDObxFEh4YDB16ZNm2xcC9elEOLkwf2cdozLL7/cCgBIndVzHzwU4Im/QACXL1++v9hF79u3zzKeLIwFCxa0ZtvUMHnyZPfBBx+YpXn27Nm9oyIRwemQKh6B3uzZs234tPT6yQnyzA0bNpiEkg1BNOBZhCwTeSbubrfccssfz6ytW7dahvnwZ5gQEWgTIMAjeSmTLyFSDvvEAgUKmGoCX4X+/fubBF8998HiH7/+hve+EH/h4MGDZpSBzhppJRsmLPCRWXGDpwQ+FyV9JKAsrhkyZPDOiEQGZ0Oy5GvXrnX333+/69KlS9QqOCL4kNV96qmnbAMwatQoV6lSpRQ/O44Gck+SB2+//bYpDQ6/pqjcYXnPIH0hjgSDCJICjOro2rWru+CCC7wzQoiUwLN2woQJbsCAAebPQFL3rLPOsv0eiTYc01FY8BY5PcWC7777zjwYUPqgBmNmKftB3k+fPr32B1FEAZ44Ktygffr0sUw4WZnIZcJNOXDgQBtunRLY4GG6gQlCr169vKMiGeDBzow8Zujwt2/atKl3RiQ6u3btcg888ID78ccf7VmC/DsaMD+ToenHWr7oDUEiLMTh4ABNm8DIkSPtldp5jEKI3+HZ/v7779voGxK5mPDR38qzOfJ8PvJtxAjryLcZM2a0AkK9evUsCBRpQwGeOCYEeatXr7YK3ooVK/4Yj0CWBfMVHPFOBjb2pUqVsl4cjDfIuIvkgUcMcrq7777b5FDMKcPYQJm6xIa/O0OkGYzbqlUrk/Okte/2p59+siQRfR/HY+HChZZUEOJwcPXlemQ8D88hmfIIkTqQZn788cfWZ09Qh5EWx5A+X3fdda548eJmzsf79LlSoTv77LPt/6LkQoXxySefWFWPRCCjs5B54srJc56PxwuCJMz1119vlcFIIChODgV44oQQ6D3++ONu2LBh7j//+Y/dpO3atbNZZyeCG5nqHSV8zDYwQxDJB1I9hp+zyccmn2uCXs9oD7wWwYGEENX+GTNmWNUkGgEXkkyePdjcH49JkyZJBi7+As8gZruiJGGwORXeaMiFhUgmePYiuVy5cqUpJXbs2OGuvPJKC+aKFCliyXzW9tTA2JJXXnnFTLLo3SaA5B6lzYPKHt4NkSBRnBgFeOKkwLGuTp06JouCO++884/3jwcDiBs3bmxBIg8E5uqJ5IQN/8SJEy1zjlkPxiuZM2dWVi5BIUNLBpbsK/JMNgFCxAuk4lQDUBGwMcUJUAhxctCqQ6VtzZo1burUqW7VqlUuV65c7vbbb7fh5wRf0TIs4msR7OHOyRgcvCDolWUPWrZsWfu6MtE6MUpfiZOCsjsmGcDQ85NxwyNjys1JhodsKc6KInk555xzXM2aNV2DBg1M8kt1B0c7kXiwQCO3QZ6dP39+d8UVV3hnhIgPbEy3bdvmbr31Vuv1EUKcHFTt6KvDlAj/BSprKCmQyqPMyps3b1TdaKnaIZ9mrzB8+HBTiyHZ7Nu3r+1Dx44da0UDcXxUwRMnDe5HbNLRU1OFadKkiXfm6GzevNm1b9/e5t9NmTLFblAh0NwjkaICjPRi0KBBysYlGPRi8LcluTN69GgL8oSIJ0WLFrWEEuN62JAKIU4M6i1GHRHMMc8WA5Q77rjD5cmTxxL/sYAAc+fOnVY1JLjbvXu3uSi3adPGWj7E0VEFT/wFJJXIL7Gz5yY6HM4hp2NQOWX540H1DoMF5l/xQFAzu4jA9UMmEJ0+FstU8kRiEemlYDRKzpw5vaNCxAfMwliLCPIwWBFCnBjGHDHehqHmJO3opaaPnl67WAV3gCEbDswNGzZ0zzzzjMk0SRxiuEUhQRwdBXjiLyxatMgtWLDAsjXonam8UYGj4bVZs2bmgsdNdaKAjcw9TnbZsmXTMFnxNzDAwJ0VqS/9WcxXFIkDzw2SQSzEuvdFvGHkD9chyUZaDIQQx+frr782pdYjjzxi6zV9qyT/mVsXL1D6sKfEtO++++6zPSZVPHr0NGT970iiKf4CPXPMmDryZmGzRpPrmDFj7PzxINODix1DL5l7xo2YVnt0kZgwP+eWW26xRYOAj8qwTFfCDUsKjmrIuTFW0iBpEU9ITlJJLlGihLnzCSGOD3s4fBPYx1WqVMkCvaC12ODojisu/XkYeGH8otl5f0UVPPEXcEOaNWuWZWq4oXlxjD4pFsoTBXfw4Ycf2pw8JHi33XabgjtxTHBYZIbODz/84Lp3726DUhmtIcILzmf79++3sQgK7kQ8IVHJiB9g4L4Q4vgwgw5jE3pVq1Wr5p588slA+icwF6958+bmxv3ll1+adJR1R/yJKngiqtAMS3DXtm1bc1li7p0CPHE86NdEV08mrkCBAq53796mt9eMqvBBcE7zOzMPGYArMwsRT3DNJEGJgzN9eDJzEuLYENyRcKUdp3DhwqaqYZRRkMH8jz7+J554wlWvXt2qjUos/o52UCKqkEnhocCMITL4Cu7EiaAnpkaNGubK+uabb9pAfez1Rfig9xZzpZtvvtlmFQkRL6jeIdv6/PPPXYcOHRTcCXEcuF8WL15sBmgkWOlbDXpwBww+Z3QD1cZnn33Wqo/IN4UCPBFlMGgha1qqVCm554mThoxb06ZNLds+f/58N3LkSDP3EeGCHl7+bvwtcT4TIl588MEHNm+TvpzSpUt7R4UQRwOXWcxLSLhSBaM3PixceumlJtHE0A+DQNYhoQBPRJFDhw5Zrx4Nr3fffbfcykSKYHwCQ0xZWCZOnGjzbuSMFR4YPEv/HXMyqd4LEU9eeuklSzbinHnuued6R4UQR8Kzm/UWBQatEmFMiNAn2L9/fzNsQ67Jz5LsKMATUYM+KmbnYdAiNyORUnDPRNrbrVs3s2XmYf3CCy94Z0XQef31161qgtz2/PPP944KEXv27dtncxhJNuLMq37e+EOvNX2QuGpTaSGRh7EWQbiIL6+99prdL2XKlHEVKlRwp5xyincmXDDjEv+Hd955x7wgkh099URUYCAm1TuyJ9jrhvUBIeILGzEszXHGOuOMM0zqx6ZABB+qd/TgUjERIp7Qy4sjL3MYmbUp4sv3339vg6npk+LtqlWr7G+EwynO3MgDRXz44osvrC2CXlX64MNe7W7cuLG74oorrJ/w7bff9o4mJwrwRJrBiBVjlc8++8y1aNHihEPQhTgeBHmM18AZi6xvw4YNTW4hw9/g8t5777lNmza5QoUKuWuuucY7KkTsQW7G/EUUAahJJM+MLzhr8/c4cOCAe+utt8xAi8od5hg//vij27lzpxsyZIj30SKWsKbidozrMcEdydWwV7u5rugl3LJli83xYw+RrCjAE2kmMvfuoosucm3atPGOCpE2sDxGpklmsVWrVib/VZAXPOiTjMgz77rrLnfmmWd6Z4SILTwfkGexaaWPCKm3iC9U7wjqkN7TZ02Pbs+ePc2pEXh+YHUvYs/HH39sxnjnnHNOwswtJUBl3BIyYEyWSCokKwrwRJogO4c1LQ9wBskyb0iIaEHCgGGmmzdvtvl49NaIYIE8e82aNTYSpWDBgjJXEnEDe3T6iaji0XuHu97R+Pnnn80UDEkxFaT333/fKtBIBXl/z549pkjhY2T0lDaooFIdOjzx8+233/7x74wZM0rWHQdIhuzdu9fkstwrOXLk8M6EH4oNderUsaQwyUfu92REg85Fmnj33XdtKCYL4csvv+wuu+wy74wQ0YEAokuXLiYjadCggQ3QP9bGTcQeNtQE4vnz53e9evVyl1xyiXdGiNiyfft2e0bQJoDE+7rrrvPOOPfJJ59Y8LZr1y4L3ug9YrAzwRwbQP5NwpKePWReVJp4my5dOgtSrr/+egtG6O8RqYNqHkm6hQsXmlsjEs1HHnnEjDFOP/1076NELEC6iFs1c+9IntLvnkhmRCSF2ZtyzzL2gepxsnHKbzfXI977QqSIyAOCBl2qd0WLFk2oB4QIBiz8yHnIxtE4TeY3W7Zs2hAEADbIixYtckuWLLENQr58+fQMEHGBII21iERQ7dq1rSpBUEcCYsaMGW7y5MmmNsGZd926dRbkIQ2k4pw+fXpz3GQTyPOFChPnN27caBWOyP9Zv369VfwIVJC1YQRFr584Mfyu+TsMHjzY3lJlZVYmSWH6dtW7H1uYV4rhDfdN/fr17R5IJLgvSfi88cYb1tOfjAGeKngi1ZAhoZqCLIZmVjKcQvjB//73P5NPkW0kA0/GEfc1yQHjC/23HTt2tOoHRgk5c+b0zggRW9iwYqpC4pGKP+qS5cuXW2Jo//79FsDRl1O4cGHb7BGgnXXWWfYMOXysB1U8gpGIjJMkBv2lbBQJ9mhHIBghKKFvqW7dumpNOAn4PSLlJgCfM2eOyQPZfp566qmuYsWKFvglWpARZFhHS5QoYcZYzI1D1ugX3D+zZ882Z1vuq+zZs1uPvZ/rBffxuHHjbM/A2lSrVi1LKCQTquCJVMEi+vzzz7upU6facOrixYvbg1oIP6AqhCwTeRQZeSpGbNTYtIn4wOYMpzIWTzZolStX1jNAxA2q+7g5YxSBayNBBJW28uXLu06dOtn8NWZ83XzzzTYUmWcHcmKCM6p2kReyTI5xjkAOoxb6k4oUKWIBJG/pyyPYoy2Br4uEkxmeGg90bNhcE1jTp8vvELksCSJ+l1RMM2fOrARRjODZjQHJzJkzXdWqVV2pUqV8qUQTzKHw4P7D7ASXdWbVMQaJe4d1nWDPj8CLz03xgR48EsTsF7i/kwlpaUSqQKaCHIaFD2kmUhUh/ITggYWIhMIPP/xgmfNPP/3UOytiDX8DNrnc+2ya9QwQ8WTo0KFWcUNGSdWOeaxU8HDiveOOOyyAoK8uNUkI/g//lyCOII+kBtc+Q/2ZtcXsLWRgbJrFsWEjTwDOZnv69Ol/VE6pivL7FLGBAI/fN0kMnt1+yYwZb/TUU09ZUpZKYcmSJU15QzKQ+4Y+Wfox/QJVGe0dqM2o8CcbCvBEiqF6R1YEyUqlSpX+sDsWwm/IkGOiwNgEgjsy8vRyiNjz9ddfW5KHfsg8efJ4R4WILVTpCLAIrpBdMkz7xRdfdH369DHJH+6u0ewL5XPxOa+99lo3cuRI69NDwcKGla+NeQj3hrpfjg0BBeY1DDoX8QFzISrPXMd+gIHO0qVL7V6kSovZCUlA1nDWbe4PCgVIN5mR6AcR1Q9uuexbkw0FeCLF0M9As3ru3LltYWOxEyKW0PeFDTKZOcYo0AMmYgvzxpBZkQFOxgZ2EV/osaG3B3MfesAJ7ug4YW1iYHOsyJo1q5s7d661K5DsePLJJ91DDz1k9wbSMHFsypQpY2+pJMXybyacJUgxKvNr9h0VMyT8R4OEYETOTGKEe8UP+Bo8F5AAK8AT4gSwqJIp5aZELoeeWohYg2QK62P6B1566SU3YMAABXkxhOzrc889Zw54JHmEiCVUB5CYIcOkH5cKAYkG+uziYaQQqUqMHTvWhv1TlSDIi/T/JDO4kVLpf/PNN/820JzfW6Sax99PxAae3wR4BD+HGwxFE+5J7tMI3AeRqjZ/d8aRAHJqvyp4wM/H90GQl2xVdQV4IkUgh0OWQj8Dxgqq3ol4gbwEiQ8BBhl8bNCTUWcfD1iQkd7QIK/Mu4glBAkLFiww4wacGAnyCKpat24dV5c8AhXWxYcfftj6hJFuPvjgg/a9JjP0WDG2AoMN9g64m2K+wQgL3JAxvqCvUQYrsQXZop/OmQRxh/dlf/755/Z3B+7TyFgMjFCQWfsFAR7fB2sWQWcyoQBPpAgyk5TTmTGEwYoQ8YTMLxsqAo0RI0aYVOrwrKHwBxx0kbxgE4/VvBCxgA0iCpKePXtaQNWjRw+zQR80aJAZqQQBnkn0CEd68QhEMXtJVqicEJRv2rTJVBcEv/fee69r06aNmzZtmg2jvueeezTyJoZ89dVXtk5iHOQXrAtIliOmRoxIIJgDKmmYdAHn/UzM4IjL90IlWQGeEMeAxQrXIxYwHAz1QBZBgEQDcqjzzjvPKno4dqn3xT/YZDMgF3kmAZ4QsYBN4bZt28xiHejDRaJNBYhRBkFyceVZxJwvHDyplHTo0MH6hZMRlD4Ec/yNCCywx3/11Vdt/zBmzBjXuXNnjbuJMVyTVNj8kmcC9yPqGlzWAXfbWbNm2dpM7yxz+AAjFD/nSNJnSACJ+kwSTSGOAUMjmVvDoooURYggwMObRQQ5FBnC7t27mwwo2R7msYLeJ6r4ZcuWtcVZiFhAgpFAiTWIqg89b2zeggrfG/cIA7zpWX/ggQdsHECyQWBHxXXZsmX2XOaFvJuxFkgz9QyJPRirUM2KVNT8gAo7yhpGinDtk4jBBIlKO4WCSD8mLux+OXkCShOCSoJIvqdkQgGeOCnI+HCj0veEvILsjxBBgWxwpA+H4INgjw2hiD64FBI8U8VPtgVTxA9kj5iWMHuOAC/IwV0E5Ge4/bKxRVmAbDMiTUsWeEZQKbruuuvMcZQXQR/yQO0j4gO/e/4ufpqbANc/Chukufv27TMHdgx38ubN632EM6M+PwsGVI0JZFGcRHNcShhQgCdOCJmeUaNGWZCHfp4bRYigwWLCxq9Ro0a2mSJrmGybKb/5+OOPzbWUESmHL9JC+AXrz/Dhw92MGTPMVp+e2zCZe7GppPJIxXHOnDm2lkpCLuINoynY0/mtdCGQRGXDPUtShmuf4eccZx1h6LmfyZpDhw5ZvyE/rwI8IY6AgZjTp083KQVZVCGCCs3UbKbKly9vlSZ6YI605haphx4KTBOolAoRC9577z3Xt29f69Pifqa/LWzQj4Rj5DXXXGMVDGZIChEvCK6YXUplK5brI31w3AdU8nDwrFatmitQoIB31h8iSh7UZ/zcyYQCPHFcMFSYMmWK3ZDt2rXztRlWiGjAfB0WEfry2BA+88wzvtowJwuMoKB35uyzz3ZVqlTxjgrhH/TP4I7LJq1t27YuY8aM3pnwwYYaWXOkB02JJxFPUGJR2ULC6DfMT965c6e53TKz9oorrnBNmzb1XWrN1yWoJCmUjCO9FOCJ40L2lMWIzCO9D0KEgUyZMpnuH30/b7H1j8zgEamDQcVsTul1DGMVRYQPrrnFixe7XLly2WYwzGAyUaJECTOVYDwAjqAyghLxgj0d8kUGjfsFSQzGI2DQx7gQ3jJiq0+fPuZ87eeYBmD2HgPdCWYV4AlxGGRPGVLKQsTiioZZiLCQL18+MwY655xzbHwCG8Vkm4MTLfi9McuLKl7NmjW9o0L4B1W7CRMm2EBsTJOoHIcdEk+MT2DTSS+rny6GQhwLpIq33HKLzYZbt26ddzS6cI336tXLjIW41gnmUNTgKtuwYUOTTPoNVUOKFCSI2AckGwrwxDEhsOPGzJIliytZsuQfAyuFCAsFCxa0RYXAhCDvjTfe8M6IlMDMIuYYsVDyPBDCb7hX16xZY8YqVL4SAXrx+HluuukmN2nSJNsECxFrCPDy5Mlj7qaM8EDGGG0I4Bip1aVLF5tdSaCHoywuqrGApCSO2szco8/Pz5l/QeUfv0ojII4C1bunn37adevWzW5O9NJhsKUW4khw0mQzxXy8W2+91Qwbrr/+eu+sOBmmTp1qVRRkNvfcc09Syl1EbGF2GvLqF154webJJYoDHi6CVDFIPOEOyvgAJZ5ELCHAY1QFz3UkmsOGDbOKXiLxxRdf2DNk6dKlNlCftT/ZUIAnjgrVO+bd0bf0xBNPWOZeiLCC8yMVPLT/OMH26NHDXLzEiaGPguAYB01eGo8g/IaB4O3bt3dbt251s2fP9nVOVjx49dVXzYkWhcFVV11lG1EhYgUBXps2baya1rVrV0s2NGnSxDubGGzevNk1b97cpU+f3n4+3iYbCvDE36B6N3nyZHPNpILH7Dtl7EXYYagrgR0GB1zX9913n41VEMcHaSbPAKqeVPNxQBPCT1auXGmumfnz5zdHXD/MGEheYsLAenc86P2L9tenv7BWrVpu06ZNttZqbIKIJQR4JOqYT4eMkhcSykSRMVIlZ+YkQWvnzp1tJm5SthgR4AlxOLt37/61aNGivxYpUuTXdevWeUeFCD+bN2/+tWLFir/+tpD9OnHixF9/2+R5Z8TR4PczYcKEX38L6n4dP368fl/Cd3755ZdfR40a9esFF1xg195vAZh3Jrq8/fbbv+bMmZME93FfHTt29P5HdOnWrduvvwWPvy5ZssQ7IkRs+fDDD3+tXbu23QfLli379bfAyDsTbg4cOPBr5cqVf73hhht+Xbx4sXc0+ZDJivgLEbe8LVu2mLFKjhw5vDNChB/GJpDRQ5pCVm/BggWW7RNHhwoHcrJrr73WfndkfIXwE+ZyIa9Kly6dVY39yrwz8uNE5hKMNvBrPFCxYsVs3MiMGTO8I0LEFtQY5cqVs+c88vsvv/zSOxNe2MMyXmXVqlWuVKlSpgJIVhTgib+AdOSpp54yO+fKlStLmikSjkKFCplEEzkKxiHMeRR/59dff3V79uwxuRwuZInWByWCCZvMHTt2WEKBIM8vCPBONOQZGRvJDT/gc9MH7JdNvRAngoRdkSJFXPHixd28efMssRL2UULsYRmPxOw7pKcXXnihdyb5UIAn/sL06dNtdghWztmzZ/eOCpFY4MpHbw+ZS2b1YMcu/spPP/3kVq9ebYEeZhAabi5iAa63BF4Ed35dcwx43r9/vytcuLB7+OGHrQ/u8FfdunXNNZqh/n716V5wwQW2CWUEiRDx4uqrr7br/LTTTjO36e+//947E07osd+wYYMp0JK5egcK8MQfIFfBbejyyy939evX19w7kbBguU6FGrtyspbYsTMQVfwJ7pk0qiOTS/aFUsSOH3/80QIwgjvmxvkB8+eYrTdw4ECTahPQRV6VKlUyUxVeJDb8VLEQ4LGh9mMOmRAnA2shwRAqjfnz57slS5Z4Z8IHSRv2sEhPW7ZsaRLrZEYBnvgDZoVgT3333Xe7jBkzekeFSEzYuHGtP/TQQzbQn80eTpvid7Zv324ytptvvtmyvELEAgI8gh4qXFQV/IDZc9WrV7ce83POOcc7+jskeujhKVq0qF33OA76BZ+fDfbHH3/sHREi9nCvNW7c2N7ins5w8LDxn//8x8YicC8xtzlLlizemeRFAZ4wkKox7+7cc881+/hEGSorxPGgQkCmr2HDhu65556zJAeVK+Hs90EVg+yungciVhDcIdMk8PIruKL3iATPkdc1cmQSG2+//bbLly+f77MyqeDxM37yySfeESHiA895RiUwMxbjlRP1pwYJjNK6dOliBoGYItFbrzVLAZ74DZpqR40aZTd0x44dfZk5JERQYRPHUOXSpUvbfUAfKhvMZIZs6MyZM81YBemOELHgl19+sXWI2XO8Yg2JTvpxb7jhBpNn0ofnJ6y1BHhSDoggUKdOHZt5itSRKhj3Q9BhrcYYkHUbw5hx48Z5Z4QCPGHleCxy0S1T4hYi2aDPrFOnThbQ0I9HH0Iyj0+YOnWqmayUL1/etz4oIY6EZCMSTQIrv4Oro0FvHvJMHDzTp0/vHfUPeoQI8BLBnl4kBjhM16tXz9yT6WcLcnWZav/cuXPdyJEjra2IQE/O73+iAC/J+fnnny3z8eGHH1rmBg22EMkIRiIYLhDQIFV54403vDPJBRnR0aNHm3wMqY4QseKUU04xaeY333xjr1hC9fCdd96xalqePHncJZdc4p3xD+RwyEJJrgoRBDDXe+yxx0zRQqIvYkAWtPEJjEPAMZPeeZJBuGHLO+KvKMBLcjBRwGCCWT9Y5QqRrNCXw3gQgjykKej4GfifbKxdu9Z6kOjJyJAhg3dUCP8hwCPJSLAV615Yvt6iRYtsLbzllltiMtSfYFIBnggazI575JFHTMGBVL979+7urbfesvsyCEQ8IwhEqYIz6oR7lueH+BMFeEnMf//7X5Oibd261TVp0sRdeuml3hkhkhMygdWqVbMgj1k69KRS3U4myNpS2W/QoIF3RIjYwYaNKjrVrVhWDZBnvvzyy+a+ly1bNu+ov+D4x8/IaCIhggKy4UyZMllgR9vO+vXrXYcOHawYEO8gj/uUdRmVSc6cOV3fvn1trm2yj0Q4Ggrwkpht27bZDZs1a1ZXvHhx3yyphQgTDDamwRzjFVy56M1LljlVNNe/8sorLnfu3C5v3rzeUSFiB0kWZuAh0aQPNFa8/vrrFmxRCYiVwctnn31mFbxY9PsJkRJwoWSMR5s2bcyhkl48HKeplsWjL49+u2effdbm19J3R1D3+OOPx8QMKawowEtSqN6tWrXKGsqZBYYsRQjxO/QBkb1kVtaCBQtc7969zfwh0XnxxRdt00lFXwkfEQ/YrJ1//vnuiy++MDfXWDFv3jzb0NJ7FCvYKOOkqXtNBBWSLfXr17eKGWO0Bg8ebLNRhw0bZkFXLCDpWLFiRdeqVStrISDpytdnnqVkmcdGAV6SEnHOJEuPtaych4T4K2w0hw8fbuYrkydPdiNGjIhpRSHW8LPRg4R7qOSZIl5QQcfgZNeuXRbkxYL333/fEjnZs2e3TWMsoP+O11VXXeUdESKYYLxSokQJq3I/9NBDFtgRZBUqVMg9//zzVm2naEA1OhqwBmH2hekRa9Gdd95pX7tUqVKmPOvcufMfDrTi2CjAS0K4EVevXm09RrjkIdEUQvwdms2HDBnirrnmGvf000+7OXPmJGyQt27dOhvyXLVqVY1GEHGDuZT0wbGRQzIcrU3j8di8ebMlcpB/xYoVK1aYEyCVCSHCANLlHj16WE9es2bN7PqlR4/AC+dpgrC9e/daS0NK+2ep1pPwwPgPKWbNmjXd7bff7hYvXuxuvfVWc8zkxSgjcXL847eHp/9PTxEouAEZaInGeujQoWYJLYQ4OjSVY75AYzfVBZy7ihUrdlyXPZIoZDWRX4UBfsYBAwaYM9kzzzxjbqLKjop4wUaO3h9mcrGRTLQeGyoU9913n3vuuefs2YLkTYgwwRqHsyb3Kq7LH330kcn7c+XK5QoUKGAvHHGptLFucg+jFEOOjGMta06k8se/qdYRINI6xNqKXJpq+h133OEqVaoUmrU0SCjASzL4c48dO9ZK3CyglNul/xfi+CBJQYpCcFelShW7b+hNQEaGEx4LFRnIQ4cOmfsfCxb9NczlYbGip4iFjgWP/8f4ASoVQYGkD88DMq8zZsyQq5+IK1QI2rZta9chvTbp0qXzziQGOPOSZOW5wbxNVcxFWOEafvXVV+2aJsij8o7kGXk1iQxUMLxYA6kAEuwRCKKEYe1krUSOSd876yXunTfddJPLly+fVfLp+xOpQwFekkFJneoDmurx48ebzawQ4sQQvGFCwoJE0MZCRtaRQC4S1BHksVBFelp5vLIAIleJBHgsWLjmYcVODyyveGcn6cdlNETr1q3tpQ2niCfca1TMkWctXLgw4dap2bNnm+08MrSePXvaeixEGMH0ZNCgQa5w4cJmxvLVV1+5HTt2WIDHi+Qob1kjCegYwUPihnWQZCdrH0EfCU8qdgR5/FukHQV4SQYSrK5du1p2FC11LIa5ChF2WLSQUmFCQp8aCxUvZChkGpGTUGUguOMV2bDxeCU7ySL35Zdf2gwfgsI1a9ZYFvPKK680B1s2sPTD8vliLUcjAGWWEBVK5JmYLkmeKeIJ982TTz5pfT1Uy5EzJkoQhBsvVvMjR440u/fbbrtN95sIJSg+Bg4caCZk/fv3txmyRyrCCOhIfFKxI8ijqhdJgrLWKZjzDwV4SQSb1Bw5clh2ns2qRiMIcXzoE1iyZIkZrWzdutWCNUyJmMFDAzjmK5HFioXteJbNLHT0GxDsEVTRTI5zH1XBzz//3F166aX2edu1a2eN5LHa9NE/cf/995ubX79+/eTqJwIBlQHmblHNozcnUXpw+FlIsCJXmzBhgiWHhAgbhA7Lli1zjRo1suQklWhJ+4OFXDSTiFGjRlkFgTI6PUBCiGNDQIerHllJHCaZj0UDOP0GmD9gEc3mjN4CkiYnmsdDBYJsJRbwyFDKly9vFXUCrKlTp9riiGwaqQtV9li4dSIdpSK5ZcsWcyq74oorvDNCxBeky/S7Iu+ispwIEKzixLtp0yazf9eGWIQVFCgTJ0609Y818rLLLvPOiKCgAC9JwH52zJgx1ux67733ShIixFEg4KGnjnsEd1kCOgIupFSTJk0yKSWyEqTNab2HcLGl6kcfAi5hVAoxlKAXgWGyVNgJ/Kga+gWyUQJWAk5+Ng2NFUGB+6Nu3brWr4rD6549e7wz4YSKB+MYqNpT8eC5ot47EUZYJxm1xbqIyyXXsvaUwUMBXhKA5hnnTDKhDKcMknufEEEB+SSzIe+55x43ffp064ej6k3gRZ+M3xDotWjRwi1dutQMT5B+tmrVyvXp08f6/VI6V+hkIPFDgEe1BMcyIYIEEmiCPHp4evfubZLpsEL1juCOdZiKh1okRFhhPULOT1KwVq1aZiAmgocCvCQAy9p58+aZoUPTpk29o0KICGwg6YVr3769maAQ5JGdZPGKdZYd2SfjGKZMmWKZUZIzGE3wfdHHFy34XPQ50Q94yy23WHVfiKDRpEkT20jOnDnTvfLKK74kOvyG7/m1114zMwpcrJF3U6EUImxQMMAA6YMPPnB33323y507t3dGBA09YRIcqhIsjLt377Y5V+ilhRB/wuiQZ5991vreeJ9gihcjDeIJElEWUoLMlStXui5dutjbaPXmYfZCpRLTGDacQgQR7kMcn6lw85bhymGDHlcqHvwsEdmpEGGEuY20++C2zJgPEVwU4CU4OPUh+aLHpkKFCt5RIQQg+cLYBKtnXPqonDGAGHlkvKGngY0gwSYulwxV530WWLKoaYVnAwYvjHmQ6ZIIMmXKlLGRCdwD3KsYA4UFzCgefPBBmw2GQy7uu6reiTCCzBi3TPpJuZYxDBPBRU+ZBIbq3UsvvWTSrsaNG8vlSIgjoLqNoQmySDLsbCSDNJeHII9FFCvqzp072wJLkEdFPq1QvcOqvWTJkjJ7EIEG858aNWqYhHrFihXuqaeesj6goINBEv20VN6bNWtmPwOOu0KEESTGzHBlP0n7gAg2CvASmG3btplBxI033uiKFi1qs7qEEL/DPCoGKOOKSeUOo5Ejh7QGhXPPPdc2h5iu0PvAfLC0SDX5v/T4UdkvWLCgd1SI4EJg1LBhQ1e7dm1ztKXyTv9oUCG4e+SRR9ysWbNcxYoVXceOHe0+FiKM4ABLPzhzUhkTpKRg8FGAl6BQvcPGFjlX9erVXaZMmbwzQoi9e/daL8y3335rowkIcoI+IoBAlICUQI+KAOYTqYXKJcYy2LVTxRMiDKBC4R7A1RbJJi/6ZoMGskxGrTDnMlu2bDbQXMGdCCu0MowbN84M+1C60A8rgo8CvASFXoUZM2a4/PnzWzNsUCsTQsSazz//3FwyGfrPCAIGjodlhg+9OyywVOQJ0oYOHZrifrzI2BQ2nAxyFyJMZM6c2e4Brt2RI0daouOjjz4KhLsmG2FaIqi0c3+SQGE0gmzkRVih345WH15cz/SQinCgAC8BoXqHJTMGCmXLljWXPCHE7/cGmchNmzbZyBB6esIGPYLPPPOMbXRHjBjhtm7d6p05Ofh45KnYtWsWlwgjrGmDBg2yXqBVq1a5u+66y3qDvvvuO+8jYg9qAAzNqNyhnmndurV7+umn1fsuQs0nn3zipk6daq7LrJdKVoQHBXgJCJUJNrE5cuRwpUuXVu+dEB7Ylc+ePdtcI+kjCCv0QSBPoxo5evRoW3xPFnrvyMqyORYirHAP0DuLQ+WXX37p6tevb5LI9evXp+h+SCvMk6QVgoATZ0HkmYxz4Pu66KKLvI8SInz8+OOPbuHChZawYL3Inj17aNQuQgFeQrJo0SLTSpcqVcqCPCHE7xl2hpd/+OGHrkWLFqHvI0Aqw4Dy5cuXW/XiZDhw4IBJbaiAUMETIswgM6Ynr3///lbRZoQCI0WGDx9ulWokk36B1JlgcsCAAfY16eXlvurbt68Fm5o5K8IMScCdO3daQpCEKJJo9ZGGCwV4CQY26ixuzM+qVq2aeu+E8Ni4caObN2+eBUUkP8LuAoZUpm3btha40m9L5eBELFu2zO3bt881aNBAlX2REHAds9Yx7oSqNhUGqmkEfgRdVO3ZrEYLqhobNmywQI77jyoi9yJBJr2BzJsN0qgVIVIDcmfULrg2c39lyZJF1buQ8Y/fHnzRe/KJuDNkyBCTh6CV7t69u/vXv/7lnREieTl48KBl2idOnGj3SNWqVRPi3vjiiy9sLh5VPH6uSpUqeWf+DqMRMKR48cUXzfL6iiuu8M4IkRgQfLEhRcVCmwLSTa7z6667zoyJSpQoYaqWlN77bJMIFBcvXmxyNUzM9u/fb/MzUQPQCnHNNdcoaSISAq53EqJU7QoUKGBrC5JoES4U4CUQX331lVkyY6dO4zmLjxDCmbNd8+bN3eWXX26BHvPfEgGcAzF2IHBjfAJ9hRdeeKF39q+8+eabthmljwKTFs0xEokIWxoCPQIw5MhUIRiOzrrISJAbbrjBxiwgN2O95C1jhC655BK7nzCVYIwKFXGq3SSH5syZY06djBbhvsmXL5+NH0ImTQCpwE4kEvSVIjNeu3ate/zxx92dd96p6l0IUYAXAPgT8CLD/tZbb5lJCv0DBGwMK+ctPXUsRkhB2JySTbn00kvdTTfdZL0HF198sTlnUkpHmkL1Tgjx+/1FRp97g8HDHTp0CPzMu5RANYEhyswDQ55NAHc0WKgZCzF58mSzu9aCLZIFWhemTZtmUmb6VXHThRNtfyL3CONJGDdEIoXRQ+ecc44ZqKgFQiQiS5YssaAOKf9TTz2lZGBIUYAXJ8iQsOggsaJRmw0oNxULD4sGNxQyEl6H31xkGAkEecvH8mKzShm9TJkyf2QmySqeccYZ2sSJpIceNap2NIvTp8PCFSswYqAiwP1KhYAqQrShWkHPET/bpEmTjhq88T2Q+EG+RjUCOZkQyQb3IZU5KnSYLZFMRca5Y8cO7yOcrbeoX0iakjy94IILrMLHv/nYXr16WQ8eyRQSrEIkEjgzI2eG559/XkZ9IUYBXozB1YvFBLkUQR16fgI2qnFU5W699VabTZUuXTrLELIp5P0ISERwNvrhhx/+6APAonn37t22WCEn4ebEIY++ABpjyTYKkawgrapZs6bdB9ios1mLFfQxYC9NBQDDB6oAfjBr1ixz8mvZsqVr06aNSdEOh96hBx54wGRlVDD1TBAi5ZCwoY8XhQyOncii1ecuEgUKD3g4kCzEMIixHyK8KMCLEWQOCexWrlxplQSqdlgqI6fKmTOny5s3r+n6qbqlFII9Pve6detMM719+3aTdhIc1q5d2wI9vo4f1QMhgg4JEKpaDRs2NOe7WPXLkHBp1KiRBVd58uTxNcBD0s1iTCA5duzYvzTEMxOMzSh9d7yo8quyL0TqYJ3FPZOWid69e1tyVohEgF5VWhmo2s2fP/9viUIRLjQmIQYgBWHTRZ8Mm7BvvvnGderUyQ0dOtQ2fSwWVO5SE9wB/48gkUoBFQpeZBip/CEj4fPzlj4+IZIJEitsyLAtJ4kSq+COpMvDDz9swV0sYE4R1XrcMXm+HM6ePXusP5feIdQBCu6ESD3XX3+9PUteffVVmyspRCKAdJl9IjUfEhcK7sKPAjwfYXOJRIuSNy8CrAcffNCNGDHCxhgULFgw6lIp5CJkX+655x6ztu3atav16dGj06pVK5uDJUSywGJFgEMfTSydM0nc0L8QKwhgCd7oxyPAiwgzkJRRzedVuHBhjUYQIo3Q484sTdbVww1bhAgrrBPI/EkEYqzC9S3CjwI8n+CG4eFPXwxZfHpfcK8jsMMQJbXVupMFoxYkJLh+TZgwwbVu3dpt2rTJNWvWzGRaQiQDBDr0qXK/YZIQCxYsWGCy0Hr16nlHYgPjEfg5MW6KBHg4ayILR0aWO3du2bkLEQVIzpIweuGFF6xaL0SYYYwQDrOYC7FXTCSX6WRGAZ4PsLnCQKVu3bpmhMJsKkre9NjFuuzNho9ePyqHVBRwFEQqyvekhUkkAzhIEticf/753hH/IImC9JpETqwHw5533nnWZ0tAi3oAcETDnRe3vxtvvNGOCSHSBi603FPIvzE4EyKssA8kUYEvBOuWHJYTBwV4UQaXzHHjxlnFDrtlZJLYk7P5imfvCxu/4sWLm3snNzBaa1z12PxGsv1CJBpc25idMD/S7woe/TgEdyR24iFxiQR4/LwEeDyLMF2iisf3g0xVCJF2MDNiyDlVc1w1hQgjrI+vv/66jc4pW7asObDLFTZxUIAXRRh3wFDI5s2bWxN2JNALEvTpLFy40FWqVMkGvzLThw2hgjyRiHBdI1n0O7ij72369Okuffr07o477ojLAGQCPCr2kQoe/XgzZ860sRCFChXyPkoIEQ3oaUWmibSN8UVChA0UHqwRzGSm9+7KK6/0zohEQAFelKDRmizIo48+6m6++WY3evToP4ZFBg2MFvr372/B5+zZs60nD+mmEIkGgQ7XNsYIfkFiB0c95u1hMX3ZZZd5Z2JLJMCjYkdgi7kMvYBIw5FpCyGiBwZpJHOYPTtv3jzvqBDhgJl39GeT8GeeIy7LclhOLBTgRQE2kWzw6LMjA8KQSObOBRm+T6SjbP7Gjx9vCxQ3vBCJBPcm/XcEYX5BBZzZljt37nRLly41+TMvHMkiRDKl7777rnck+pBkQpaJTJOFmsoCPztzMNU0L0T0qVChgsk0MTLDWE2IsEBCcuTIkTZOq2rVqjEzIROxQwFeFMBYgTEE3333nUkewyKHIqtPH95FF11kFT1cP4VIJOiD5fpGpukXDBLfvn27mzt3rt1POOfy4t8R9u3bZ6MT6IH1CyoJNMyzYCMZI+hEQiZ5phD+gPyZGbZvvfWWjSIRIgyg8KClgIRj5cqVzTBIJB4K8NIIQ8zJgjBgmM0djaphgaw+mz+GrrNJ7dChg8m7hEgUqGQxIgCZZqLLkAnwuI8vv/xy99JLL1kvXpkyZWSuIoRPsIY2bNjQkrs4EQoRBnB3f/LJJ01pVrt2bVN9iMRDAV4aQP5FjwvyxrvvvtvVrFkzdHOmqHDQR4DzH9mcMWPGeGeESAzoiaOy9dVXX3lHogvGRWRDN27c+JdXu3btvI/4vVqOFPrOO+/0jkQfGuUxViGgHTt2rC3aPJOEEP5RrFgxd91117n58+eb2ZIQQYe1ibXi3nvvjfk4HxE7FOClAebfYJEcdg0zG8GWLVuaAyAS0/fff987I0S4oYLHAkYPnl/VaZI6WbJkMZnL4S+eCxEwP8mcObP16/gFAR6BLPJMxiOUKFHCZciQwTsrhPAD1s/69etbT9Py5cu9o0IEE5KRixcvtsR+xYoVZaySwCjASyWYGdBPg7kKGmbMSsJ8oyDrQqrJBhGTGDWMi0SAexLXWOSZbMASFdQEzOHDKInB5hiuNGrUSIu3EDGgTp06lkRatGiR3YtCBJGPP/7Y9enTx1ylcXyX+VZiowAvlWCawMy7XLlyWZ9LImiYa9WqZZUHpCYrVqzwjgoRXghwuKaRZyKbjOXmC2ko8zB5IdE8++yzvTPRh347JNa4465evdpkozyXhBD+QxKJfnYM12S2IoIIST/2rIzPeeSRR6TuSAIU4KUCHIgocbOhYmA4c+8SAYYzDxkyxDKR9AvROC5EmCHAu/HGG00ayebLTzfNI6lXr55bt26dvZ599lkLNP1ix44dJq0miOT+ZWhtPIatC5GM/Otf/7J+V1QCq1atsj2CEEHi9ddfd88//7zLnTu3a9GihXdUJDIK8FLJtGnTrGetXLlyCVXmLlCggNk+4wr69ttve0eFCAdIjKlm0YPGAFfmzyFHKV68uM2pS8TsOrJMkk1INNlg0u9XpUoV76wQwm/YA9xyyy3u/PPPN+O1L7/80jsjRPz55JNP3Lhx48xluWvXrmauJxIfBXipAHnmli1b3A033OCuv/5672hiwELF5pDNIpUHIYIK9yHXKPPmkJ5069bNtW7d2gb4t23b1rVv395mO1LVKlKkiNu7d68FQonWI8NmkoTM1Vdf7apXr26/A5JPQojYcckll7jSpUubUuCdd97xjgoRXyJ92StXrnTVqlVzBQsW9M6IREcBXiqgRw0JBpr7RJsf8s9//tN6htgUU8HTXDwRb1ig1q9fb/cdBkAEcHfddZf1jN5zzz02f5KegqFDh7oXX3zRrlmCHZztcNAkW0kyhp44rulYyjRjAYEr8hukN/xuCPAkzxQitpxzzjmmFPjss8/chg0brOdJiHiDcmXWrFm2/jHz7swzz/TOiETnH78FKhKLpxAkjDSqLl261DaOfkFZnTEMzNnDJAKbdebtcZP6CQsUYxP4+myaE6XHUAQbAjkkhlTZGEFCMLZ9+3a7HpGWsGFidg89ZsgQMRLJkSOHNYvzln/Ta0fShaCOhYxAh/epSCNNoT+GGXG33Xab91XDDX2yw4cPd/369XOPPfaYa9WqlZzRhIgTPK/atGljz6H+/furki7iCuvmqFGjzDmTEViNGzcO3axmkXoU4KUQNqDXXHONSb4YkeCXDTnyM4IsSutIyvgz8bXYvJUtW9aqGX7BBvqZZ55xPXr0cI8//rhVQoSIJlTZ2AwhoSTDiMSQwI4ZblzrkWueF4Fb9uzZrT+UgcIkHHCLxNiAe4IXlefj3Yt8HhrMqXAx1oTFjoHgYYffHfOM+L2QjMGtUwgRH0hAsWY+/fTTlpxlFqUQ8QK5MOY/JEAHDhxo64RIHiTRTCGvvfaabRbZJPoV3JGVJxtPszabULT9ZF34uszfI7AcM2aM99HRh6/FRpGfj0qKpCbiZCAo41ohSCOAQwrJ3B1GbkyaNMmqS5gSYSnONY2cCWklg1dxgURCQrCC5HLy5Ml2nTOP8YMPPrAqNhU4ZJmZMmWyCh6VOYI8kh4nuhc5T+9ByZIlLdAjmOR+CjNUPPk9HTx40H6vCu6EiC+oB/LkyWNvmZPLs1CIePDNN9+YGzrGY/RmK7hLPlTBSyFkQRgIjrFDxYoVvaPRhQZtNr4PPfSQVS7YJPfu3dtNnTrVblY2q2QGX375Ze9/RB/kcc2bN3eFCxe2St55553nnRHid+kH1yIvFhIy15h9UFEiIIu4OnIt08/JhgfJJH0qvM9iw4vqHDJnpEz0zfkNgWKHDh1c/vz53RNPPOEuuOAC70z4wBEUJQE9syNHjnQZM2b0zggh4sWHH35oSSoSXGywecYJEWuWLVtmLT3sU9m3XnTRRd4ZkSwowEshbA6ZFYfpg19zrQiusFs+XL+PNJTqBu6dBHhUP7iB/eK9996zXgJMKgguqbqI5IMKGhuVQ4cOWSDH2AEqzFR2I7b8zF+jX5NsNYsIYwnoQSF4OuussyxJQXUOaTNBCO9zPB5Q7WrXrp1JnAmKatSo4Z0JF/yukXAzj5NeH3orhBDxByUDMs1hw4ZZv2+ZMmVMQi5ErGCdq1q1qq3dTz75pCtatKh3RiQTCvBSSN26da2SxoYWmVksYTP6wgsvmDSN4GvAgAHemeiDM9+DDz5okjsWK1UHEhs2JQRwXNeYmvAigENqybXAv1ksyE4T4FGNI/i/+OKL7T6IyC45Fvl3unTprPJ7IvlkrHnppZdshALyTjZg+fLl886EA4JuglOUBOXLl7d+nzBXIoVINGjluPfee00WTkIY1YIQsQLTLRLzHTt2dF26dLE9o0g+FOClkFKlSpm2no1vrN3qqNrRz8TGeebMmTZY1S/Y0CMTpZJHJpImXZEYIK/k70vfWySQQ1pJ1g+3Vl68zzkklQQP9HfRD0oVjiCOwI1/U2nmPJW7sCwiyElnzJhhSZJcuXJZkIdDbVigZ5GFm98/ErCcOXN6Z4QQQYBkWbNmzdxbb71l88d4ZgoRCzAso2qMuzT95rr2khcFeCkkS5YsVu1gcxxL6MNjPAP9TT179rTsvZ92t99++61lgZgrRrVAoxLCCRW3Tz/91KS9vE81bteuXRbkIbukh46KHP/GvARZMNc4/XAM8SdwI/tMEIexCQFfIszRidhHU6Vm+Cv9eLGuyKeG5cuXW38P/Y4EqX4meYQQqYfnC/3rWNQ3bdrUOyqEf2DCh8qMtcFPnwgRDhTgpQBc69gEIz/D4TKWMLaArH3p0qXd6NGjzbjCT9gADxo0yNwPx40bJw13wOHBTl8ovXFbt261vjiMTqg0c46qFdcvklsqP9myZbPmfww6MDvhumZmHC8SB1TjeD+Re0cIbpGv4EjLBoyERpClVJiqtG3b1p49ZGZRE6i3R4hgQkKNSgoqh9dff907KoR/PPvss9Z+gHSffaKkmcmNArwUQlUjYt0eK+h9wuaWt/QPxcLwBIkJG16GuVPBC1ufUqLCtcfGYePGjSarRP5DRY7N/5EQoOXOndvMgLhu6QchkAtDpSpWMPPxrrvusgHouMYS8GEQEzQI2knwUFF/6qmnXJMmTbR4CxFwkGmSnN2wYYO78cYbvaNCRB9mJ9epU8faatgf0MojkhsFeCnktttus80glZBY9OBRecHilo08g4ypvGBaEanK+FXJi/TgUQmiBw8nROEfBG4EG7wilTaCbH7/DCulT27dunVWoaO6eniVjfd5mDNugL8T/WT0lkWGgYvjg2wVZ03kj3feeaeNJ+F3GOse26PBPc69j9SLgJ6+QV5UBYQQwYZRRiSQcLz10xRNJDfsF3BTZq/GvFiUHkEzNxOxRwFeCmnQoIGVwcmW+J0h4abFBn3hwoWWsacPDkkWwQBGL0jw/NL2UyWiz4+AgwBTLprRgb8dFvf0vUV635BRMn4gMj9u//791uPJcYI4DE0I5Ol9oyeOwI1gjiZqTE/IDMulLW1wvXOdY2BCtZogj4pnPANkAnxcc3FDI5BHesOg90hSh6Cf9xlLIYQIHiTrGHzOs55EnebJimjDFn716tUW1LEWTJkyxV1++eXeWZHMKMBLId26dbOmafqdkL/5BRW6tWvXmkySTT1mCpGKAkEXNsz04zVs2NCORZvt27dbpYBg4rHHHlO5PxWwqBOkYYgRmR+HWQ4bcwIKkgRUSvld8zdm8UceGJkhh/sV/XL0yPE+0lw5YkUfTJOojpFt5y3D0PlbtGjRwoyNCKZjCUE/EpslS5ZYHwVVWe5F5mBGjJXoH2zdurWZ4pQoUcI+JojSUiGSHXrZu3fvbo63DJ4WIpqwt+jVq5eZqgwfPtz676TcEaAAL4UwNJLNFpvAChUqeEejC38S+qpw+OPrEOwdCRKyiRMnWpXBDxi2Tv9A4cKFTR4mSdjxQToZCeSowNEvSTDHv5ktx/u4VhLkEaSxGcepkkwbwR3vc4wh4Lzok4vXMPBkA8fYwYMH272GLJkAi/uce4AAD4lV2bJlfQ+uqdhjcc33sWDBAuulwOGTQI6q4uGGKlSB6Rlcs2aNZW0ZoYKhQ6FChVTREyJAkMijD7pkyZKm/qEaL0Q0oEI8Z84c6x1njaIAwf5BCFCAl0K4mapUqWKjCsjK+QEbTIakMlCdHpyjQY8Vm0A/Np1cEq+88oo17PJ9EGjK0OH33wvBAFWejz76yO3Zs8cW70gAxzmCOAI9KiwEbEhbGQbO6AH+VgRuBHRI6zhOpY7RA9LLxw+Cc3rvSJrQ50qlFDkV99fkyZPt71qkSBG778uVKxf1SlnEtAlrayTZjLQgccP9V6xYMavSHY2I2Q7fJ/2DVPfy58/vqlatatU+ZXGFCAZIq1H9IAH3U/kjkgvWAAoO7EdoMcDtXM7KIoICvBTCjYS9PBswJF1+BD5DhgyxTAyB3tEgGMDsBUc9P74+QSXW8chDaQyvXbt20gUgBGhU4qii8BBFRsn7SC7Z8PO3oYrCiwANKSsDp6nEESiwKY/0ztEfF5kfp0A5WBBcPffcc+ZQ2blzZ3f//ff/sUDSA0cvJIkWPobj/G2pkjGigHswLYspiQBcanmOMBCZZAHPllatWtnnpsfyREEa3z/VYno3GZ0we/ZsC/Ry5MhhfbuoDHTNCRFfli1bZokXnjG8hEgrKD5QcaGwwsSHNYxZtUJEUICXQvh1IbVg40ePjB/uklSBCByOB5s4KkF+wGBs+o+QF+LKxKy0RIYKHNU43FF5SyCHeyWBLhIIJLK8pVeLcQNU4wjm2IBTMaGiw0Yc6Q19kmyo+beqcsGHflaCIAL3sWPHWmX8cLjfCeYJ8EeMGGHySWS2LKT0RyKLQRpJnx7B2fHgayG9JpgjEGOeHYkEri3+L4ZJyEHpd02pjItrk+8TR1AGLJOgIaGANIwqPJVHGfEIER94vtDuwJrBphz1hhBpgWIDyUZUQjzz2ZsIcTgK8FLB008/bbJF+nWwV080CF7pPWJT+MQTT4SyF4zLOvJi88tbAjWkd0gs2WQTyCGbYfGlEkNAFnmhYyd4J5Cj/wm3ygIFCnifXSQKjJ5AfklwRd/diaCq9+qrr1qAhqSSLOrh1xqVXK4Vgn42c/TUkawhQCSYA64vrjeCusqVK9uMy2jPmaQaiGSHGVxc9yQieGYh+eR+VvJBiNhBcgc3XJ4ZmK741b8vkgPWGhJ3EZdlv9zURbhRgJcKcD7E2ZA+FyxpE0kCRTBEhpHNID2G6LuDDJcviycvKiFspnlLVQ7ZGr1NDImmz4pNNpUXqp+8qGjwtyOIYwA4skr6I9h4U50RiQ3XDmNP6DclEEJ2mRK45pBJkySg4su/kfNyDRLM8fkjlV0y9jwz6LnkLb0SVNf8hK/P90V2l1ErPLdIUmDOgisv/aCSbwrhP9yLjDaqWLGibcYfffRR3Xsi1aA2Qj2Ck/qkSZOsBUSII1GAlwr4lbEZpPdlwoQJCdU0zSaVnjuqXGwM/XLpTA0EbshXqaKwiY68z/dKxQLJAs6HBHdUViI9cDz8eB93QapyVFgI4pA2IIcj2BPJB3JcZggincI8KTUSRq5D5JD0vB0eIFId5l4isIv3iBEqeO+8846bNm2aBbMkPgj0GjVq9EdCQ70bQvgL6xP9tSR/MHPKli2bd0aIk4febRIFeATgykqyUIijoQAvFfArox+H+XCUyRkwSb9LIoAbH5IxHiDMVImH5TrGEQRvBNC8Dh48+MeYATblPNjoE+R9+qGQnLGJZpQDFRJGD1CBQyLH+8jmeF9jB8ThMMyc8QhU70hqpAb6VAnukFoi3Q4y3Fc4dOK6uWLFCpOn0nNYqVIlk2Sz4dQ9IoQ/0NM9btw4My7jVaNGDUmlRYpAYcW1g7oKsx7m3wlxLBTgpRKCC1zqMDbA9RLJU9ghWKLkT6aRzBCbPr/BkRLpGNI2Nsu8jxEFQR3vc4yMFUFdZKwAwRoBHIEbARyBXaTviRfnIkPhhTgaVHlxqgRmyaV29AHXJj18BEqMVAiL7IoqHtU8JKb0peL+SgXy9ttvt349zeoSIvq8/vrrNl8WeV3Xrl01X1akCJJyjM9BlYTsXjPvxPFQgJdKkAAieXrggQdMdtGhQ4fQ66DJLuKeec8995iEJNqbPMxbqMghqSSgi8gqCfLYKBNgIrlEwoIdPVW5yFtkZLiGUikl0ON3zeIoaZlIDVTb2rdvbxbTnTp18o6mHAx6MEzg2iTAC9OQcSp6JFPoDcI0hs0DCRQSO1QXYpHgESKZQHnCM4dWAp5BR7r2CnEs2Cex32RsD/MUMcET4ngowEsDBClsDsmA06+GQ11Y4WehekeAxYaPjH5qoS+JAcwEcPQiEdixkWQzTGAcMaGgp46h0hicMAScygGVOI4hFaMnioAu8lZyFhENWCiZSbVhwwYz4ElLFhTZMEOMuZZJkHD9hg3uSRIvmMVgsMTMLgI9+vTuu+8+s+IWQqQdkircY0jscLklkXKiWZdCAHNO2W8WL17cHJ+V3BYnQgFeGkAPPXPmTHOapG/t4YcfDu18G/qRqNrh7sXAzJMBEwncKenrwa2SwJC3yCkxdmAx48X7BGgYWmDqQECHgyAmJ1Q8kFPyYqHjbVqGRwtxIpC2UHUnA0ovbVoSB1SdGY5OEoMkT5iNE7hX6RPifqa/ePHixWZOROIKV92bb75Z0mch0gjJT54ZqFIef/xxc7MV4niQIEdxwtgd1BY4fyvhLU6EArw0Qi8PgR09a/379zcL5DANFGZTR7mfDRwyM+bD0UcUCc4IYnlLhp9qHD0EVObI9iO1JMiLBGgEZsg6sYFno0sQx/BNNob0xemBJOIN1zIyZOZRMWg8a9as3pnUQSW6Z8+e1s/21FNPRX2eXTzBeZNZnwR6PBPo0SP5g6mMKupCpA7WTNZbKjIvv/yy3DTFcUEdQiKSZ3G3bt1cy5Yt7fkrxIlQgBcF2AhROqeCNXbsWHfnnXeGYvNDZW316tWWGUKayQBWpJkEcFQk6BPgfWRsyCrZ5CELiMgmqVaShWSBohqHPI1gToigsnbtWte6dWsz6JkUhflBVLyofNN/h9kSMudEAvkmvzNGQaxcudIkqfyM9Oly3/MMkMRMiJRBgokgDwdunLh1D4mjwfac3miuE/ZeSDNvuOEG76wQx0cBXpQgg092m0AJjX2Q5scdDSpzBKZIMwng6AcgU89cPyQj9MAhz+LFJpgAjl4l3vKiZ04OTiJMkAkdNmyYBWQEY3fddVeaN1Z8TgLFPn362D1UpUoV70xiQSBLxZONKUkhpNlIXElm0atHYkiDm4U4Obh/GjdubAmUpUuXqiITMlBuoGhiH5UnTx7vaPQhoYYyjD0lawzjfPScFSeLArwogfSLzQ9BHq6PyLWCWs3iT06vXN++fU0iQg8hGXl6k8gW4VxJZh6zEwI5RhFoGLgIO1zzuJDh2Eoig0RFWuG+nzdvnpmRsADXr1/fO5OYIC9Dps2mlJmZ9IYwKL5MmTI2cJf+Wm1AhDg+PDe6dOlifbuMKkmEMUvJAAZdjJjh+bdkyRLbKzFH1Q8IHikcIMnE0ZhWAPZjQpwspzyCsFekGfrPKJ1TRp8yZYo9BOhpox8taMYEfG+9e/e2hwcuXszlIaDDBIWNGn1EyK+QXDKKQPIREXZIauAOyWJct25dV7JkyaiMAUGKzbxGenBxm8QJNpHhWcAcSoxXsHhnw4GL8Jw5c8yVFBt4nhn03Aohjg77BZKmixYtMtVPpUqVvDMiiBDYIVEfPXq0teEwIotZyPgMVK5c2fuo6EL1jp67r776ytpoMKhT37NICbIrjCJkrhs1auSeeOIJu/nJ0I0fP94eDkFhxYoVrnnz5hbcsdGlekelTkQX3BWpiOJGyAIu4gtBGNc89v9UnKIliWLBRcLMZo0+1WSBQA9pJv1DqBXYiFDdQ/6K9AwbeHp4hRBHh0QqSWGSI59//rl3VASRbdu2mVID9QKJLKT5fjNr1iz32muvuTvuuMMVKVJEwZ1IMQrwogy9a3Xq1DHpBQEfBVL6fsjCxBt6hQjqqOARfNLkTe+MHhzR4/vvvzfJDYE+slcytPRZiPjCnEcqeFTZsmTJEtVrnvucAC9IiZxYgdkSrpoNGzb8w0mYY/Q4og7AHIAeXyHEXyHJRPWHSg3JQBFcUDR17tzZEvY87/yGNgLc2Um+Ywp29tlne2eEOHkU4PkAm73bb7/dGmN5GDBbjs0+M0zQVcca+mTQcZNtp7LEHBWqeEipFNxFDzT5ZcuWNeMJsm8ff/yxOZWK+EJD/KpVq+zap08s2nOnqGaR2Dl48KB9jWSEoA65JiYAJDiQMPF7xvWNwbw8ewiyhRB/UrVqVdu8+9XHJaIDfyOclxmrw+xev6FXnKIAz02cyoVIDQrwfAKNPT1taLbZ9GBmgjSMAac4aOFK5ydICD766CNz9qNfhuodlQssz/m3+uqiz3PPPWeyG0x24hHIi6PDDEdmPdLDgLtttJMaJHToOSOQ9Pu+Djr0GxPsVahQwSqmJJOyZ89uzx/6VTCjwewGOav8vUSygxM1/Xckf5H+iWATi4Q4Bi4Y9rFWNWjQQEl4kWoU4PkM2ReGVI4cOdLlzZvXTZ061W7cAQMGmFQS7X009Nx8Dl5UEbDvRS6F/IMeMDafmKrw4MDlTvgDs9D4u3bo0ME7IuINQQQmIMx1xAAlffr03pnoQbKEPjzkuQR54ncIfCtWrGjyM+4N5LFz58615x/3CP0s9EbiKChEskLPKkqPmTNnKumR5PA8ROaOWV+/fv2iYgQmkhcFeDEArT1VvOeff9568ijzY0zAzKwePXpYMEYzLcYsKa38sDDgXEcDMPpwAjr6YTBPoYrYrl07Cyr5N5JM4S9s9nk4i2BA/yOuZzjC4hDrh6MtizDmLZjpJKtE83jw/EO2jLswBlQMSn/11VetRw8zFgLA/fv3K9ATSQkJj+uvv97GjrDBF8kJCXqUDiQk6btDDSREWtAcvDhANYGh4m+99Za5M+3du9ekGkiZyHJTccO4gbfIndg88hYOHDhgm1YqdcicqABu2bLFJKD79u0zGSYv5FD0gyFLUxYottBPQVYWqBqxgWUMhYg9ODnSA0Y1m0p65D6KJvRK9OrVyyRWuEhyz4ljQxCM5Ti9egR6PMfY5NK3XKpUKTMWkCxJJBODBg1ygwcPtrd33323d1QEEdYTnltAMj1a/ZPr1683rwRYsGCBRs2INKMAL06QrSZbRz/K9u3bTYPPkHECPipABHjM0SM4o6kXuRPwf8j0UC1AEsb7fAwBH8MwGbSOLJSKBZ9DxB4FeMGBTCjSpzFjxvg2awr3zMcff9wWZRxzsbQWJ4ZnGJsaRrfQq4ebIIkpZhSibsDUQIhkgD1AiRIlrHd1+PDhviSiRHTwI8Bj/0YbDSoHAn3UDUGbnyzChwK8AIDM8uuvvzapJQEcFToc56gMfPLJJ2aZG4GgDctegjpGHBD80ZCLwQdSTzaxyn7HFwV4wYDKONU0Xsyaok/ODzBWoceWFxJEpKDi5GD5IUDG6RdTFuS0PPdQIfAsq1atmg1WFyKR4R5o2rSptWnwHMmTJ493RgSNaAd4tOUwTgnnzFtuucV68C6//HLvrBCpRz14AYC+LQIAJJo8PNgg4p6E41zPnj1N9hV5USlo1aqVjV1gA8T/YUOUMWNG28gquBPid+h5pUqEFblfwR2QbLnwwgvlopkKeF6RpKJyx3MNIyj6kkl0MV7mrrvuMrMB5OdCJCr0qVavXt3t3LnTzIdE8kD/MS7P7AMJGCXNFNFCAV5AYdPIQ5/ND5vHyIt+PCScSDgwUaEhl0HC5cuXt3NCiN/NVUaNGmX3UKSa6hfchwSQVOLpJxOpg+cas/QI9DZu3GiOtPwdu3btavLzvn37WsAuRKKBHI+Zuahy6M0nwSESH9YMZrS+8MILJsssUKCArSdCRANdSSGGzQ9z7TBaoW+FYZxCCGeDtrkvcJGNRT8LPbJIbTTfLe1Q1SPYa9GihZmxMCydoekEeDfccIMFfh9//LH1IOt3LRIFjNZwmCW5QdJWBAueNbTOHO6UjGIDH4TUgjQdWT+tHIyUISEpRLRQgBdikHMwXgHdNn0qkmcK4Wzjz9gQsuL169f3jvrLWWedZdV2emnIyorogNEUznL0qNCbQoA3ZMgQd/PNN1ugh3MpEvWUjpcRImgwxgiDJgw3MF376aefvDMi3uCPgFM5ySb6JCPQN4wxCkF5StUFBIaMsMJVnTEyuXLl8s4IER0U4IUUXDhx3GRYerFixcxaXMQf/i5amOMLPSwsuGRE6U2NBUiqqTrhBKm/f/Shgkegh5SJWZ/MiMJYqm7dulbZY6P1xRdfqKInQgsJWsyFcubMabI9qtQiGJBM53mDdJZ2GDwSeJUrV8698sorllBMqayWIJ7Zxezf6L+Ua6aINgrwQgobydWrV1vfHZsdNpcivrC5/Oijj6yqEIF/4+YoYgOyZWZMkk2lYT1WcP9RwSP7LqMV/+B5R08lYy8I9AoXLuzmz5/v2rZta0PTcUvFkViIMMJ4IxQ5JKgYoaTKdDDgOTNhwoRjvh5++GGXKVMm76NPDFL+Rx55xPYMrFP0HgsRbRTghRTGJ5C1zps3r8uaNat3VMQTHtQYRLDhjECAx2zCRo0a/WGtLPyDeVKYFOAoe+ONN3pH/YfeCSRWkdmUwl+o6DFCgSAPySYD0nHg7Ny5s2vSpIll20mCCREmSBSRsKVvmPYLnici8UCauXz5cnNC59klhB9oDl4IYQOJicRDDz1kWWtGJsh5Kf5gCHEskN9kzpxZ8218hGz3iBEjzF5/4MCBrnbt2jEb9k9fRqdOnayCyKDaa6+91jsj/Ia/O7NCd+/ebQPTqe6xQcaVsGbNmtbfggOxEGEAqV/r1q3tep47d64G/icYGKvccccdFrwjxdWcT+EXigpCCPO2ePCnT59etroBomjRosd8YfOu4M5fDhw44N544w2XLl06q2zHKrgDMu+MSkAeKIlmbOH5R0UP45Vu3bpZbwtJr7fffttcVOnFREalEQsiDHAt8/xC2s+1rBx8YkHykeC9T58+tocTwi8UGYQQXONefPFFk6CRpRZC/N60jqypQoUKNk8qlkR68LDQlkQzPlAlx82UAJ+eGK6HNm3a2EaZvj3MDAj0MELSplkEFa7jiHEaSh314SUOCxYscAsXLrS/b7169eR8LnxFAV4IGTdunPX7oN3+17/+5R0VInmhcoZElgWTiul5553nnYkNzMEjuOD7kItmMKASglyX66JHjx4WeN93333mUjh27Fjrj1W1VQQRqtE4ajIeBHdYEX7wTeC5wzOnV69e3lEh/EMBXsjAfWnGjBnW44PsTwjhbAAtTeuFChWyWWmxhgCPoJL7UwFesLjuuuvMsQ5ZOyYsVFqRclLpHT16tFX6qLyqqieCAolb7Pip3rHei3BDcmnWrFlu/fr1ZgKlmXciFijACxnMXNm3b5+7/fbb3WWXXeYdFSJ5wdjkzTfftPuiePHicbOcJnAgSOD7EcGDmYhdu3Z106dPt0CP6+Txxx83+eawYcPM8IAAXYgggEIHmSayYj1Twg3zipnhiWEObtsaayVigVw0QwZZ57Vr19qIBPXfCeHc559/7urUqWNZ0ieffNJlz57dOxNbJk2a5B588EFz8sS5UYNrgwuVERICL7/8sr0Yjn/RRRdZgqB06dI29wrJbRjBUfTpp5923377rXfkT6gM1ahRI6YjRETqQVLM3xKZMfPxRPhAts8ol2eeecZcz+m9w+VXCL9RgBcimPHFQ54GXbJB6r8Twlmyo27dulaJodcKuWQ8YMj2Aw88YNWhBg0auNNOO807I4LKL7/8Yr1469ats/mVDMmndy9//vyuevXqJoM/++yzvY8OPiznqDyQ9x2tv5CfBSMiScTCAcqEIkWKuGbNmrmnnnrKOyrCAomkFStWuHvvvdd6f/v27auxCCJmSKIZIgjq6BUhA6TgTojfGT9+vPW/UXmJV3AHVHwYeE7lBKdGEXx4jmJVXrlyZdevXz83c+ZMC+5wu2vZsqUF6jgWh8WMhetuyZIlx/x+s2bNai8RDnLnzu3y5Mljf1NMOkS4OHjwoJs4caIFeiSMYu3uLJIbBXghgTI/TbrIiCpVquQdFSK5YSgwttNsWpHVxRNkNwSYbMQ0KiFcIKdlTiXVkuHDh1sVjB4ojHuQNCK5RcoZ9MCd74914lg0atRIleUQwd8KUw5k6FSXRXigmo70m/uR5CPDzSXbF7FEAV5IQIa2f/9+e9hrgRbid9iMs2jWqlUr7lVtRpcw7JyB2ppdFU4Ys4GMkT5OLM2RyFWtWtXc78qWLWtB39KlS80pNYjB3saNG60CyebyaC+qkiJc1K9f397Onj1bz5UQ8f3337sOHTqYuRM94jJWEbFGAV4IoBqARAMnrXvuucc7KkRyw8B/DAiQ2JUpU8Y7Gj8IDJBpYnJBb5cIP9dff71JgAnqePYyjoOADxUFck7694I0FuO5555zefPmtX5tTGSYocb3R3AnYgO/a5I8u3fvdlu3bnXvvPOOJWdTK/NFGUAV+f3333dvvfWWd1QEGZI//fv3dwcOHLDnBUkXIWKNArwQwGK9adMmG+AcLwt4IYIGGW02sLVr1475YPOjQf8dmzG+JwV4iQW9UCNHjrQRC1TBCOLbtWtnxj4EVdu2bYu7LJfeT4JOqgYFChSw+wJXV3qACDJU/fEf7nuCugEDBlgSgOsGx1KqcM8++6w7dOiQ95Epg/4trjmUPPo7Bh9ma+LoTP9k06ZNvaNCxJZTHmECrAgsPMwxV6HpH4c+FgtkREIkM2yUOnXq5H744Qf3xBNP2Ay6ePPPf/7TvfTSS27Pnj0mGQ3C9ySiS7p06VzJkiUtI3/BBRe4nTt32iBqJJxck6eeeqrNJ+VaiDVUGceMGWPvU7Wj2khikOMEeEiZs2TJIoMun2Ctfu+99+x6oDeYmWcEfLxPNY/qG2qD1DiYIv9mD8A1dtttt+nZEmDwS2CvtmvXLjdo0CAL8oSIBwrwAg7N1cxPQfLBQwOTFSGSHQwv2MwiXSKYCgJsoNlMk8EnY8+m7Ei4n/neGV68aNEit2XLFjt+6aWXauMdEkiwMYCaKtnNN99sm3Y28FTyCPSQRhLoYdoSS1OFnj17/nE9HQ5yMZIOq1evtmuS71lEHzb2VNio2mFmU65cObPGZ/wG/VhINKnyV6lSxfsfJw/XHJ+fZwf9oTfccIN3RgQNKuajRo2yvrvWrVvLWEXEDQV4AYcmfx4YERcmDcgUyQ7VCeYJIV0eN25cYJIebMIYSPzGG2+YGdKFF17onfkdKioDBw406Q7B3Zo1ayyrz8fzM7EZlIFSeCAgp1p300032XxS1BX8jadOnWp/U3qmqLTEKnhnfh9un/T85MuXz1133XU2VoeqD9UlggykpMj9MAMS0YX7n3ueCh3rNEE+M89Q4NCrye8c2SatFimF64eqMBJcKscFCxbUsyKAvPvuu+7RRx+1vxUmTUeuAULEEvXgBRhMVQjwPv74Y1e8eHEtykL8BlWSDRs2mKNh5syZvaPB4OKLLzaTBfqhDgdDGHq4WPSR9UUcGNl843w4evRos+YX4YONNtdhzZo1bRj1tGnT7N+TJ0+2Su59991ng9T97sskcGCeX7Vq1Wyw8mOPPeaef/559/DDD9t1CawlDDoX0YegDsfEwys2JKGonhKgkaBlrmJqIHikUow0mGcfn1MEC5J0KDOoovfo0UMz70TcUYAXYHiIk+XnoU7vRDz6OoQIGgyeplJC8zobnyBBEobMPXKqw50LqdThqEZ159NPP7V/I+UCPo7eHeSd/D8RTvi7I91EbYHz5pw5c1yOHDks4CtWrJht7unL8RvuCaSABHV8fXpVhw4dase41qjkCX8hkJ4yZYoZ3WC6RBW3efPmaTJJQ/JL/yd9lVRiRbB49dVXTZlBMr58+fLeUSHihyKGgMJCTKZ/7dq1tjm45pprvDNCJC8EQvQSIYMKYvM6YxLY6NOHFYHMLrIqXBcrVKhgmz36oOiniVRWuN/p0dGA9PBDIo7r4NZbbzV53rx586zazKBqxi7QN0pFj0ArmrP0uM5wWkSWGUkuEOxxPdIPhOkH76t/y18++eQT161bNwvocFNEHktyhwov/fSp/Zvzt0MGzN+RxC+qABEMSNoR0GOoc//99x+1/1qIWKMAL6BgqoKUBg03PR7S24tkh43S66+/brIn+oiC6CRHPyADbZFeRvj3v/9thhzcx4dD0EfAB0i4CPYIDETigFwP18O5c+dasMffm6Qdcr1mzZpZkE+1JxryzWHDhlnyoF69euaaicQ/AomDa6+91mSc9AsK/6DS1q9fP6vWY7QSaa3AYAmZNhW41IL0F0XPihUrbLaeiD/cu7gncy9z76HMkNpKBAFdhQGFjBCSLaoUuGYJkewgdSLpgdSM6kgQDYciEk2+10gV5VhQXYmYb2DGQBDIzyYSE6RbyDYxzcIIhV6dFi1amDvyrFmz0izfjMxIw06fWX1sOukFpTKMfIwKH315wn8wvCGYpycLJ0WeCYDbKtW31MLn5TlBRZDrx+++TnFi+JsSzDNCheq8nM5FUJCLZgBBwsGCzFDdu+++25UoUSJwvUZCxBKCJQyHMCOh+oEbXRCDISp3bLAZvE4fxvHuW34m+qOQ6mGMgSGHArzEB7MMeqmQGVPtxWSH6h7jNbh+zj777D+kuymB/i6CRCSayPupFBHUEeAhGeb60kyu2MLft1ChQmYMtWPHDpvbmTVrVlemTBnvI1IOSSF6eHHmvP322+1riPjAs5vxKFTokeTyzI8E80LEG1XwAggL8uzZs23BZnFQuV8kO2xakWeyQSpSpEhgexz4vpBk0gt1Itj0YRbDPc5YBWV+kwc25cglH3roITNAwWkTCV+HDh1c27Zt3YABAyzgoyJ3slAh5HMx+H/48OGuVatW1rvNdYWkOW/evN5HilhC0oa/BVDhZ7RGWkCmyUgVepEJ8kT8YCwCzsjIMqnYKtgWQUKRQwBBW798+XJ7aEieKYQzSdLChQutAsF9EdThsWzg6JdFYn0iiSZW2vRMPfjgg7ZhE8kH1wuSO2R89GcRnP3nP/9xffr0sR49hpfjmHiyxhzcH6g+CCh44eKIoQ8VZalA4kekcorLarZs2ez91II0nSQXiV+eiSI+8HwnoUIVD2kmcyeFCBIK8AIIs4t4eEt+IcTvTezMfkJ2xsYGiVtQYSNNBQ8nveOBjT5OimPGjDGX3KAGrCI2UOUhmUdAhuSL6wKpF8Ypd911l+vatavbu3ev99EiaFBppQeS5xN/qyMNUJDhco8T3DGkPK3wzOA5yKxFER8IrufPn2+V+CpVqugZLgKHArwAMm7cOLNCpk9DiGQHeebMmTMtQ1q4cOFAL6QkZnC+xdziWBU8+mcGDhxoM5O4xyMOuWwQMWCQcULyQlDHgGRMWBivgK0+bqtDhgwxi3yqvZLlBQ8qrEuWLLH7t3///rbh55mFpJzeYWYg0nKB/DYaUmxkngR5zMpduXKld1TECnpbMTKiAk8ftdyPRRBRgBcwcD7DNpsmbDaKQiQ7uJQx3BypWRhMItjAHTx48G/9UwR8bMgeffRR9/DDD5vrGvc68tO3337bPfvss/bviLOmSF5IFDAGhOodcn2uDQI8TIao9BHoMS4EOWdK+vSEP/D3Yqg8fzOksIzCoO+RnlyUOAR3OGoSlEULjKZQDCDtPZEcXEQPgnme3zy3kVHzdxciiPzjtweDngwBgYWa/gkWdDa0aooXwrl7773X5DD0J0XmxgUZJFr0ZjCLjNljEdgQYFqMBI++jSNho8BmDZmXEEfCLDvGKXD9RGap4b5KEMjwchILBBoiPnBPU8XDETUip+WexkSpcuXKUZ/byfXA85CqIfL1tJq3iJODiiz3Hfcbbucaai6CilaDAIGjHsMyCeyw0BYi2aGihaMs1uJhCXwwTkFqd3gf3ldffWUZfOagHS24A2bh8X+FOBpcUzVr1rTxOUg2qQYh823cuLElDhYvXqzh13GEPkqkmQTgzOvkNWrUKBtPEe3gDrge6NlEwk5QKfyH5ziJRiSaSHEV3IkgowAvQLBwI7lp2LChZFpC/AZDoelnIwMelsWUOWZUUghOgT4cZuNhnIEV/rFg9pkfG0GRWGC8RY8eG81Bgwa5cuXKWR8WoxYYu0CAoUAvOWAmKJW7GTNm2HNG+AcKK+bdobDi/kvLLEMhYoEkmgGBnh009ci4cNejsV6IZIbAjpEImJC88soroZEgsQm45557bAwC8lKyvfTYIdk8Hjjs0WMYMV0R4mSgqrBlyxZTf5BI+Oyzz9wtt9ziSpUqZWsKhl0iceEZg/M2LxwdhT8wl7Jdu3a2R5syZYpG24jAowAvIGC326JFC5Nz9O3b1zsqRPJCJQL3ORrau3fv7h0NPgxkp0ejefPmFuQJEQsOHTpkvV9Lly79o4rHJrRixYom5bvkkku8jxSJxObNm02+3rRpUzd48GDvqIgmKKuQRfP7xSSLBB7jcIQIMpJoBgR6Kb755huTZwqR7GAgQM8afSb16tXzjoYDnO2QaGpumYglXHcEdAw4pyeLxAgjFUgyUM3D+IequEgscFXl9cYbb1gfv4g+zGGNVEiRxSq4E2FAAV4A2LZtm7mikYW75pprvKNCJC+rV682SUyNGjXMfCRM4K5GD63mlYl4QI8e7q2tW7e2mYuYQdAC0L59e5cpUybr3ePfIjFgLmitWrUsuFuxYoV3VESLL7/80hImSJ9JNh7ujCxEkFGAdwQ43DGglIwn82wwTGCODdkbJDDRVrTy+XDb4uHMZlb9N8IPuM5owv/ggw8sk49pCX1hQYRB3xgOUW144IEHvKPhgfmVVB7ZGAgRTxjEjPSfe/2pp54ymSYVPXr0eA7wPOC5oE6NcIPRDvPZCPBkthI9+J2SJJk6daqNI6GCp1EkIizoSj0MdNbMocKKetmyZX8co3md3rixY8e6H3/80Y5HCzKp9OxgsVy4cGHLxgkRTUhMYNxD5p4kAo3ibOyCCgOcWVQZbI7xSNgguCMxRDO+EEEA066WLVtaMrFPnz7u6quvtsoeiR6eC0jQaBEQ4QQHXlwdMXKiJ09EB6p23B9XXHGF9VWrj1WECQV4h8EcIQYqY4HbqFEjV6JECcuAAoEdGdDdu3fbv6MFmVUWVzJwPKSFiDYYLrCZ69mzp11rQYaMKUP+GTFAI3tYEx7p0qVzX3zxhf08QgQFRo1Q0Zs8ebLr3bu3JVCGDx9us/QGDhxog5u5bkW4IKFEb9i+ffvc2rVr9dyJEsxgZbA5brQk4IUIEwrwPKjU7dmzx3Xu3Nk9/fTTNrOKhY9gLzKTjuBu586d9n40IGhkw43NNcEkTfJCRBt6wpo1a2ZJi6CD89+qVassQCpUqJDJpMPI5ZdfbkYxVE+FCBLcU1QkmjRpYs6ABHb58+c3UyMs9zFnmTdvngK9EMEeJUeOHFaZRa1B5UmkDbwRkDHze61Tp46MVUToUIDnwQMS+Vrx4sVNzkLlIGvWrO7uu+/+S1MtDezRAgkX8ky+TpYsWSTPFL6A5Jg+UiQmQYfNCYZD9DuEuaIdSdaQURciqJBIwaCDah5JTZ4TjFno0KGDa9u2rfWeS7oZDq666ipXsmRJq+Dt2LHDOypSA33gjzzyiAXKJEIyZ87snREiPCjA8yA7g4Ml/TMRaKYl08mDEziPC1k0oKmdPijK/7hnpk+f3jsjRPQha3/4tR1EMCVZuXKlJVFuu+0260sNKzw3+J1//vnn3hEhgstll13mypYt67p16+YmTpzoqlSpYoECzpvVq1e3wc7/93//5320CCLnnnuu9S1jsoIySGYrqQfXzAULFljAzL0gYxURRnTVngA2nRGzBCRul156qb2fVr777juzgj/rrLNc3rx5o1oZFCKMkHUmwKPX4brrrgutPBOQxcLXX39tb4UIA1y3OGzitDlnzhyby7plyxYzaOH4s88+6/773/96Hy2CBM9L5uEhKXzllVck00wlJOX69etnfYzIl+lvFCKMKMA7DlTZPvnkExthQD8Qck0CsmhA4Iipy4033uhy5crlHRUiOWHTuHHjRhsOzogSKmBhhkQQGy4NHhZhg+uW6jmtA7169TLJNMPTmUuJGUuBAgXctGnTTLqpql6wIDFGFS8y9FzjL1IGvy9cM/FawJSM36cQYUUB3nGgckcQhjQT85VoyTNZFLEz3rVrlzW3X3nlld4ZIZIThoLjWFawYEF30003eUfDCyYroIHSIuyQrOjbt68lXx566CGbFYsZS/ny5a2ih/mYqnrBgD5+AnD6l3Ejlkzz5CG4wxNh1qxZltxo06aNd0aIcKIA7xjQZMvNTvaydevW1hMUcdNMK7jrzZgxwwJHTF2ESGaQwlAdYH4Tm5PDTY3CSmReEgoAIRIBggYcNkl6PvDAA3bswQcfNBknDpzcv9GeEytSDoogTNsY+aQE08mDm/mkSZPsLYmM008/3TsjRDhRgHcM2HAiQ8FBqUGDBn/MwyPgS+siRrWC4enIM9HLC5HMkGWeOXOmyTIZF5IIdtQXXnihSd0U4IlEArMJZGsEdmPHjjVlCz1KXbp0cc2bN7fRQiRG6TEX8QHDHPolGTnz1ltveUfF8SDJiHss+7KKFSta4j3MPeBCgAK8o0AGZ9SoUXaTY6yCOxUwfPmxxx5Ls64dKRoPFCyplSUSyQ7zJ1lckWYmgjwT2PSSFNIsMZGIIAWkSoSMbfDgwW7QoEHmBI0pBeMVGLvA0PRvv/3W+x8ilrC3QEWAhFacGNplpk+fbr2n9erV+2PPJ0SYUYB3BAw8p7kWCSU2uVTwsInmRSWPxuW0OF4iz3zmmWds/hAWvEIkO8zaAmzaE8mxjHtcYxJEIkNFj0CPtRHnwdGjR7ts2bK5qVOnWvDXsWNHt2zZMlv3ROzgb0CybMWKFZZAE8eGPd+iRYvMmAYjPSSuGosgEgFdxUfw5JNPuvHjx1sVb8mSJSYdi7yoMtAjlBZWrVplDk04BSKlECIWUDEOYrCBlGvcuHHu+uuvd6VLl/aOJgZk0JGfHjp0yDsiROKSIUMGd+edd7r+/fvbGoqbYyRJyjB1gg0RG5C5V6pUybwEmOkmjg5qLOYRswblzJnTfmeRdhwhwo4CvMNgmOvQoUOP2z+QVidNmtGRt9SsWVMabxEz6MegpzTCtm3bbA7jTz/95B2JD2T6SaaUK1fOXXDBBd7RxIANL4G1ZJoiWaDygesm7Q0kS3EkJJlJsjTS28SMNuE//L55ptJuIo4OfgrPPfecmdFQvaPyKUSioADP491337UHIRn3884775ivtDwAMFzA2YrRCPny5fOOCuEvbLiQnbDJilzHEWMEqsjDhg3zPjK2kF2md4fvh76HRIOh0YxEUQVPJBsEerQysNZhxrJu3TpXtWpVe0uV5I477jBDC5KpmqXnD8zsrVGjhkk0ly9f7h0Vh4OZHnPvihQp4u666y5JM0VCoavZg8Bt5cqV7uuvvz7ui2xkaqHhmYxR06ZNvSNC+M9nn3121Gs58rr//vu9j4wt8+fPt80H1ezI3LhEAlt5gljMmYRIZm644QbrPcfVsU6dOu799993tWvXdnXr1rWkJ87S3CsiuvA7ZrwTSgkF0n+F5AJusPRK169f351//vneGSESAwV4MeKbb76xRl42fQyIFSKZQRqKa9mpp55qi2siwjw/NlXc+0IIZwOkqZjQ044xy4EDB6xHj8HpBCHvvfeeDFmiCMoNeiHpf8QgTvwOz+XJkydbm0KFChXMdVSIREMBXoxgNhDNvMhUlCkSyc6GDRvsnmDuXZ48ebyjiQXyV3rwvvzyS++IEIKkTu7cuW2UwsiRI919991nMmaUBO3atXMjRoxwb7/9tvvvf//r/Q+RFlq2bGl9wCSYxe8gzWSkB8otrj+qnEIkGgrwYgDZopdeesl9//331sgrRDJD0DNnzhyTh7Zu3do7mnjQ+8jPqmHnQvwdnB7z5s1rw9KHDBliAR9rJS6czNLjLYkgVfTSBu7EzHVjXIXUBM72YY8//rhVjx944AGXMWNG74wQiYUCvBjAWIT169db1pKZQUIkMzt27HBr1qyxyl1ax44EmSuvvNI2rASyQoijQ0UPKWGzZs3M8AnjJQZOU9275557XLdu3SzQE6kDxRCmNjgn6/fo3Lx589yLL75oLqMYqwiRqCjAiwEM0GRTizyThUuIZAb3vO3bt5tzZiINNj8SsuaMRJFEU4gTg0yOBGi1atXMefPpp5828yVmlFWpUsU1b97cbdy40ftocbLgDImRFWZPyT6LcO/evTajEUOfvn37mtOoEImKAjyfIXv/2muv2YPk1ltvtWylEMkKw9bpvbvwwgtd0aJFLQBKVJhzyagEzcET4uRhjbziiivMjIw5es8//7y7/vrrLdCjZ7dhw4bWQyVODp5DmTNntkHejKnAuThZmTFjhlu7dq3r0KGDmWAJkcgowPOZd955x7KOuDRhuiBEsvLrr7+6N9980+TK1atXtx61ROfqq6+2ng8ZRgiRMqg80afHcHR62Kn88z79uyRLCfQwY8HunmeLODYMPMctknm/yVgF5fogsfjCCy9YsoBRHYmcXBQCFOD5CM3hLEDYE992221yzxRJzbfffmu21P/5z39so3bOOed4ZxIX7nlGQkimKUTaYA1llAKbdHrKkBuWLVvWtWnTxp4rmBlhaiT+Dq0hhQsXtj0JAd4PP/zgnUkOUFJRDaZ6yUgOJdtFMqAAz0fQvCPPzJ49uw16VcZIJDO7du1yK1eudMWKFbMsKtKhROeSSy5RgCdElKCiV7JkSevRGz16tBllIDusXLmyuXHOnTvXNvEamv53UBMgi4+MbEoWuBYw9cJchcQAycXTTjvNOytE4qIAzyeQBLChfeutt1zBggVdhgwZvDNCJB8EOdwLbL7IxNNjkwzwc7LBoGophIgOZ5xxhrU94LrJq1GjRjYknZlmBHrPPPOMrb+q6P0JVSuqeO+//745aibL74a+70mTJpmJD2OqcDcWIhlQgOcT9N2QKaOP4Oabb04KOZoQx4IK1uLFi63ZP1++fEkzWPbiiy+24Parr77yjgghogWBHhWZRx991A0dOtTkmh999JHN1EOKR/CHc6J69JxVrRhHQaC3atWqpBjfgiR1wYIF9vPeeeed7pZbbkkK5YgQoADPJ3h48mC58cYbbUMrRLLCLDiyxowLKVSokMmVkwVs3tlkHDp0yDsihIg2BHrM1KSCx/y8Tp06uYMHD9pAa0YEPPbYYxboJTvZsmWz+aNLly51n376qXc0cWGY+eDBg90111zjatSo4c477zzvjBCJjwI8HyBbuHnzZpt9x6KTLl0674wQyQcOktOmTTMnN+SZp59+uncm8YkEeJJoCuE/mInkyJHDNW7c2Ew1+vXrZ/fegAEDTNL5yCOPJFX/2ZEQ4FDF4neCZJ5nUyJDBRf1CK6ZXBdCJBMK8HwAbTvzVtjc0dSMTFOIZOWbb75xs2fPdlmzZnVFihTxjiYHzPv78ccf3WeffeYdEUL4DUkk+l/r1avnNm3aZD1YzNdDysmIhe7du7v9+/d7H508IE9EUURFCzdSnk2JypYtW9zw4cNNRUWPZrK0BQgRQZGHD9Bvs3DhQpclSxbrvxMimZkwYYK9rVSpkmXYkwlcNDFZSYZ+FyGCBgEN7tW4bG7YsMFNmTLFHHyffPJJMxx5+OGH3c6dO5Oqwo5E/qabbrIxE4yWSETwQGjatKlVLB966CF39tlne2eESB4U4PnA888/b31H5cqVU9ZIJDVsnLAzT58+vStdurR3NHlgc8ksPGYACiHiByMWcFFETTBixAiXO3duc9ukoocpy/r1681xMdENWdiTIFcl+KGymWiQUBszZozNIKb/slSpUt4ZIZILBXhRBskDFQvkIXqwiGQH58x9+/a58uXLJ81ohMMhwDv33HPNZCXR+12ECAP0AteqVcuNHz/eDRo0yNbpmTNnurvuussknDyzmGFLkjZRoXp53XXXWSvJd9995x1NDJBm8re99tprXZcuXbyjQiQfCvCiDI3LGKwwjJXBokIkK8hknnrqKetDI3OejBDgMSqBxI+MVoQIDjyXqlevbs8o3DaRca5cudLdf//9rmvXrhb8IGFMxIoezyT2KB9++KGNEEgU6PcmuGNURo8ePdxVV13lnREi+VCAF2UmT55sC0L9+vW9I0IkJyQ76HspU6aMzb9LRiIB3g8//JBwmXIhEgEq7MxI69Wrl1nqY6fPcwsjllatWpmMMxHHnFCxZD7vuHHjvCPhh/EPixYtciVKlLAWGSGSGQV4UWT37t32gGE0As5NQiQzEydOtCpe27Ztk9ZJlp+bTRTBHXO5hBDBhJ40hqZ37NjRgp6GDRu6d9991wI9ggX69jBQSxQwWylYsKB75ZVXEmJ0xK5du2wcD2N5mIfIc1eIZEYBXhRhsPkXX3zhmjRpYpbMQiQrWJOvWbPGFStWLKmTHVTwGJciiaYQwYeEDKZIDANv3769JWyRbCJl7Ny5s8kaCfRY58MOexSURhhAYTwTZjBWWbZsmb2aNWtmBjoaTyWSHd0BUYKs0bx589xpp52WtP1GQkRYsmSJ+/TTT03iRJCTrEQ2jDwfkGkKIYIP4xXOOOMM66N/8MEH3d69e13Pnj3NZZPqEImrUaNGWVU+zD16FSpUMAk5JjM//fSTdzR8bNu2zT333HMuW7ZsNo5HYxGEUIAXNV577TWTaOLOxZBVIZKVAwcOWOabzRF23MlMpAePLLkkmkKEExI17dq1M+t9nDdZ46noEehR0cMpGDl62GB0BFU8vv9XX33VOxouIhVI3DNr167tsmbN6p0RIrlRgBcF/ve//5k0gAcNAZ4QyQrZbO4FhgfXq1fPNhDJDAEew87JjodxAyiE+JOLLrrIeornzp1rIxW4t5mhRyILN05m6YXNkIVZcUjIGQ+B1DG1MFYCGTp9irhY0hNH0pt/427JPinasN7gWo4RDvLZO+64w1RUQgjn/vHbDZLYUz1jAA8xdN/8KhlyzpwdIZKRL7/80izGCfK4F3LlymVyp2SFZ8KKFStctWrVbEOIZFUIkRjQm4daYeHChdZ3TGWPex2zlptuusnk2UF//hHcYSJDEgpjrEyZMnlnjs/XX39tQRzVP577fB56EwlwkbJynqHqzKMj0ccc1DPPPNPMbOhL5uvwNi2QVG/atKlbt26djbrAGVQI8TunPPIb3vsildBvhIa9cePG7pZbbknqniOR3LzxxhtuzJgxNjyYuVIs6MkMmztmaU2dOtXlzZvXFSlSxDsjhAg7BCsYshQtWtQClp9//tnM1gj69uzZY1WtdOnSBbqqxDOKyh0yR34GDEqOBTJzxt8Q0PJMYyzUlClT3Jw5c9zGjRvd+++/bx+DWoHgjYCPofFU2ZgxyAgDXhhwERBv377dqnsEgATDKYV9F5VT1hqS7MmuGBHicFTBSyM8zB5++GH38ssvu0mTJtkmLpkrFiJ5wURk2LBhtuAOHz7cmt2V7HC28SGzjGQVowa5uwmReBDMffbZZybTfPHFFy3QI7AjAGS2HhLCoFr3Mw6CIOm2225zAwYM+EuwxRaRJNULL7zgli9f/kfVjuRd4cKFbdQCA8X5PwRYGJxQuUPOijyT3wtjYiJOwsg3IwEfUv706dO7a665xuXPn99VrVrVXJf5/yeC74HfKR9LkEnFVAjxJwrw0gjZLGyUc+TIYVr8yy67zDsjRHJBNrZNmza28COXOVmpT6KzdetWV6dOHZNtPfbYY0lf1RQikSGgIfH73nvvWVUM2SOBD3sE5IRly5Z1Z511lvfRwYBArEuXLha8DR061NwoAfdfKnVjx441p0okqAwRL126tMuePbvtdy688MIUGctR5UTGSXWP9paXXnrpj1l8GTJksGRY8+bNrfJ5vGT5vffe60aPHu369u1re7CTCQqFSCYU4KUBHuQTJkwwG2UeihisqGIhkhEkPmR46THr1q2bLb6aBfk7yJaYjZklSxbXr18/c9UUQiQ2bK2oWlH9GjlypBmB8G/6khmmTpDEKIYggAEKQR5veT4RLFGtY8g7zqE8yxs1amSBF9U6AtZoBFTsoej9I+BDujlw4ECTtl555ZWuU6dO7p577vE+8q/g+Em1L2PGjG7VqlWSZgpxFKQVSgM8uDFQwJaXbJaCO5Gs0FCPLOn66693hQoVUnB3GGS3cdvDEEDDzoVIDqg+EcBhMoLsEVkiiS8CGIxYCPDmz59v/Wp+OEymhIjbLxU5nuWtW7d2d955p9uwYYN9n4yBGjx4sCWpqD5Gq1qGXJ3fEf16eBhQyWPAPM/Jli1bWssLMk4CwQj8vlBCIPskcFZwJ8TRUYCXSsjOMfyUZmE06GSShEhGuBdwk8NsCJOhnDlzemcEsBliU8SmhQy+ECL5wEUSOSFJ4Q4dOljVirlt5cuXNxkkPWXxfD4gnSQIJbCaPn26GUIhMZ01a5YlsGMBgR7BG9VDVA+sK2XKlLERDpHkGOsMv6tIACiEODpy0UwlPIiZhYNrIJknNfiKZAV55pNPPmlSRCQ1NMmLP+FZwXOChBCmAGz0hBDJCT1ruAzTy4YhCb1nmIQgNSTIouKPGUssVRDIJAmqevXqZaZQDD+nYhevZB3VxIoVK5pxC1VEXDpJkmHIkjlzZjNwadiwYWBNa4QIAgrwUglzX3gYXn311ZZpSo3FrxCJwKeffmr9EpgIIEEKmoFAvEFeRB8LJgXInXhmCCGSG3rdMF4qVqyYBTS4S5I0Rg5JPxyySSSTfrd+ENxNmzbNTOL4uu3atXMtWrSwICre4ECKLBSXT+SsyDIJOvmdKbgT4vgowEslZOSffvppc3yqUKGCrM9F0vLcc8/Z4kuigw2L+Dtbtmxxq1evtgDvuuuu844KIZIdKnoFChQweTsukoxaQBrJ84KqPwEexiZ+7TGoHj766KP2fXTt2tXMS4KSsKaPkREKBHV4HrDOINUk8JMbsRDHRwFeKqDniKbpzz//3N13333WRC1EMoKkCOtvqnb0Tpx77rneGRGBjRkjJHCJo5/khhtu8M4IIcTvgQwBFioIAj2cNglo6H+jZ48EEc9YRgdEcxwAxlj0AzKwHUkmstGgBU48P6lkEuTRe0eVE2krQV40fxdCJBoqO6WCb775xjThOAYynFOIZIWgZceOHea4hrW1+DtsUNiQAHIoIYQ4GvTd0WdG/xkB18yZM13u3LmtyoZCghcBXzTMWDBUadu2rbWbMLcUszgGswcRnqEY2dEKgOEL42YIToUQx0YBXip4/vnnbQBouXLlUjTgU4hEA5tqss8M8j7eUNpkBytvrNCx+BZCiONBZYqqVeHChW2Y99q1a91tt93m5s2bZ8Efz9v169enerzCxx9/bMEdxljjxo0zaX3QxzyxvqB+wPsApQhGMFu3bvXOCiGORAFeCuGBOmrUKGtApv9OiGQFd7M333zTlS1b1qRF4tgge2JTwowpkkNCCHEiCGpIIhPYjBkzxpw2maGHEQsVtypVqpjrJeYjJxvsHTx40D300EP27Kb3rnr16r7190Ubfh/0K/bv398CUn5+zGmEEH9HAV4KIWvGi03tpZde6h0VIrlgMzFx4kTrwSMTLI4PEk2MCxh2zu9MCCFSAlU9evMI9DAbYUwAvb2FChVyDRo0sFlxBDvHSyDh6MvHIfOkH7hNmzbemXBBYEfvIEPjhw8fLum7EEdBAV4K4OE4fvx4e9AyoFSIZGXXrl22SaAfgg2GOD70tpxxxhlmQ65h50KI1ELlit5/pJsk2Zo3b27mI7wlYGNoOtLLowV6SDMXLlxoexkSc2EeadOqVSvry6NlBldzIcRfUYCXAniIMgwUNyeZq4hkZsGCBe7AgQO2yMZyIG9YIbhjbhMBnrLNQohogOPm0KFD3YgRIyzAQwKOMXr79u2tleTwHjUCvmXLlrmVK1daewnJubBIM48Gzp/du3c3ySmjelBHCCH+RAFeCliyZInNqOFBKntekayQBX7llVdsOG+pUqW8o+J4RHrwmOH0yy+/eEeFECLt5MuXzxwmhwwZYsEdEnr61Kjo9ejRw236//bOBNymen/jv9tc+idR1xQZGmggJCoRpTI1cc10S0hUlErpNmhQxpvhRiXUFYWSIhGiiEwNFxFFZChTkVCt//58W9s9dTkOZ6991l77/TzPfo6z9z7O2Xuv9Vu/9zu830WL3Jo1a9yYMWNsHcKoJU+ePP5Ppy716tVzVapUcdOnTzfhKoT4LxJ4WYSNGQKPSDxNzkKkK7Nnz7bIMANxMRsSB4Z1gz48lWgKIYIAp16qi2655RbrS2OUACWYvXr1svtuu+02N2vWLHfttde6Cy64IKWzd3FYV6ki+f777210FV+FEL8jgZdFMFahoZnSBgaSCpGOMAOSaClZqDp16timQhwYMniUaPL+yWRFCBEUuG6efvrprmHDhmbIwmBw9iyUZxYoUMCGmZPFiwKI1LJly7qaNWu6Tz75xHoPhRC/I4GXRei9w6EK5yoh0pXFixebvXbVqlXdqaeeqtl3WSTjmAT14AkhggZjJ2bp1ahRww0YMMDE3RlnnBG5kTaIV0Qr4o4gvBDidyTwsgDmKgwaPf/8812xYsX8e4VIL8g8zZs3zy1fvtx6ONg8iKyB8x0iDyMAzcETQiSTL7/80m3atMnEXTLXba4ZVC1QOknvdhBGKAjZUqVKWU/hp59+amXwQggJvAPieZ6bO3euRYeuueYa66MRIh3hAk0PB4Nm2ShEoYcjmVCiSWmrevCEEMmCkQj4B5DBS5b7908//WR7JkY20CNHv3bt2rXN7TIIChcu7MqXL29D3zX4XIjf0Q7tABBxwlSCRfLiiy+2+nYh0hEa2hF3TZs2dUWKFPHvFVkFgUe0efv27baeCCFE0BBQYrg5IqhcuXL+vcFBIHDo0KHWztK+fXu3bds2c7t8/vnnXfPmzf1nJZb8+fPba6O6hIorra9CSOAdkBUrVlgG75JLLlHPkUhrGIvQoUMHG/KfygNycwqy/4jk7777TqMShBBJgXmlZLWoukAIBQn7JVw7Gc3Av++55x6bx3fXXXeZAAvqusG6SpkmM1kpR1UZvBASeJnCJuzzzz93X331lZlKsMEVIp2hLFOlmYcGGTw2OPSjMKdKCCGCZvXq1SZ8EEBBwoxgsnQvvPCCjZXq2LGjCbtChQr5zwiWU045xW7r16+XkZUQMbRTywSakmfOnOmKFi3qypQpY4ukEEIcCvEMHk6aEnhCiGRA9o69S5ABasxUpk2b5l566SVb3xhbQCk/612ywKU4d+7ctm9ThYQQEniZQmkD4xFoTMZeWIhUhAv8lClTrHTm7rvvdo0bN7YZdqVLlzZX2PiNEh6G4PL4fffd5/r06eNmzJhhJYUi+7DZoQePCLM2IEKIZEAF0hFHHOHy5s3r35N4WNMwVGHPBBiqkE1LJlRIEEQjk6gMnhASePuFGu6PPvrIviLwWDyESAUQDwzm79q1qzmL0Tt6xRVXuM6dO7vevXu7UaNGuQkTJtjMIHoyEHeUDjLj7s0337THn376adepUycrTcZWG4MhfnblypXmLCsOnhNPPNHWEWzDZQIghEgGBPgQePny5fPvSTyIKoKIXBsYB/Paa69ZxhDPAqqfRowYEfh1g2sYAo8SeDKKQqQ7f4mddGm1W6M0ipOfDRZRHr7GvwcWJMoZ2ITdcsstdh9DQs866yz7txBhA0tqsmyMMHjvvffc9OnTLZLKBY+LLSKPQbCUGhcvXtyddtppmTa7M0eIvo3PPvvMGuXJYiPsdu7caQEP/h+G51KGU7ZsWbuQk5kSmbNlyxZ3//33m6sdYpmSIt5P1p/4LbPlmE0aaxPvNf/Wey6EOBBUayxZssQC1kGUabKG0Xt322232feVKlWy6g9cO+vXr+/mzJljpZP05HXp0iWwdYvrE7+DqhMClSVLlvQfESI9SQuBx8aJTStlBJQrcKMJGEtdLMux1WVxwDwCgUfGg3Kqd99915199tmudevWJvCYI8MCmcy6ciH2B/bTHMtk47jAIiAKFixoN4QXzq9k3rIbuWWJwJkMN9kPPvjAhN+GDRvMDpuyzlatWtnvQvjp3Mgc1ht6RBDkfHZff/21RdjXrFljX1mH9gfrD+MpEOhkVVmTKINiTUIsyuFXCPFnLrroIstqffLJJ4GszwQYH3roIdezZ0/7nt677t27m8BjPEOtWrXs/goVKrhnnnnGVa5c2b4PAqpORo4caUFJBeVFuhNZgUdGjg0TIo6Bm4sWLbIMB5kJytLi6XxKpshy8BWBR3SdjTKZvngtN5tZHmeBwuoX0UdPHpstbWhFsiG7/Omnn1pJzOjRoy1wQRkx5ZQILY5PygGDgvOBgbKIPaKlCxYssCzh9ddf76pVq+bOPPNMzYv0YR1ic0UQadWqVebKy2fHeoQZAUKNtYX+GKLc+8usIvxYl7gh7FmbEHSsR+eff7595pTaIrJZ38jwCSFEPIP34YcfBjImgWA5Pdv9+/e372kFoFKBaxBrXzxryPfdunWz2XhBQCCfDB7XxbfeeksZPJH2RFLgIew4wXF1YjNFtJys3HnnnWc3IjtEvOOuS2ywWHwQeESjWJToYyKqjuBjY8b/Q+aCrwhC6soRfNdcc41lMVQuJYKGCxjCauzYsZZdJoNGOczVV19tJZMlSpTwn5kcCIJwPkyePNkitYgXzgX+HkpzyDSl80gFNlWTJk2yyDkZUMpdEb6sPxjcYFtOlJu1B6GHyGMt2hdsoliXEHaIPNY4eij5HV988YVVKBBwQlwj9ui5RPQLIdIbSifZD7399tu2Picagk+PPvqoZe0AAUdGL145krGygPl4jzzyiP9dYqEyAoHHOkvPH8EuIdKZSAk8MhtsfslqzJs3zzZLRK+IcJ9++ul2wrOROvzww/2fyDrxviTE3n/+8x9bLNnQIhgpQWjQoIH1N2lGmAgCAg4c15S40A934YUXuhtuuMHKbxB2OVmex9/GuUA2j+Z6xAxlODh2IkDT7ZygYoDPChFOUIiNDp/TBRdcYOsQoo6AExUE2YFgFEEo+i3Z1JAVpM+G958KAzK6jRo1siyfECI9efzxx93AgQNN9LAmJBoCj//+97/d3//+d/ueNQeTLtY4iF+b8uTJ4x577DHXrl07+z7RUPKOwOP34ZtAq4IQaQ0CL9XZuXOnFxNcXr169bz8+fN7MWHnde7c2Zs/f763adMmL7YA+c9MDNu3b/eWLFniPfvss16ZMmW8E0880YttaL1+/frZ35JuxDaYXsOGDb3YJta/RySSH3/80bvvvvu8IkWKeGXLlvWGDRvmff31197u3bv9Z4SDmODwYuLG6927t1e8eHGvdOnS9remC6tXr/aefPJJLya+vdy5c3sxMef16dPHi4k8b926dd6uXbv8ZyYejoXvvvvO1qVRo0Z5l19+uXfsscd65557rtepUydv8eLF/jOFEOnEkCFDvHz58nkjR47070ksv/32m7dgwQKvZMmSJAu88uXLe5988on/qCUQ7MZaNGXKFP/exMPvrF69uteqVStbC4VId1Je4G3dutU2VQUKFPCOOeYYr2XLlrah2rFjhy08QcKGbeXKlV63bt28QoUKebly5fLq1Knjbdu2zX9G9OF9vummm7yjjjrKFnGRWBANNWvW9I477ji7eHFsh03Y/Zmff/7Zmzp1qnf22Wd7J5xwgteuXTsTqVHlhx9+8AYNGuSdc8459jkVK1bMRO7GjRvtvUg2BLQ2b97sjR8/3oIuRx99tP1NXbt29davX+8/SwiRDrzzzjsWhCYAHRTswwhCsgc44ogjvNdff9379ddfbR2K39e8eXN7XlDMmjXLq1ixonfvvfcG+nuESBVSekdOlIboNOKCjcy0adMSnq3LKkTO//a3v5nIZKPH9yxwUYbX179/f+/kk0/eG6UTiYH3dtKkSV6JEiW8I4880mvTpk2gGaAgILN71VVX2d9fpUoV7/PPP4/UOUEAacuWLfbZHHbYYd6pp57qPfzwwybswgJZVTJ65cqV8w4//HD7HBYtWhT5tUkI8TvLly+3wNNdd93l3xMMBCMRcYi52rVr2/ddunSx9Z+KAr4PEkRl0aJFrWqCdU+IdCcld+RsTlasWGElmWTNGjdu7C1dutR/NOcgs8IGj3IINubjxo2zcs4ogpCm3IJyjLi4k8BLDFycyAiddtppdnvxxRf9R1IPRCnnBKXTlJdOnDgx9BnIrEBmjrKkSpUqeSeddJL397//3fvyyy/9R8MHperdu3e3dYlN0KuvvqootxBpAOst5f0Ed4IOPn3//ffeyy+/bAKPCg6qT3r27Olt2LDBf0YwcJ1hfWMtpnIh6OotIVKBlNuRI+7I1JGK/+tf/+rdfffd3tq1a/1HwwF9RyxuLKoDBw60MoUowWdAqeCtt95qr1ECL3FQ8vrKK6/Y8UNWesaMGSmfbfnll19MUJxxxhnepZdeaq8ppzLtiYB+uueee84y1/QZsoFJhUAOnwNBp8suu8wCY6ydBMa4XwgRTTi/qTJg/aVcM4rQKlO/fn0TsRn7/4RIZw5/OEZsY54yMMsO219cLXHpwzUpu4OcEw3Omtig4yzIEGps0LFGj8ooBez5YyJ2r607NvBxUuxwChW7d++2GT44jWGnz1cGlaf6TDNcNJnRhosa7rPY+mPXzZDunHT/PFiYaYeDbt++fd0///lPcwjt2rWra9GiRUqc23wOjFFgvAvHGk6fnLt8Djh7anaeENEjvsa+/PLLNrqGWamptO5mhcWLF7tBgwbZa8M5nVFWQqQ7KeVfjmBiUCYCA+tf7Hb3NzcqJ2HxvPTSS+1vxSq4X79+7r333rNNVaqzZ88eG0XBSIqmTZuaeBXZx/M8s7h/4oknbL5cly5d7GJ15JFH+s9IbbjgXnfddTYjCZH05JNPuq+//tped6rAyAPmPY0fP97ddNNNJvKuuuoq/9HUgTl5zKx68MEHbcQCIpV5fZzbQohowX6Ec55ADnNLmacZJdhXMQ+U+aAE10866ST/ESHSm5QReN98843r1auXmzt3rm1M/va3v4U6as6svfLly1uGkX+zcSdaThYglWHWGQPk2eAyWFkkBmande7c2W3YsMHdddddrmbNmu7oo4/2H40GBAOaNWvmWrZs6T744AMbertt2zb/0XDDnLmePXva392mTRv7rMhKpionnHCCza3iM2CIOoKb10ZwQQgRLTjfmcOJECJQFSW4hrz//vu2HpcqVUqziIXwSYkzYevWre7ZZ5+1zFHr1q3djTfemBKZDTbobNQpKWXjft9991mUKVVhk8tGkMwpEUGROCg3ZlArwoEB5lEtMaGcmuPnmmuusfLl/v37+4+EFyLeZOsYXE45JsGNKESJWZ/IQN57773uu+++s6oIsquplFUVQmQOQeU333zTAjhcwwnQ/vjjj/6jqQ2vbd68ee6tt96yPQmtMUKI3wm9wOMEHjdunPvXv/7lateubWIpd+7c/qPh59hjj3XNmzd3jRo1cvPnz7e+qlSEkkwi/ojratWqWVZSJAb6GREPCLubb77Z5cqVy38kmlAqRIkg0VZEBVHlsLJr1y43cOBA98ILL7irr77a3X777e7kk0+OTA8L61P9+vVNdFO+RRAKsSeESH0ITjVo0MBK4xF1hQoVcm+88Yad61GA8kxaYAi41a1bVy0jQmQEp5Uwg/X4tddeaxbrs2fP9u9NPbAkv+SSS2zo8FdffeXfmzosXLjQhlZzyGR2Y94OLqIia+AAyxBqHGGZG5dOTJ482dwcr7jiilCOTvjtt9+8wYMH2/w4bL9xaosquIAyIPj444/3mjRpkiMD2oUQ2Yd1a+fOnd5rr71mszmZzVunTh2bzTt06FAvd+7c3u23326jU1IdRjUxB5kxNanszCxEEIQ6g0f0HFdBSgrIbpx77rn+I6kHWcc77rjDIuZkIXltIr3hGKCvlCgrhjwFChTwH0kPLr/8ctewYUMzl8HhjWx9mKBXpUOHDta7QsYxlXvuDgRZY7J3RPvHjBnjhg8frlJNIVIMrilURNDH3bZtW2tloXeYcxon76pVq1pZ9uuvv25uxql8jlNVxJ6qYMGCVjovF2Ah/kioBd6qVausfK1s2bJWnpnqpWvXXnutOSNOnTrVTZ482b83NUCgUgKBE2LGW4kSJfxn/E69evVkvpJFZs6caRfaypUrW+lrOoLJB8KWHlv6Q8ICm4cHHnjAXHr5GxnrEHUob+K1lilTxj3yyCNm/COECD8INUqrX3vtNXfLLbdYz92VV15p3xNQjhvSMSaB/mdKzIcMGeI2bdpk96calGYyFmHp0qX2OtlXCSH+BGm8MMJwzscee8w75ZRTvB49eni7du3yH0ltZs2aZa+JsrQolOTdcccdfyjRFFmD0sxGjRp5xYsX92JCz783PYltNGxo+H333ReageEMMqe0qV27dmlX+jNixIi9ZU+Uegkhws3cuXOt7DIm4LyKFSt6/fr18zZu3Og/+kfWrVvntW3b1tbcJ554wvZaqcSvv/7qjR071itcuLBXpkwZb9myZf4jQoiMhDaDh3NmbJNlZZmUDaXCIOGsQLYG05WFCxfa0GeRnjBugqH9jPtgnEY6Q2ab94BybFwccxrmbRIdLlmypLmaplvpD5/H9ddfb1kA3OmEEOFk+/btZkDXqVMnN2rUKMtm9e7d28y6MIPaF/nz57fSRkrP+/bt61588UX/kdRg+vTpZs7Fukzp/Omnn+4/IoTISGgFHuVr9CZddNFFkSv5u/XWW23eVFSGn4uDg+AF4o4LFCWtxxxzjP9IekIZJLPxVq5caed9Tvbi7dy50xwzKU+kXJGSpnSDPmFKNJmdReksA+mFEOFiwYIF5n770EMPuc2bN5vYYc1iz8Q5nBn043GO582b1/q/cSpPBeiLRsCuWbPGRjYxhkoIsW9CK/BGjx5tGwyMGKJiSR6HpuAKFSpYz1GYLeKzAsYMZDziN3Fg+MwxFmHcRPHixZNyfCOaON7uv/9+y4xnxvLly+15FStWdJUqVbJo6fr16/1HEw9C9/zzz7eMGbOamAeYUzAwl5EVjEQgGp6uEBXHqIFNJH08Qohw8NNPP9kaztiikSNHWk8dvdyNGze2vUVWryflypVzzz//vM3mRSRyTQoza9eudc8884yt0czuJDiqoeZC7J9Qnh04QbFgEV1ikxk1cLZicWLBYgOVylDuwYDR+E1kDkJr8eLFJqJq1Kix3zKaREIGhvmLlAc//fTT7ptvvvEf+V/mzJljhi/8jTgp9ujRwz388MN2vAYpvDBaueKKK9yiRYtyLOjBxonh6xs2bLCSJzKL6QqbRErjmVU4adIkc9yLQ6b1448/9r8TQiQL1mCydh07drRKkFdeecXmdJ5xxhnu6KOP9p+VNRBHXBNeeuklMyvBnIXgVhhZvXq1u+eee6yctFWrVuaaedxxx/mPCiH2RSgFHhsKRB7OmUGVr3m+6xROUpQ0sDgef/zxtqmZO3eulVAGBRmLiy++2AaPIvBUppk+UErDkFkuyGRJgoxA4kJLJq506dIWoeV4z+y4ZuP+xBNPWPkoVtpk1KpUqWKRXob0MyyXaG8QkK2/8MIL7ZxA/ObEOYGopTcWoUlZeDIyq3wevGZuWYEAwY4dO2xzFzQ459IjirhjTWTN5HNp06aN2a2z2UIUCyGChV47emJxsiajzld6lumVJWB8qLDG1alTx0QiLTE4bjKyhvOa8z2nYb3jeomo4/W3bt3a3X333Rb8F0JkTigF3vjx400EsdEKCkrOBgwYYAvbzz//7E466ST7SmkoZaFBZ9ZOOeUUE3n0+oTJHl4Ey7fffutmz55tAi/ouXeUzHIhZEN+oGjnL7/8YlkZIriITrJXnIOAQIxnHukbDYpTTz3VMkZk8RCjyQShxTmPuKxVq1bgGwgCWBwLGC1RatWlSxf/kX3D57Nx40YzGCB6TzlW0BD0wn6cTSCmQFiqY3bF38rnxN9BZpjXwfEhhEgse/bssQDLgw8+aH3KiLmnnnrK9i0ECBMRhDr88MPN+I1gN/sg2i4ohWSPlJMij6AX5ZjxIBPBStoFChUq5D9DCJEZoRR4lIkxk4nMWhAQhUZEsslmw8pMOpqTqV8HFpYRI0bYv4OCDTTOgevWrbObiD5cLNmkkylDNP31r3/1HwkGMuD0UfXp08d+X2YQsf3www8tyMG5l3HmJOcJsJGnRy6o7FrhwoXNNfeTTz6x9ymZEL0mS4mpCjPvshMVzwyEHUKZ7BeRaIQaQ4h53/cFwpOyLJ7DBqdJkybWf8P/kwzYTMVLZ7/88ku7r3r16tb7QxZv6NCh9ndhfoAIFUIkBgQWAWfWCMooybQRlMakLU+ePP6zEgPrHYYlvXr1MndNrhmPPvqo7Y2SUS2QESoUCLYhMhF3VHEhcO+8886Ev24hokzoBB4udmy2KJE6kBPUocJGpGjRorZZogyJaD2lmdwXJ1++fP6/goHXhsEGpRfcRPThuKPvkgsWQiIoEbEvKD/ODARDfEQBUdx99Z8h7Pj7g7rgc/HmHCTgwaDxZMLrQuCVLVs20AgxWdV///vfrn///tY/c6ASx23btllkHSt0fo7+wGTCscCGD9c6ejnjmTqyB/369bM1lKwiQ+HJ8iVLeAoRVcjaUeVBdvz222+3TDqOlz179rSgNxm3IOD/JWNPmT6i8o033rDqD4QegfCgy7G5PhIo+uc//2ntAPR/U7ZPxpIqh6D2g0JEldAJvHifUIkSJfx7Eg/lan92yGODF++DwUGvWbNm9u+goPyNTAnRqmRvZkXOwOaXEkACCkFn7w4W/jYurgeC4EtQIoMNBqY9lB3R65essj/WG8qkETDYhyNqgoL/m8wqkfKMAaX9weYOt1XKIvmabCjJJINLjySZR9arOAThKOdiphbHNSYIY8eOzZH+SSGiAOsrAR2y+5xLZLCYVde2bdukXTMov+a8JoCDwBo8eLCVY5NFoz870UKP9Zf1A2FHlo7sIfsjxj4gatmrBSVqhYgyoRV49OMkAyLkDPPFKZBFplixYhY1y8rmKzuwiaUMjk1sVg0WRGqDiKI8M4wCj+hpVvreyLAHGcnlfUEE8T4lKxvEa6LHgwwixjLx3sMgYH0hCs+mJStBLNYI3FYpk8wpl1qEHJs+3E3/bLJDpQNDlZmlxTFEJg/xKoTIOuwDqKCgpJ69COcSjseYYyGyki1wCLRh4MLfQHkoVQ2UhuO02bRpU5tBN2/evGwF4TABY+Yors1kDMnUIXAJZlGKyrpCwE0IcWiETuBxgiPw4v1wQUKfD713N910k9mjs3Elk0f0LEgziThs3oiM46yoqHf04aLNZ00G+UAlk+kK5wSlOPSfUKqUDOh/o88NccnGJlkcTIkuxjc5FcUmIMEGjw3ZvsrJWcOYxcUGkPcvXlKl0nMhsgbl1wgqgs2YPDGfjuwdZmw5BWsOwR1G5CDE+Jv4nlJsBB7nPMGqrl27mqcB3gn7G8FD5p8S+GnTpllmkCqGyy67zHXu3Nn6i4Hs3ahRo6zHMMg+aCHShdAJPARWsgQeiycGAdS3x6PpCC0iaWTxMJUIEnqxKNMki0gWQUQfjFbYEPO5i/+F94X3J1nlmcC5h4EIa44c2v4XMpu8N/RGZizRzAilpPTqYWXOWA1mKGIKQe9eGEBsPvvsszZQP14eT0lp3DhGiJyAgDbCjiwWlTyUJ9Jvi9kU5dFhgMAS5z8+Bbj+MjOPc4nznCwePXvXXnutiT16yzm/qFSgpByhxvd4HTDTGIdySronTpxo91H2iakWY1jI3JGxI8CXCHdQIdKd0Ak8shxsgpM1ZJioPREjMngZZ8og7nAVDJJ4VJ5SNF63iDbxDF4YYYOelRJARjvgdhk0vE/JOic4/xikS2lo0OMRUhUG8iOE+Vwys06nZPOdd94xcwacN9kUBum8eiD4Wyn3xbSBzCJVGxzrBNUwcWCuFsY3QiQLjknEHNkqBo1TLUTWjuwWA7zDIuz+DKKLPQtrAeZKZO1YD8jA0StHeXajRo2s/JzgNVURvE6EH+tAhw4d7HmUfNIOgzikty8+D1aiTojEEjqBxwYB0ZPsyC+RJxaf+CaXsi2iSkHCpofIMpvKjLb0IrqEVchzQS5Tpoz9m7+RLPqf4SJMNofIa9DwN2QmJBIJ2ULOd0pnw7q5ymlYnzhGcFDd17GREd5DyrDoyyPrx/BkNoE5YSaFoGMgNGVmCDns1ykLi/dZUlY2depU+7cQQcM6w+BuslVksjhXKHfk/DjzzDP9Z6UOVFtcd911JtRw26TUlCwf/bqUdHOjpBPHYMxieB49fFRM5VTJuRDpQugEHtEhTnwc7ZINZQU0+8Yza0G66QHlTmyYWCSjsrEkG0L/VFhuZGZwhySbkNM3XAiTWXp4MFAWU6lSJdv4YrZChiNOvCyP84ESt2T0DyIoOA+TQfwzUV/k/uG94Rjh/M6K8Gb9xJCBLBkZM4wjKOtK9gB7Amgcswg8jikqNigLi/c2se5K1Iug4ZyhHJP5kWSTyX7h1s0cSRwydQwKIRLNX2ILT3LC5FmE1P3FF19sTbgMA042zHSiTpweDUoocLBLNGwoER30qWBBfMMNNxyyBToCMdmDSDMDo5pkD6nODCKmXFjDkDkjY0v/As3lAwcOTKqTJvPd6HUANrhEWzPCMrBw4ULbbHz88cfWUI9RBiKLzTHN/5QTcT+OikHB7yayTVkPBkgEP4KGnlteG5kd3ptkcdVVV7lJkybZv3GM473NjHvvvddc7YBjKJmZp3Hjxpn5FJ8Nwg3RlhUQhB999JHr3bu3Zc8o1aK/mYqJnILSMYIZlI/RO8RxJrc+ESRUAw0bNsyyW5S5t2zZ0jJfBBpUmiiECILQCTwuusxdOu+88/ZufhINi+2gQYNMSOIElbHvhhID6uARXKNHj7aStESD2KCEiU02ZUv0G1L+dCiQXUmEWx2lsbwPYbnYkDHAkS9eShUGsitsEL/0J1GewqBrMsbJgKAFhhfxTBx9EgiFP48i4e979dVX7bikj4KvnI80x5P94GcIRgT5mfC34qZGgIdZTMnoxUXgISixKGeznyxSUeCRfaC/7mDWKwJavMfMuSJzwfFE+SZBh2RC4IkgByYWDHHGAIL3kxEUKhcTQcC1mbl2I0aMMEOfhg0buubNm1s5vAZ3CyGCJHQCjz8HgUfmgNlUQUAEmkWX6Fn16tVdu3btrIyHiz8bGLKIr7322v8MQ08UvEYWexyzcJOi+RgHupyEDVtWo/LJALObsLlpZdf5krJHHFs5vp555pnAN7jY1nMcU+7M74zD6yhevLgrX768DZPNWIpMwIGeJXpC4o62nCecMwQ9DjUQkVVef/11E1rcWrVqlZRjknWGrD2/j7lTySIVBR4CmADBwVqYs+bRj8e6S88Ra/xjjz1mQj4ZYN/O+0dwj74ggmxkhymT437WfxFuCBQQAKLclxECXKvDDBlr+vonT55sayxrC+sMbSjK2gkhAgeBFzZiGx8vtpH0YptS/57E0qVLF0St3WIbFS9v3rxewYIFvXz58nmnnnqq984773i7d+/2nx0MGzZs8Jo3b+5VrlzZmzNnjn+viDI//fST16tXL++ss87yJkyY4N8bHDFB6a1Zs8aLbW73eeMYjG10/Wf/F479TZs22c/GRJ63ZcuWfT4vCAYMGODFBKg3ceJEL7ah8+8NlpjAs/M/JmD8e5LDmWeeuXcdigk8/959ExPeXtu2bfc+Pybw/EeSw/Dhw70CBQp4I0eO9Pbs2ePfe/Ds2LHDGzVqlBcTV17RokXt887O/5dV+B2ss4888oiXO3fuve8j6/+tt97qrV+/3n+mCCusWRwzfG6dOnXy7w0frPPPPfecV6pUKTu+WrVq5a1evTrwPYUQQmQkdCYrQMkMQ44ZXRAEzG2hRIhZM0BvFPOvsPnFCIPM3cFGqA8W+uawD8cimJuIPmSjKMvEaIJsRtCQoeC4ZqzBvm5k5vZVmsaxT8SZn2X+ERm/ZJSwcR7GRKeVZeLUmawoN6+NzCQlqkH3apKFYG2j/zZjhQLVAzNnzvwf91D+zd/1/vvvWy9bHCzV9/X8oOBvoJ+O0unsmN/gVEr2hUwMfzdzSOOlwEFCWTGloWQgGbgcz57zWfA+Zsxwi/DBeUPrBNnXsMLxTLUEFUFU5XDO0PJBSTDl8EHvKYQQIiOhFHj0+bDpol/pQJbch0rXrl3NrphNJWVplO7Q+5MMJz0uVlh2b9q0yZUuXTqQPj8RPtgYY6xC6SmzuTTc/o8gehE99Chmtxz2YEDcYfqBGQ+3IMFogd7fxx9/3MoU4zfWIEpEmcW5YsUK/9nONoyUD1KyyoYx48/w/KpVq1oJWJCwXuFIy5pMr24i3E0RWJSnIroGDBhgwTXMT/hdQcPxxSyu+FB71mLcdkU4YZ0kIEtQI6wQsGXIP4ZU9HeyhyFAXb9+/VD1kQsh0odQCryiRYtaEzLZNHrVokY8O8kGo1y5cv69Ih0ga4aBEMGFb775xr9XAO8H7rJs/nmfkgUCr2TJkibugrbxx5mUYBJCdl83Non8LXHI+O7refHbhx9+6GrWrOk/Oxi2bNli4ptsbqLmdZKdxbkSsys2w9jH0wuHi2oyRB7vK32PQFYxTP3H4r8QgGWG2uzZs/17wgXXcrLv9NfhjMlxhBilx5rgrXrthBA5RSgFHuA2RVSbUp6oQTkSr6tIkSJ7h0uL9ADhgqhHyJCdSUZ5XSpAqSEZnM2bN9s5kcwMHhlVTGcQMRjLiD+C8F2zZo2tV4kSeHEQWmyOGYbOJh4jF6zkg6rciIOoJ9ACuONSsizCBWsCRkIcD3FzoTDx7bffmjsmmXRKMRl7gFPsrbfeGvgMXSGEOBChFXiMLyCSywKfcehyFGCmGJsmypOSmakQOQ/9ZfR+0s/E8HPK7sTvWSKyUYgIMjvJ6PmLQ9SdPljOSXqxgu7DSzXYyFJJgRAKopycSgZm4+Ewy2fQqVMnG4pOgC87kP2ZMWOG9VzjDJvxXENA8v9TPlehQoUcncsn9g1BMFx1mzVrZtmwsEDWbtasWdY7es8999j6wTH21FNP2biVZK5dQgixP0Ir8LjgYnYyb948MxiICohVopH0YjH0V6QXlOwg8MhS0WOKqYhwljljE864kCAHqe8LNmSUhSM04r2x4nfYzCLuWLfIeAU1lxDh2KRJE8uAkP1A7GGHnx0zIoIGlPcxjoH+asYzLFmyxB6jFBTzC4QDfY9Y14vwQM8nI174fGrUqBGaPjaOKcaZEIRgpiOVRn379rVyXwVrhRBhIrQCj00XTlRkOhi+TBQ5CrCBwUShadOmoYpKiuSByQNGG/Th0UeVjJ6jMMM5Tqae9+GSSy4x989kU6BAAev9I6Ck3sj/woZ24cKFJoDJcgaZnaBsks38yy+/7KpUqWJzHDt37rxXlB0s/K0IA0w6GLROXxT9fhdeeKG76aabTLxSHsrvSoRxjEgMO3bssF5UgmGUPQYVVDhYli1bZqXEHDNkgJlx9+CDD9o8UWXthBBhI7RXNRZ3IsYIoffeey/UDlpZBWE3cOBAMyu44447dFFIU4466igTMmSMEPxBW8SHHTJmvXv3NuFLiVNOGBMQfWejhrvp0qVLVabpQ2ANl07Eb0bzl6BgTURIDh482OzmKdHj65w5c/xnZJ28efNa6ScOpPnz57eSTMQiTsn0TcVdD+nBFOEA4URZLeXaZMcYLxAGoxJ67BjfRD8gw/lxYaUCR0PLhRBhJdRhSyL5RPC4AHMxxoQhVeHCxSYWO+UuXbrYnC+RviDw2CiwkcFWO10ha0cJHecHwRx68HICMj2MI0DE4HCrMs3fe9hw/CSjgvBOpnEE4oyZdfQ2kUHEfZSSZrJuWYWNN2KRTAulnhgacSNgSGYQ8SAL+3BBNp8y6eHDh1sZO5lVPsc/iyiupfTpB+myzZpE6ThzG5nBx/dkgQk+0CesY0cIEWZCX5dCv9Itt9xi/Tljx45127dv9x9JHcgGsDnBXIXSvNatW/uPiHSFzQF9G+ecc46V/KSreyPD/ocOHeouvfRSK5/LSchSIWTIIMjh9PfMKuXxHKOVK1f2700eOHayVvbr1882+mTdGKeQ7hlvESwEnTj2OdbI2lE9VLduXQsMMApBA8uFEKnA4Q/TyR5iKGcj20X9O+UR2FljwpAqPRNcLObPn2/RaFzciDzKsU0AGRGEHmVobCgwFUqnsl0cE9m0EwDp1auXlWjmJKw1ROkZYYL5Df1g6TwfDYMSStMolaOUMSfWXDbTCEyODfpVhwwZYtkcxlqoCiJ6xMUVfZNnnnnmH258/nE4HurUqWP9lIns0fv5559trh3GKQQWGNfC6I7u3bvLREUIkVp4KUBs0+VNnjzZu+CCC7zSpUt706ZN8x8JN7GLlbdkyRKvQYMGXtGiRb0XXnjB2717t/+oEJ63fft27/rrr/eOO+447+233/bvjT6c048//rgX28B7Dz/8sH9vzrN161avffv2Xr58+bwxY8b496YfK1as8GKbaq9q1aresmXL/Htzljlz5niNGze2Y6Zly5bevHnz/EdEOsB2JX7r1KmTf2/i+P77773Bgwd7F198sV2vW7dubcfcnj17/GcIIUTqEPoMHhCxJXNHxoMsHg33lAyFPaKG1XOfPn2stINyvBtvvDHhg4JFakPW6IwzzrAsHk5/zORihEbUmTRpkvXe0SNFtDwmcP1HchacHFlrKAmnVJM+n7C4+CULMqqMFViwYIGVD8dEnv9IzoIpEUY49GRjcrF48WIzuaAiQoZV0YfRGXG4/lPxkCjoNWV8ERlizndM0Nq0aWNrs44tIUQqkhICD1hkixUrZhtByoawmMcUIaybYezFe/ToYbN8KCXhgiHHLbEvOIZx9hs2bJgFBTAXwGQiqtB3x2btu+++cwMGDAjduBDOU0rFKFHEaCSRG8lUANOfxx9/3MQt5WkEIcICJXMEQXAiJiiCSRHXBDbiYfo7ReIJQuDR04+zNcc7xxKGKvfff7+VZzObUddrIUSqkjICD+jHOPvss+1CjjEDUTec0MgChAnEXdu2bc0UhhlLXDCIMutiIfYFxwWubMAMMDYd5cqVi2TmiP6WRx991JzynnrqKXf11VeHLkLO50Gf78yZMy37XrFixbTpmyXAwPxRjEzIZpA1Cxv0RXIdIDBAvyRVHRxDfE8GVkQTBtLfeuutdrv88suzvT4uWrTI3FTZS0D//v3NrZX+ThmpCCFSHr9UM6Wgj23EiBFebIH3YouxN2zYMO+XX37xH81Z6F2JbQ6tp4o+kY0bN1ovnhAHgh6Qjh07erENrPfAAw9YP1iUWL16tdeiRQsvV65cXt++fa3/MMx8/PHHXkwwWE/O119/7d8bXX766SevXbt29pp79+4d+nWLPs758+d7NWrU8I466ijvzjvvjNw5IxLPzp07vSFDhnglS5b0DjvsMO/mm2+2tZfjSQghokJKZfDiEK0lglupUiUbP8CMPEqqcNqiPyPZmbLY+2juW++++66rX7++lZ7Rw4IzIFFGZe5EVqDUjMwRM7so12QOJGNCouDkyDnB+UC0nHODKHzYXRApA8TllFEBK1assGw8pbRRPJ9x+GVeHFk7ZjQygD/sTsV8DgUKFLDRM2vWrHEjRoywDPFll11mvc5ad0VGcMhllu4DDzxg7RNcm5lrRxmyrtNCiKiRkgIPWIyLFi1q5VOYU4wePdrNmzfP5cuXzy7u2S3fyAoIO0qZ6AekQbtbt262SWej1LFjRzVni4MG0UOggjlsCAsEBb2nqWzOs2rVKttIDRo0yDVr1sw2VKliJEO/FyWz48aNs7EOfM9nEiUYZE5AAVv48847zz3//PPW65YqYL7FHEWCbAyppzeP6wJ9rBpGLYDRCxg7tWvXzn388cc21w5zp+rVq6scUwgRSVJW4AEiD8e7Cy64wMwQmDeHuxpROjbEbJaD2hizKeL3DR8+fG9PEY3fzMvBnECIQwV3WETdt99+axtvsl8c59yfSlFmzsnZs2ebEyPGHU2aNHF33XVXSvWzIRAwvWEuHr1evCayqqksuDNC5g5BxHxO+pnJbNDTnGrZDER3tWrV7PPimBszZoyZ5RQpUsSqOkR6wvmKGywZaa7TZOVvv/12CzKxxiprJ4SIKikt8OJwIadMhyZ7yoowRuACv3HjRrd161az/Sajl12XNS4WK1eudLNmzTJ3TLIS/C6suzFV6dSpk5WO6qIhsguCDqMVjmfcHDEU4hhmw5oKJZsIItxuH3zwQROoZLTZWCEiUg2y8pjgkIlE5CEiOM9T3dCDdZGsBg6CHFsIcYJlqZr14u9m8DXnTryqg7WYjTzlzukAVSVc8zjntm3btvfGtS/dMlUEyLhOU1mDYVKDBg3cfffdZwHYqARohBBif/yFRjz/35GACxsCjL68yZMnuz179lhEGhvtsmXL2mgFNjFZFXu7du2yjCBRQObvLVu2zH355Ze2gUVUXnfddWaprFlMIggoAUZUUE7Esd2yZUvXokWLUGfByGY/++yzbuTIkdYniytjqpdC0eNLKfY//vEPe31sFgnopOrMQtZF+u0GDx5svUmIOxxNo+JCyTWAGaR8vfbaa+0YpPQ5KsE3Pj8CDsuXL3erV6+2tQEHVD5LBB0VJhmhXJXAENeokiVLmuAtUaKEBS5SrTLgQPDeUIb5wgsv2NrJtZ85tLVq1bJgsBBCpAORE3hxMKr44osvzAqZuVvMuCFinT9/fruxkYnbatOon7GvBkH3ww8/mIjj/+GCycWTr4jEiy66yHo+uEDSBxgFEwwRXhAXCxcutIzxxIkTLWPMvCY2rsxqCgMsI2vXrrVsI+WYBEGwHOfGxjoKsHkmM0S5F71elG4yrJ2+vFSCtQxBx2vAEr5r164WrCJTGRU4ZxA/zFkki0M2nEwO63fYzWP2R1y4IFr5isDbvHmzXasotUXEIdwQa/RQksncuXOnnZd8BfhrYqQAABbBSURBVCpQCG5yzWLt4Gfou+Tz57rG9SyV4RpN5QDBCzJ4rJMExXiNCsAKIdKJyAo84KXReI9JAhFOytzYIHNhXLx4sW3YuBhywct40Sdrx2PcR80+GcCqVava7B3EIeVMUXXTE+GEYznek8emleOaTQtulDfccEOObl7YXJIJevHFF80chjLMLl26uNq1a6eUWUdW4HNgU80mEmFEBo9ZWjfddFNKlDbOmDHDXAQRCBjeUELLrLtULcvMDEQe5hqY+zDMGjMW/o2YSRUQbwQouW4x848Zq2T1uTYhyHAMpScUMUfZYXwd4CvXNY5XWgt4LyB+PeTz/+yzz9yUKVPMgZRAJ9c0KgOuuOIKd9VVV5koTiVYezgXaZvgdVCOyWthDdK1WgiRdsQuAGlDTLR5e/bssVtMxNkcrs8//9ybPHmyF9ugerGNszdhwgT7nse5xS6O9nx+VoichuNwyZIlXqtWrbzcuXN7sY25V758eS+2AfSfkTw4PzhvYgLBi20ovZjY8bp16+atXbs28ucLr2/evHk2S+v//u//vA4dOtjMy7AS29h7MXHjxcS3/b3MAQvL7NCg4bN64YUXvIIFC9oMxldffdV/JLwwq23cuHFehQoV7ByPCTrv5JNPttmqY8aM8TZv3rz3uhQTb/5PZR1+js+f69vSpUttLmVMMHoxIWS/i7WFmZU8lgowFzdfvnw2f7Zp06Y2j/ZQ3hchhIgKkc7gCRFl6AtlJAdReKL6ZPQaNWpkboJk0XAPpBQrEdkZysOI/lPqRekz8ycxsSD6j1st2aD27dubCUw6QfkbvXj0+vDaMZOh14e+ppzuOYxt4s1wg8oFXDLpIaZcln8z6y7dshrMKeUYpUzx/vvvD938Mz4vMnaM+3nyySetrYCeMbJp9N3i0hz0MUXGk5EguENTFk4WEPfb2267zTK9YTInITNJ/yF9sWPHjrVsOp5xrEUafSCESHck8IRIcejJwdSEflM2aJRM0h9KnygmJ5QYU56G4KPPiq+ZlXTSqxov5ULQUZK4ZMkSK+/DjY6+VPp3uGGeQpkovy9doWyO2XGYytB7iHFFmzZtTETlRI8uQoHPiKHf/F3vv/++lZYjFBA46WwPTw8l7wHvDQZZlBJTzpfTJao4PiPAOY/jJYacv5iDUCqZbMHCMT1+/HgbHs+6AjfeeKNr3LixmZbk5OgJyk2ZSUnZaq9evWzN41xjDEJU+n2FECK7SOAJEQHY9ODwSvSfzB5Ztm+++cZuGC9gLsEmn8weX+OigwwBYg8hh0EBIBAxGKJXFaHABo9lgp9FsDAiAGMRTEaI6mfsX01XEMVLly618SxkVMl+4NhLRhXrfrJ7GFpkJqyzA58Pm3I+b0QMRjeMQMAxkf5hXD8x58mqe3CUQUzRh4hAQDyRyeMzygmzLMQ4xw29gcxw5ThBrPB50WOX058XhjxkpxF7ZILp0+P9qlevnq0jyYasHesbGUb+JtYfjJzIcGreoRBC/BcJPCEiBmKPjRlZN25sIBFs3EfJHpk5RByZOTZpZC+wVUfgIfjIFsQd+TAZYhNVqlQpuxG9D4tzZxihlJUxCogrbghuTDDi7x/OvdwQy9kVeyzdCHA+Xz5nhB1fMc/AHTNulsFYmKiMP0gUZICee+45c1uktI/SWt6rZJYgcg6SXe3fv799bnXq1DFnXExgckJsZgal2GQWKYXkmEaAYixEsCeooMWfYe0io4jBEaXRmDjhkEkgRSWZQgjxRyTwhIg4CDfEHLe4uKMEk34fMghx2CThOIfgo6+OzW6+fPlM9Cnzc3Ag9BBc9FFRekfWATFGbx7ld2TW2Jgi9CiZ5D3mPc8MPjOEOpttHAPJrJK15d84rPLzZKTI1FWpUsX+f2U19g/nBZnOfv362XvbqlUr17Zt26SIYbKtZKEooUXMUdKLGy6l1GGGygDcchk9Qek3vXm4Swd9nH300UfuX//6l4lMzhneLwQ54lwOmUII8b9I4AkhREBQUsaIFjJGCDHEHptVbOopd+NGphRRwUafzGk8qxoHMYCZBGWglNIi0jHV4X6ygVjlU2KIcEQoIsqjNNMuSAh28HlgzkH/JJmpxx9/3D6XoCCTzogNMrwIcrKHfH6pIMbZLhAoevPNN20eJO8fohjBFUT2k2OdESyMh2GuISKcG5UEykoLIcT+kcATQogkQLYUgcaNcrP58+e72bNn7zWxoecR0Ya4y5iV4OfY/CPg2NgiAOmprFixomUE2VjzeLJK5aIGwhlxd88997hp06ZZ7xuCIogeM0oLKcNE7GNYQj8bJdCp9tkxK5ZSTYQxxzHOlQi+RGbTPv30U/fYY4+Z+ymZTf5/+knD5HwqhBBhRQJPCCFE2kO2lUwU4o7eMnq9GD2SKCiJph+SEltMXhjVkOqQmcbkBMMaXtMjjzziP3LoIB4pAWUIP0EP3DsZ7UH5uBBCiKxx+MOE4IQQQog0hiwa2TX6TckavfXWW65w4cKWOc2OiQcxVMp0ydjRl8ncxIceesh/NLWhFBhTGEqOX375ZeuJw1ToUMZOkEmlp5T3pkePHlZuzNfOnTtb1k4IIUTWkcATQgghfBAsGN8wX3LChAkm+DDFoQz2UEoDydjRczd9+nTLdlF2GKVyWjJrjE2hv5QxIYxSwYDlYEQx5kH0JN5+++1W8lm3bl331FNPmROsDJ6EEOLgkcATQgghfBBx9Dqec845NvKCeWuUVyJacCo9GJGHoUqfPn1svED9+vXNwCWKBjhk7jCMwTUWoYbIQxQfSMhSFoswxMmUQeX8XIcOHdydd95poz7UayeEEIeGBJ4QQgiRAYQJdvyUG5Jdev31180YBZGHmMkK9JKNHj3ahpiTieJSi8NpVMEshnLWDz74wAb9YwTEHM39wWgP5tp1797dzIaaNm1qRjdk74J0MRVCiHRAAk8IIYT4E4cddthex1LA+IORCgi/EiVK2H2ZwQD6nj172hgMSjQRh1HPSBUpUsReLxlLXitZvT9nLOm1I2tHCSaD5nmPMWhh/AHvEe+7EEKI7CGBJ4QQQuwDREqePHn2ZqNw1qSXjpmFZcqU2a8YYU4hpiP08DEM/Morr8yWUUuqQOYTwUbfIbPyeI8o1YwL2x07dpioY9vx2WefmfEM4q5atWrK2gkhRAJRqEwIIYTIBOawtWjRwo0bN87mGJKR69atm/v555/9Z/wXXDMZyk1fGXPb6tWrZ4IwXcD9koHxCLaXXnrJZv8B/YhNmjSxMkzeo3jfHb2Oh+K6KYQQYv9I4AkhhBAHADfHSy+91M2dO9fMQJjNxsgDeskyjpMlS9W3b18TOA0bNsy0Dy2KkK1jWDwjJzCooSdv+PDh7qyzznJTpkxx11xzjWX3MJ3R0HIhhAgGDToXQgghDoLVq1dbaSGz8mrWrGlDyxmOTiaK+zAMad68ufWZ5cqVy/+p9GLRokWuY8eObuvWre7XX3814Uvms1mzZmlRriqEEDmJevCEEEKIg4BxCZUrV7bMHWWbiBmGouOwiVnIMcccYyWcZPrSFXrx6EUki0c2j3ERl19+eaRmAAohRFhRBk8IIYQ4BDZv3uxGjhxp/WRk79q3b29ZqxtvvNENHDjQf1b6snLlSuu7Y94dpZpRnAEohBBhRBk8IYQQ4hA49thjrTST+W9fffWV9ZgxFL1Hjx42TiFo9uzZ4/7zn/+Ymcl5551nfYL7gj7Bt99+2w0bNsxNnTrVTGDIMmIeE2RGjUznF198YcPPK1WqZI6aQgghgkcZPCGEECIbMNttxowZ5h7JcPR33313v2IrEZARY87eG2+84SZPnuw+/fRTt2zZsn0OYed5uFXOmjXLrVq1ykY7IOxKlSrlOnToELjLJ2MlMFS5+uqrTYgKIYQIHrloCiGEENmA8kyyZBiJ1KlTJ1Bxt2TJEte5c2cTTTh5fvjhh5Y13FeslhEFiLsxY8aYuIPffvvNff/991YyidsnAjBIyNzRi4j5DO+PEEKI4JHAE0IIIbLJe++9Z5m8WrVq+fckHsTZK6+8Ys6UlFZu27Ztn8IuDgYwZOsokUTUkVlkXAHwc3PmzDGht695fomCUtDq1aub4Qq/SwghRPBI4AkhhBDZALMVxBKZqtKlS/v3Jh7KK8nI0Uv35JNPugIFCviP/C8IqjPPPNOyfdWqVXN58+Y1F8shQ4ZYbxzExxcgHIOEMlAE5cyZM/17hBBCBIkEnhBCCJENKIXctWuXDfhOFvTNYfKyPxgiXqNGjT+MamCoON9XqVLFvqeUlHEGQc+lO//88y3j+Nlnn/n3CCGECBIJPCGEECIbfPnll27nzp2ubNmy/j3hhp5BKFOmjJnCBC3wjj/+eFesWDFzGsUgRgghRLBI4AkhhBDZYPXq1dbHxsiEsLN9+3YbzJ4nTx5z/Tz99NP9R4KlfPnyZgazbt06/x4hhBBBIYEnhBBCZINNmzbZTLoiRYr494QTeu4WLlxoPYO4fV533XWWXUsGvDeY0PBeCSGECBYJPCGEECIbUHaIUckpp5zi3xNOyDIOHDjQyjLbt2/vihcv7j8SPPT7ITBx/hRCCBEsEnhCCCFENkC0kJ0KcmB4IhgwYICVSfbs2dOVK1fOXDmTRcGCBc1Jk0ynEEKIYJHAE0IIIbIBmamwM3XqVMveDR8+3F144YV7jVaYq7d8+fJM5+klgiCHvwshhPgjEnhCCCFENqCPjTEAQYukQ4G/aenSpe6OO+6w+XmUkW7cuNFt2LDBzZ0717344ouWfWSEQpDQ9yeEECI5SOAJIYQQ2eC4446zckccKpMFWUOE2YFYuXKl69Spk1uyZIkNPGfuXfxGJu+nn35yuXLl8p8dHJSGIiKDHskghBBCAk8IIYTIFpQfIvDIiiUDRNmyZcv+4EhJmeWfYSRB79693YwZM/ZbRspoh2QIvB9//NHKQvPly+ffI4QQIigk8IQQQohsgIEIBiurVq3y7wkGyi1ffvll9+ijj7qXXnrJ7dixw3/EuYceesh1797dTZw40b7H+GXo0KHu1Vdf/cPz/kzhwoWTYg7D7D0E3kknneTfI4QQIij+ErtghK9pQAghhEgRMDC58cYbXcuWLV23bt38exMPl+u33nrLrV+/3r/nj1ACedZZZ7lLLrnEykU/+ugj99VXX/mP7pvKlSu7UqVKWQ9hUFBKevLJJ7vTTjvN+v5UpimEEMEigSeEEEJkgxUrVrirr77alSxZ0k2YMMG/V8RBZJYoUcI1bNjQXDuFEEIEi0o0hRBCiGxQtGhRMy2ZNWuWDT0Xf2TatGmWXSxfvrx/jxBCiCCRwBNCCCGyAb1lVatWNfOTKVOm+PeKOO+8844JvFq1avn3CCGECBIJPCGEECKbVK9e3XrLxo4dG8p5eDkFTp/03dHnV7p0af9eIYQQQSKBJ4QQQmQTZsrhponhynfffff7ncIymlu3bnWNGjXy7xFCCBE0EnhCCCFENmHYeZMmTWwW3vjx4/170xtKVl9//XXLbLZo0cK/VwghRNBI4AkhhBAJgDEJzJQbN25cprPn0gVm33G77LLL3KmnnurfK4QQImgk8IQQQogEULx4cVevXj23YMECN2nSJP/e9OTHH390o0ePdlu2bHGtW7f27xVCCJEMJPCEEEKIBHHvvfe6o446yg0dOvSAQ8ajzPvvv+8mTpzoatasqfEIQgiRZCTwhBBCiATBsPOOHTu6mTNnmqPmr7/+6j+SPqxdu9a99tpr1oPXtm1bd+KJJ/qPCCGESAYSeEIIIUSCwFCkbt26rly5cibw5s+f7z+SHiBocc7ktVOaWbZsWZuBJ4QQInlI4AkhhBAJpHDhwiZuli9fbi6SjAlIB5j/t3TpUjds2DBXoUIFG2yeK1cu/1EhhBDJQgJPCCGESCBHHHGEu+SSS9w111xjRiOTJ092u3fv9h+NLps3b3YjR440kdegQQN39tln+48IIYRIJhJ4QgghRIIpVKiQa9asmcuTJ4/r0aOHmz59umW4osquXbvc888/b7errrrK1a5d28xmhBBCJB8JPCGEECIAKlWq5O666y73ww8/uAcffNDNmTPHfyRa/PLLL27w4MGub9++7vzzz3cdOnRwRYsW9R8VQgiRbP7iRTmkKIQQQuQgO3fudKNGjXJdunRxp512mmW4ola6OGjQIPePf/zDhpnzb0TeYYcpfiyEEDmFBJ4QQggRIDt27HDDhw93d9xxh7vwwgvNhISh6FHglVdecffff7+VaL799ttyzRRCiBCgEJsQQggRIDhJ3nzzze7pp592s2fPNofNZcuW+Y+mJpRlYiDz8MMPu+3bt7sJEyZI3AkhREiQwBNCCCECBsORO++80z322GPuww8/dNdff72JIoRSKkHRD26ZPXv2dO3bt3d79uyxLJ7EnRBChAeVaAohhBBJAkFEKSOmK2S+brvtNnPbPOWUU0Lft4YYXbJkiZmpjBs3zl188cXu0Ucfdeeee6567oQQIkRI4AkhhBBJ5Ndff3ULFy608QkffPCBq1OnjrvllltcmTJl3JFHHuk/K1xs2rTJzZo1y/Xq1cutWrXKNW7c2LVt29YVKVLEf4YQQoiwIIEnhBBC5ABfffWVGzp0qN0QStddd52rVq2aZcTCIvS+//57N3fuXDdp0iT35ptv2nw/hF29evXcCSec4D9LCCFEmJDAE0IIIXKIbdu2ubfeessNGTLEevOYnVejRg1Xt25dd84557gjjjjCf2Zy2bJli5s5c6aVk06bNs0yeA0aNHAtWrRwF1xwQWgzjUIIISTwhBBCiByFvjxcNXHYJJv36aef2qy8mjVrWink6aef7g4//HD/2cHC3D4E3ciRI+3vQYDWrl3bNWrUyEpI8+fP7z9TCCFEWJHAE0IIIULA7t273Zo1a9z06dPdgAED3PLly60kMp7Vq169uitYsKD/7MTy0UcfualTp9rvXrx4sQk9BGabNm1MbJ588sn+M4UQQoQdCTwhhBAiRGDCwiiCMWPGmGPlypUrzaWSskjGEZBRu/LKK61X71BLOH/88UcTdePHj7fbxo0bLZPI/4eYvOeee1zFihXtd8ohUwghUgsJPCGEECLELFiwwE2ZMsVNnDjRffLJJ5bp40Z277zzznPFihWzr3nz5rVZdIxcKFmypI1hWLFihX0FykBXr17t5s+fb6KR8kvm8+XJk8dEXa1atdxll13mTjrpJHu+EEKI1EQCTwghhEgR1q5da2WU3D7//HP3ww8/uJ9//tnt2rXLhpBTWvnn4enHHnusZebo48uVK5eJOko9q1Sp4i699FJXoUIFd8wxx/jPFkIIkepI4AkhhBApCMJu3bp17ttvv3Xr16+30k56+Ci/zAgjGI4//nh39NFHm2ELmT6yfEIIIaKJBJ4QQgghhBBCRAR1TgshhBBCCCFERJDAE0IIIYQQQoiIIIEnhBBCCCGEEBFBAk8IIYQQQgghIoIEnhBCCCGEEEJEBAk8IYQQQgghhIgIEnhCCCGEEEIIEREk8IQQQgghhBAiIkjgCSGEEEIIIUREkMATQgghhBBCiIgggSeEEEIIIYQQEUECTwghhBBCCCEiggSeEEIIIYQQQkQECTwhhBBCCCGEiAgSeEIIIYQQQggRESTwhBBCCCGEECIiSOAJIYQQQgghRESQwBNCCCGEEEKIiCCBJ4QQQgghhBARQQJPCCGEEEIIISKCBJ4QQgghhBBCRAQJPCGEEEIIIYSICBJ4QgghhBBCCBERJPCEEEIIIYQQIhI49/95bfyhl4GY3wAAAABJRU5ErkJggg==;" vertex="1" parent="1">
          <mxGeometry x="39" y="20" width="772.17" height="520" as="geometry" />
        </mxCell>
        <mxCell id="TVLRT40YYHWSR_mzn2Wf-2" value="1" style="ellipse;whiteSpace=wrap;html=1;aspect=fixed;" vertex="1" parent="1">
          <mxGeometry x="140" y="620" width="50" height="50" as="geometry" />
        </mxCell>
        <mxCell id="TVLRT40YYHWSR_mzn2Wf-3" value="2" style="ellipse;whiteSpace=wrap;html=1;aspect=fixed;" vertex="1" parent="1">
          <mxGeometry x="70" y="740" width="50" height="50" as="geometry" />
        </mxCell>
        <mxCell id="TVLRT40YYHWSR_mzn2Wf-4" value="3" style="ellipse;whiteSpace=wrap;html=1;aspect=fixed;" vertex="1" parent="1">
          <mxGeometry x="90" y="890" width="50" height="50" as="geometry" />
        </mxCell>
        <mxCell id="TVLRT40YYHWSR_mzn2Wf-5" value="4" style="ellipse;whiteSpace=wrap;html=1;aspect=fixed;" vertex="1" parent="1">
          <mxGeometry x="210" y="740" width="50" height="50" as="geometry" />
        </mxCell>
        <mxCell id="TVLRT40YYHWSR_mzn2Wf-6" value="5" style="ellipse;whiteSpace=wrap;html=1;aspect=fixed;" vertex="1" parent="1">
          <mxGeometry x="330" y="600" width="50" height="50" as="geometry" />
        </mxCell>
        <mxCell id="TVLRT40YYHWSR_mzn2Wf-7" value="8" style="ellipse;whiteSpace=wrap;html=1;aspect=fixed;" vertex="1" parent="1">
          <mxGeometry x="530" y="600" width="50" height="50" as="geometry" />
        </mxCell>
        <mxCell id="TVLRT40YYHWSR_mzn2Wf-8" value="7" style="ellipse;whiteSpace=wrap;html=1;aspect=fixed;" vertex="1" parent="1">
          <mxGeometry x="470" y="700" width="50" height="50" as="geometry" />
        </mxCell>
        <mxCell id="TVLRT40YYHWSR_mzn2Wf-9" value="6" style="ellipse;whiteSpace=wrap;html=1;aspect=fixed;" vertex="1" parent="1">
          <mxGeometry x="600" y="860" width="50" height="50" as="geometry" />
        </mxCell>
        <mxCell id="TVLRT40YYHWSR_mzn2Wf-10" value="9" style="ellipse;whiteSpace=wrap;html=1;aspect=fixed;" vertex="1" parent="1">
          <mxGeometry x="670" y="720" width="50" height="50" as="geometry" />
        </mxCell>
        <mxCell id="TVLRT40YYHWSR_mzn2Wf-11" value="11" style="ellipse;whiteSpace=wrap;html=1;aspect=fixed;" vertex="1" parent="1">
          <mxGeometry x="300" y="820" width="50" height="50" as="geometry" />
        </mxCell>
        <mxCell id="TVLRT40YYHWSR_mzn2Wf-12" value="12" style="ellipse;whiteSpace=wrap;html=1;aspect=fixed;" vertex="1" parent="1">
          <mxGeometry x="390" y="890" width="50" height="50" as="geometry" />
        </mxCell>
        <mxCell id="TVLRT40YYHWSR_mzn2Wf-13" value="10" style="ellipse;whiteSpace=wrap;html=1;aspect=fixed;" vertex="1" parent="1">
          <mxGeometry x="210" y="900" width="50" height="50" as="geometry" />
        </mxCell>
        <mxCell id="TVLRT40YYHWSR_mzn2Wf-14" value="" style="endArrow=none;html=1;rounded=0;entryX=0;entryY=1;entryDx=0;entryDy=0;exitX=0.733;exitY=0.027;exitDx=0;exitDy=0;exitPerimeter=0;" edge="1" parent="1" source="TVLRT40YYHWSR_mzn2Wf-3" target="TVLRT40YYHWSR_mzn2Wf-2">
          <mxGeometry width="50" height="50" relative="1" as="geometry">
            <mxPoint x="300" y="830" as="sourcePoint" />
            <mxPoint x="350" y="780" as="targetPoint" />
          </mxGeometry>
        </mxCell>
        <mxCell id="TVLRT40YYHWSR_mzn2Wf-15" value="" style="endArrow=none;html=1;rounded=0;entryX=0;entryY=0.5;entryDx=0;entryDy=0;exitX=1;exitY=0.5;exitDx=0;exitDy=0;" edge="1" parent="1" source="TVLRT40YYHWSR_mzn2Wf-3" target="TVLRT40YYHWSR_mzn2Wf-5">
          <mxGeometry width="50" height="50" relative="1" as="geometry">
            <mxPoint x="116.65000000000009" y="751.3499999999999" as="sourcePoint" />
            <mxPoint x="157.3223304703365" y="672.6776695296635" as="targetPoint" />
          </mxGeometry>
        </mxCell>
        <mxCell id="TVLRT40YYHWSR_mzn2Wf-16" value="" style="endArrow=none;html=1;rounded=0;entryX=0.033;entryY=0.827;entryDx=0;entryDy=0;exitX=1;exitY=0;exitDx=0;exitDy=0;entryPerimeter=0;" edge="1" parent="1" source="TVLRT40YYHWSR_mzn2Wf-5" target="TVLRT40YYHWSR_mzn2Wf-6">
          <mxGeometry width="50" height="50" relative="1" as="geometry">
            <mxPoint x="130" y="775" as="sourcePoint" />
            <mxPoint x="220" y="775" as="targetPoint" />
          </mxGeometry>
        </mxCell>
        <mxCell id="TVLRT40YYHWSR_mzn2Wf-17" value="" style="endArrow=none;html=1;rounded=0;entryX=0.283;entryY=0.993;entryDx=0;entryDy=0;exitX=0.733;exitY=0.027;exitDx=0;exitDy=0;exitPerimeter=0;entryPerimeter=0;" edge="1" parent="1" source="TVLRT40YYHWSR_mzn2Wf-8" target="TVLRT40YYHWSR_mzn2Wf-7">
          <mxGeometry width="50" height="50" relative="1" as="geometry">
            <mxPoint x="262.6776695296637" y="757.322330470336" as="sourcePoint" />
            <mxPoint x="341.6500000000001" y="651.3499999999999" as="targetPoint" />
          </mxGeometry>
        </mxCell>
        <mxCell id="TVLRT40YYHWSR_mzn2Wf-18" value="" style="endArrow=none;html=1;rounded=0;entryX=0;entryY=0.5;entryDx=0;entryDy=0;exitX=1;exitY=0.5;exitDx=0;exitDy=0;" edge="1" parent="1" source="TVLRT40YYHWSR_mzn2Wf-6" target="TVLRT40YYHWSR_mzn2Wf-7">
          <mxGeometry width="50" height="50" relative="1" as="geometry">
            <mxPoint x="262.6776695296637" y="757.322330470336" as="sourcePoint" />
            <mxPoint x="341.6500000000001" y="651.3499999999999" as="targetPoint" />
          </mxGeometry>
        </mxCell>
        <mxCell id="TVLRT40YYHWSR_mzn2Wf-19" value="" style="endArrow=none;html=1;rounded=0;exitX=1;exitY=1;exitDx=0;exitDy=0;" edge="1" parent="1" source="TVLRT40YYHWSR_mzn2Wf-8" target="TVLRT40YYHWSR_mzn2Wf-9">
          <mxGeometry width="50" height="50" relative="1" as="geometry">
            <mxPoint x="262.6776695296637" y="757.322330470336" as="sourcePoint" />
            <mxPoint x="341.6500000000001" y="651.3499999999999" as="targetPoint" />
          </mxGeometry>
        </mxCell>
        <mxCell id="TVLRT40YYHWSR_mzn2Wf-20" value="" style="endArrow=none;html=1;rounded=0;exitX=0.733;exitY=0.093;exitDx=0;exitDy=0;exitPerimeter=0;" edge="1" parent="1" source="TVLRT40YYHWSR_mzn2Wf-9" target="TVLRT40YYHWSR_mzn2Wf-10">
          <mxGeometry width="50" height="50" relative="1" as="geometry">
            <mxPoint x="262.6776695296637" y="757.322330470336" as="sourcePoint" />
            <mxPoint x="341.6500000000001" y="651.3499999999999" as="targetPoint" />
          </mxGeometry>
        </mxCell>
        <mxCell id="TVLRT40YYHWSR_mzn2Wf-21" value="" style="endArrow=none;html=1;rounded=0;entryX=0.5;entryY=0;entryDx=0;entryDy=0;exitX=0.633;exitY=1.01;exitDx=0;exitDy=0;exitPerimeter=0;" edge="1" parent="1" source="TVLRT40YYHWSR_mzn2Wf-3" target="TVLRT40YYHWSR_mzn2Wf-4">
          <mxGeometry width="50" height="50" relative="1" as="geometry">
            <mxPoint x="116.65000000000009" y="751.3499999999999" as="sourcePoint" />
            <mxPoint x="157.3223304703365" y="672.6776695296635" as="targetPoint" />
          </mxGeometry>
        </mxCell>
        <mxCell id="TVLRT40YYHWSR_mzn2Wf-22" value="" style="endArrow=none;html=1;rounded=0;entryX=0.5;entryY=0;entryDx=0;entryDy=0;exitX=0.5;exitY=1;exitDx=0;exitDy=0;" edge="1" parent="1" source="TVLRT40YYHWSR_mzn2Wf-5" target="TVLRT40YYHWSR_mzn2Wf-13">
          <mxGeometry width="50" height="50" relative="1" as="geometry">
            <mxPoint x="116.65000000000009" y="751.3499999999999" as="sourcePoint" />
            <mxPoint x="157.3223304703365" y="672.6776695296635" as="targetPoint" />
          </mxGeometry>
        </mxCell>
        <mxCell id="TVLRT40YYHWSR_mzn2Wf-23" value="" style="endArrow=none;html=1;rounded=0;entryX=0;entryY=0;entryDx=0;entryDy=0;exitX=1;exitY=1;exitDx=0;exitDy=0;" edge="1" parent="1" source="TVLRT40YYHWSR_mzn2Wf-11" target="TVLRT40YYHWSR_mzn2Wf-12">
          <mxGeometry width="50" height="50" relative="1" as="geometry">
            <mxPoint x="116.65000000000009" y="751.3499999999999" as="sourcePoint" />
            <mxPoint x="157.3223304703365" y="672.6776695296635" as="targetPoint" />
          </mxGeometry>
        </mxCell>
        <mxCell id="TVLRT40YYHWSR_mzn2Wf-24" value="" style="endArrow=none;html=1;rounded=0;entryX=1;entryY=1;entryDx=0;entryDy=0;exitX=0.267;exitY=-0.007;exitDx=0;exitDy=0;exitPerimeter=0;" edge="1" parent="1" source="TVLRT40YYHWSR_mzn2Wf-11" target="TVLRT40YYHWSR_mzn2Wf-5">
          <mxGeometry width="50" height="50" relative="1" as="geometry">
            <mxPoint x="116.65000000000009" y="751.3499999999999" as="sourcePoint" />
            <mxPoint x="157.3223304703365" y="672.6776695296635" as="targetPoint" />
          </mxGeometry>
        </mxCell>
      </root>
    </mxGraphModel>
  </diagram>
</mxfile>
